G04*
G04 #@! TF.GenerationSoftware,Altium Limited,Altium Designer,23.3.1 (30)*
G04*
G04 Layer_Physical_Order=2*
G04 Layer_Color=16711680*
%FSLAX44Y44*%
%MOMM*%
G71*
G04*
G04 #@! TF.SameCoordinates,AB4FAB72-6961-4B24-BA16-F6D923A68503*
G04*
G04*
G04 #@! TF.FilePolarity,Positive*
G04*
G01*
G75*
%ADD14C,0.2540*%
%ADD52C,1.5000*%
%ADD53R,1.5000X1.5000*%
%ADD54R,1.4280X1.4280*%
%ADD55C,1.4280*%
%ADD56C,3.2760*%
%ADD57C,1.4986*%
%ADD58R,1.4986X1.4986*%
%ADD59O,2.0000X4.0000*%
%ADD60O,4.7000X2.3500*%
%ADD61C,0.4064*%
%ADD62C,4.5720*%
%ADD63C,3.0480*%
G36*
X1153877Y1417787D02*
X1173142Y1405887D01*
X1195663Y1390839D01*
X1217632Y1374997D01*
X1239021Y1358381D01*
X1259804Y1341013D01*
X1279954Y1322913D01*
X1299444Y1304106D01*
X1318251Y1284615D01*
X1336351Y1264465D01*
X1353720Y1243683D01*
X1370336Y1222293D01*
X1386177Y1200324D01*
X1401225Y1177804D01*
X1415459Y1154761D01*
X1428862Y1131224D01*
X1441416Y1107224D01*
X1453106Y1082792D01*
X1463916Y1057957D01*
X1473832Y1032753D01*
X1482843Y1007211D01*
X1490936Y981363D01*
X1498102Y955243D01*
X1504331Y928884D01*
X1509615Y902319D01*
X1513947Y875583D01*
X1517323Y848709D01*
X1519737Y821732D01*
X1521187Y794686D01*
X1521670Y767605D01*
X1521187Y740524D01*
X1519737Y713478D01*
X1517323Y686501D01*
X1513947Y659627D01*
X1509615Y632891D01*
X1504331Y606326D01*
X1498102Y579967D01*
X1490936Y553847D01*
X1482843Y527999D01*
X1473832Y502457D01*
X1463916Y477253D01*
X1453106Y452419D01*
X1441416Y427986D01*
X1428862Y403986D01*
X1415459Y380450D01*
X1401225Y357406D01*
X1386177Y334886D01*
X1370336Y312917D01*
X1353720Y291528D01*
X1336351Y270745D01*
X1318251Y250595D01*
X1299444Y231104D01*
X1279954Y212297D01*
X1259804Y194198D01*
X1239021Y176829D01*
X1217632Y160213D01*
X1195663Y144371D01*
X1173142Y129324D01*
X1150099Y115089D01*
X1126562Y101686D01*
X1102563Y89132D01*
X1078130Y77443D01*
X1053296Y66633D01*
X1028091Y56716D01*
X1002549Y47705D01*
X976702Y39612D01*
X950582Y32446D01*
X924222Y26218D01*
X897658Y20934D01*
X870921Y16601D01*
X844048Y13226D01*
X817070Y10812D01*
X790024Y9362D01*
X764213Y8901D01*
X762944Y8947D01*
X762943Y8947D01*
X761674Y8901D01*
X735865Y9362D01*
X708821Y10811D01*
X681846Y13225D01*
X654975Y16600D01*
X628241Y20933D01*
X601679Y26216D01*
X575322Y32444D01*
X549204Y39609D01*
X523359Y47702D01*
X497819Y56712D01*
X472617Y66628D01*
X447785Y77437D01*
X423354Y89125D01*
X399357Y101678D01*
X375822Y115080D01*
X352781Y129313D01*
X330263Y144359D01*
X308296Y160200D01*
X286908Y176814D01*
X266127Y194181D01*
X245979Y212279D01*
X226490Y231085D01*
X207684Y250574D01*
X189587Y270722D01*
X172219Y291503D01*
X155605Y312890D01*
X139764Y334857D01*
X124718Y357376D01*
X110485Y380417D01*
X97084Y403951D01*
X84531Y427949D01*
X72842Y452380D01*
X62033Y477212D01*
X52117Y502414D01*
X43107Y527954D01*
X35015Y553799D01*
X27850Y579917D01*
X21621Y606273D01*
X16338Y632836D01*
X12006Y659570D01*
X10056Y675095D01*
X10056Y675095D01*
X10056D01*
X10016Y676324D01*
X10417Y681412D01*
X11771Y687052D01*
X13991Y692411D01*
X17022Y697358D01*
X20789Y701769D01*
X25200Y705536D01*
X30146Y708567D01*
X35505Y710787D01*
X41014Y712110D01*
X41031Y712106D01*
X41589Y712176D01*
X42831Y712305D01*
X44014Y712421D01*
X47204Y713389D01*
X50145Y714961D01*
X52722Y717076D01*
X54837Y719653D01*
X56409Y722594D01*
X57377Y725785D01*
X57704Y729103D01*
X57678Y729366D01*
X57692Y729438D01*
Y829768D01*
X57655Y829957D01*
X57747Y830895D01*
X57454Y833872D01*
X56585Y836736D01*
X55174Y839374D01*
X53276Y841687D01*
X50963Y843586D01*
X48324Y844996D01*
X45461Y845865D01*
X45202Y845890D01*
X43989Y846028D01*
X43610Y846103D01*
X43461Y846074D01*
X43326Y846063D01*
X42746Y846094D01*
X38265Y846447D01*
X33419Y847610D01*
X28815Y849517D01*
X24566Y852121D01*
X20777Y855357D01*
X17540Y859146D01*
X14937Y863395D01*
X13030Y867999D01*
X11866Y872845D01*
X11795Y873758D01*
X12006Y875440D01*
X16338Y902174D01*
X21621Y928736D01*
X27850Y955093D01*
X35015Y981211D01*
X43107Y1007056D01*
X52117Y1032596D01*
X62033Y1057798D01*
X72842Y1082630D01*
X84531Y1107061D01*
X97084Y1131058D01*
X110485Y1154593D01*
X124718Y1177634D01*
X139765Y1200152D01*
X155605Y1222119D01*
X172220Y1243507D01*
X189587Y1264288D01*
X207685Y1284436D01*
X226490Y1303925D01*
X245979Y1322731D01*
X266127Y1340828D01*
X286908Y1358195D01*
X308296Y1374810D01*
X330263Y1390650D01*
X352781Y1405697D01*
X372159Y1417667D01*
X373673Y1417968D01*
X375545Y1417595D01*
X377132Y1416535D01*
X377821Y1415504D01*
Y1257996D01*
X378117Y1256510D01*
X378959Y1255249D01*
X380219Y1254407D01*
X381706Y1254112D01*
X1143706D01*
X1145192Y1254407D01*
X1146452Y1255249D01*
X1147294Y1256510D01*
X1147590Y1257996D01*
Y1415498D01*
X1148331Y1416607D01*
X1150040Y1417749D01*
X1152056Y1418150D01*
X1153877Y1417787D01*
D02*
G37*
%LPC*%
G36*
X278182Y1255910D02*
X278130D01*
Y1247140D01*
X286900D01*
Y1247192D01*
X286216Y1249745D01*
X284894Y1252035D01*
X283025Y1253904D01*
X280735Y1255226D01*
X278182Y1255910D01*
D02*
G37*
G36*
X275590D02*
X275538D01*
X272985Y1255226D01*
X270695Y1253904D01*
X268826Y1252035D01*
X267504Y1249745D01*
X266820Y1247192D01*
Y1247140D01*
X275590D01*
Y1255910D01*
D02*
G37*
G36*
X337700D02*
X317620D01*
Y1235830D01*
X337700D01*
Y1255910D01*
D02*
G37*
G36*
X303582D02*
X300938D01*
X298385Y1255226D01*
X296095Y1253904D01*
X294226Y1252035D01*
X292904Y1249745D01*
X292220Y1247192D01*
Y1244548D01*
X292904Y1241995D01*
X294226Y1239705D01*
X296095Y1237836D01*
X298385Y1236514D01*
X300938Y1235830D01*
X303582D01*
X306135Y1236514D01*
X308425Y1237836D01*
X310294Y1239705D01*
X311616Y1241995D01*
X312300Y1244548D01*
Y1247192D01*
X311616Y1249745D01*
X310294Y1252035D01*
X308425Y1253904D01*
X306135Y1255226D01*
X303582Y1255910D01*
D02*
G37*
G36*
X286900Y1244600D02*
X278130D01*
Y1235830D01*
X278182D01*
X280735Y1236514D01*
X283025Y1237836D01*
X284894Y1239705D01*
X286216Y1241995D01*
X286900Y1244548D01*
Y1244600D01*
D02*
G37*
G36*
X275590D02*
X266820D01*
Y1244548D01*
X267504Y1241995D01*
X268826Y1239705D01*
X270695Y1237836D01*
X272985Y1236514D01*
X275538Y1235830D01*
X275590D01*
Y1244600D01*
D02*
G37*
G36*
X1064989Y1173350D02*
X1061263D01*
X1057607Y1172623D01*
X1054164Y1171197D01*
X1051065Y1169126D01*
X1048430Y1166491D01*
X1046359Y1163392D01*
X1044933Y1159949D01*
X1044206Y1156293D01*
Y1152567D01*
X1044933Y1148911D01*
X1046359Y1145468D01*
X1048430Y1142369D01*
X1051065Y1139734D01*
X1054164Y1137663D01*
X1057607Y1136237D01*
X1061263Y1135510D01*
X1064989D01*
X1068645Y1136237D01*
X1072088Y1137663D01*
X1075187Y1139734D01*
X1077822Y1142369D01*
X1079893Y1145468D01*
X1081319Y1148911D01*
X1082046Y1152567D01*
Y1156293D01*
X1081319Y1159949D01*
X1079893Y1163392D01*
X1077822Y1166491D01*
X1075187Y1169126D01*
X1072088Y1171197D01*
X1068645Y1172623D01*
X1064989Y1173350D01*
D02*
G37*
G36*
X933589D02*
X929863D01*
X926207Y1172623D01*
X922764Y1171197D01*
X919665Y1169126D01*
X917030Y1166491D01*
X914959Y1163392D01*
X913533Y1159949D01*
X912806Y1156293D01*
Y1152567D01*
X913533Y1148911D01*
X914959Y1145468D01*
X917030Y1142369D01*
X919665Y1139734D01*
X922764Y1137663D01*
X926207Y1136237D01*
X929863Y1135510D01*
X933589D01*
X937245Y1136237D01*
X940688Y1137663D01*
X943787Y1139734D01*
X946422Y1142369D01*
X948493Y1145468D01*
X949919Y1148911D01*
X950646Y1152567D01*
Y1156293D01*
X949919Y1159949D01*
X948493Y1163392D01*
X946422Y1166491D01*
X943787Y1169126D01*
X940688Y1171197D01*
X937245Y1172623D01*
X933589Y1173350D01*
D02*
G37*
G36*
X829214D02*
X825488D01*
X821832Y1172623D01*
X818389Y1171197D01*
X815290Y1169126D01*
X812655Y1166491D01*
X810584Y1163392D01*
X809158Y1159949D01*
X808431Y1156293D01*
Y1152567D01*
X809158Y1148911D01*
X810584Y1145468D01*
X812655Y1142369D01*
X815290Y1139734D01*
X818389Y1137663D01*
X821832Y1136237D01*
X825488Y1135510D01*
X829214D01*
X832870Y1136237D01*
X836313Y1137663D01*
X839412Y1139734D01*
X842047Y1142369D01*
X844118Y1145468D01*
X845544Y1148911D01*
X846271Y1152567D01*
Y1156293D01*
X845544Y1159949D01*
X844118Y1163392D01*
X842047Y1166491D01*
X839412Y1169126D01*
X836313Y1171197D01*
X832870Y1172623D01*
X829214Y1173350D01*
D02*
G37*
G36*
X697814D02*
X694088D01*
X690432Y1172623D01*
X686989Y1171197D01*
X683890Y1169126D01*
X681255Y1166491D01*
X679184Y1163392D01*
X677758Y1159949D01*
X677031Y1156293D01*
Y1152567D01*
X677758Y1148911D01*
X679184Y1145468D01*
X681255Y1142369D01*
X683890Y1139734D01*
X686989Y1137663D01*
X690432Y1136237D01*
X694088Y1135510D01*
X697814D01*
X701470Y1136237D01*
X704913Y1137663D01*
X708012Y1139734D01*
X710647Y1142369D01*
X712718Y1145468D01*
X714144Y1148911D01*
X714871Y1152567D01*
Y1156293D01*
X714144Y1159949D01*
X712718Y1163392D01*
X710647Y1166491D01*
X708012Y1169126D01*
X704913Y1171197D01*
X701470Y1172623D01*
X697814Y1173350D01*
D02*
G37*
G36*
X593820D02*
X590093D01*
X586437Y1172623D01*
X582994Y1171197D01*
X579895Y1169126D01*
X577260Y1166491D01*
X575189Y1163392D01*
X573763Y1159949D01*
X573036Y1156293D01*
Y1152567D01*
X573763Y1148911D01*
X575189Y1145468D01*
X577260Y1142369D01*
X579895Y1139734D01*
X582994Y1137663D01*
X586437Y1136237D01*
X590093Y1135510D01*
X593820D01*
X597475Y1136237D01*
X600918Y1137663D01*
X604017Y1139734D01*
X606652Y1142369D01*
X608723Y1145468D01*
X610149Y1148911D01*
X610876Y1152567D01*
Y1156293D01*
X610149Y1159949D01*
X608723Y1163392D01*
X606652Y1166491D01*
X604017Y1169126D01*
X600918Y1171197D01*
X597475Y1172623D01*
X593820Y1173350D01*
D02*
G37*
G36*
X462420D02*
X458693D01*
X455037Y1172623D01*
X451594Y1171197D01*
X448495Y1169126D01*
X445860Y1166491D01*
X443789Y1163392D01*
X442363Y1159949D01*
X441636Y1156293D01*
Y1152567D01*
X442363Y1148911D01*
X443789Y1145468D01*
X445860Y1142369D01*
X448495Y1139734D01*
X451594Y1137663D01*
X455037Y1136237D01*
X458693Y1135510D01*
X462420D01*
X466075Y1136237D01*
X469518Y1137663D01*
X472617Y1139734D01*
X475252Y1142369D01*
X477323Y1145468D01*
X478749Y1148911D01*
X479476Y1152567D01*
Y1156293D01*
X478749Y1159949D01*
X477323Y1163392D01*
X475252Y1166491D01*
X472617Y1169126D01*
X469518Y1171197D01*
X466075Y1172623D01*
X462420Y1173350D01*
D02*
G37*
G36*
X1008700Y1137010D02*
X1006152D01*
X1003690Y1136350D01*
X1001482Y1135076D01*
X999680Y1133274D01*
X998406Y1131066D01*
X998083Y1129864D01*
X996769D01*
X996446Y1131066D01*
X995172Y1133274D01*
X993370Y1135076D01*
X991162Y1136350D01*
X988700Y1137010D01*
X986152D01*
X983690Y1136350D01*
X981482Y1135076D01*
X979680Y1133274D01*
X978406Y1131066D01*
X977746Y1128604D01*
Y1126056D01*
X978361Y1123759D01*
X900699Y1046097D01*
X899857Y1044837D01*
X899561Y1043350D01*
Y1018992D01*
X897286Y1017678D01*
X895418Y1015810D01*
X894097Y1013523D01*
X893413Y1010971D01*
Y1008329D01*
X894097Y1005777D01*
X895418Y1003490D01*
X897286Y1001622D01*
X899574Y1000301D01*
X902125Y999617D01*
X904767D01*
X907319Y1000301D01*
X909606Y1001622D01*
X911474Y1003490D01*
X912795Y1005777D01*
X913479Y1008329D01*
Y1010971D01*
X912795Y1013523D01*
X911474Y1015810D01*
X909606Y1017678D01*
X907331Y1018992D01*
Y1041741D01*
X983855Y1118265D01*
X986152Y1117650D01*
X988700D01*
X991162Y1118310D01*
X991832Y1117230D01*
X926099Y1051497D01*
X925257Y1050237D01*
X924961Y1048750D01*
Y1018992D01*
X922686Y1017678D01*
X920818Y1015810D01*
X919497Y1013523D01*
X918813Y1010971D01*
Y1008329D01*
X919497Y1005777D01*
X920818Y1003490D01*
X922686Y1001622D01*
X924974Y1000301D01*
X927525Y999617D01*
X930167D01*
X932719Y1000301D01*
X935006Y1001622D01*
X936874Y1003490D01*
X938195Y1005777D01*
X938879Y1008329D01*
Y1010971D01*
X938195Y1013523D01*
X936874Y1015810D01*
X935006Y1017678D01*
X932731Y1018992D01*
Y1047141D01*
X1003855Y1118265D01*
X1006152Y1117650D01*
X1008700D01*
X1011162Y1118310D01*
X1013370Y1119584D01*
X1015172Y1121386D01*
X1016446Y1123594D01*
X1017106Y1126056D01*
Y1128604D01*
X1016446Y1131066D01*
X1015172Y1133274D01*
X1013370Y1135076D01*
X1011162Y1136350D01*
X1008700Y1137010D01*
D02*
G37*
G36*
X772925D02*
X770377D01*
X767915Y1136350D01*
X765707Y1135076D01*
X763905Y1133274D01*
X762631Y1131066D01*
X762309Y1129864D01*
X760994D01*
X760671Y1131066D01*
X759397Y1133274D01*
X757595Y1135076D01*
X755387Y1136350D01*
X752925Y1137010D01*
X750377D01*
X747915Y1136350D01*
X745707Y1135076D01*
X743905Y1133274D01*
X742631Y1131066D01*
X741971Y1128604D01*
Y1126056D01*
X742586Y1123759D01*
X672099Y1053272D01*
X671257Y1052012D01*
X670961Y1050525D01*
Y1018992D01*
X668686Y1017678D01*
X666818Y1015810D01*
X665497Y1013523D01*
X664813Y1010971D01*
Y1008329D01*
X665497Y1005777D01*
X666818Y1003490D01*
X668686Y1001622D01*
X670974Y1000301D01*
X673525Y999617D01*
X676167D01*
X678719Y1000301D01*
X681006Y1001622D01*
X682874Y1003490D01*
X684195Y1005777D01*
X684879Y1008329D01*
Y1010971D01*
X684195Y1013523D01*
X682874Y1015810D01*
X681006Y1017678D01*
X678731Y1018992D01*
Y1048916D01*
X748080Y1118265D01*
X750377Y1117650D01*
X752925D01*
X755387Y1118310D01*
X756057Y1117230D01*
X697499Y1058672D01*
X696657Y1057412D01*
X696361Y1055925D01*
Y1018992D01*
X694086Y1017678D01*
X692218Y1015810D01*
X690897Y1013523D01*
X690213Y1010971D01*
Y1008329D01*
X690897Y1005777D01*
X692218Y1003490D01*
X694086Y1001622D01*
X696374Y1000301D01*
X698925Y999617D01*
X701567D01*
X704119Y1000301D01*
X706406Y1001622D01*
X708274Y1003490D01*
X709595Y1005777D01*
X710279Y1008329D01*
Y1010971D01*
X709595Y1013523D01*
X708274Y1015810D01*
X706406Y1017678D01*
X704131Y1018992D01*
Y1054316D01*
X768080Y1118265D01*
X770377Y1117650D01*
X772925D01*
X775387Y1118310D01*
X777595Y1119584D01*
X779397Y1121386D01*
X780671Y1123594D01*
X781331Y1126056D01*
Y1128604D01*
X780671Y1131066D01*
X779397Y1133274D01*
X777595Y1135076D01*
X775387Y1136350D01*
X772925Y1137010D01*
D02*
G37*
G36*
X537530D02*
X534982D01*
X532520Y1136350D01*
X530312Y1135076D01*
X528510Y1133274D01*
X527236Y1131066D01*
X526913Y1129864D01*
X525599D01*
X525276Y1131066D01*
X524002Y1133274D01*
X522200Y1135076D01*
X519992Y1136350D01*
X517530Y1137010D01*
X514982D01*
X512520Y1136350D01*
X510312Y1135076D01*
X508510Y1133274D01*
X507236Y1131066D01*
X506576Y1128604D01*
Y1126056D01*
X507236Y1123594D01*
X508322Y1121713D01*
X495093Y1108484D01*
X494251Y1107224D01*
X493955Y1105737D01*
Y881856D01*
X494251Y880369D01*
X495093Y879109D01*
X512413Y861789D01*
Y847217D01*
X532479D01*
Y865464D01*
X533652Y865950D01*
X538493Y861109D01*
X537813Y858571D01*
Y855929D01*
X538497Y853377D01*
X539818Y851090D01*
X541686Y849222D01*
X543974Y847901D01*
X546525Y847217D01*
X549167D01*
X551719Y847901D01*
X554006Y849222D01*
X555874Y851090D01*
X557195Y853377D01*
X557879Y855929D01*
Y858571D01*
X557195Y861123D01*
X555874Y863410D01*
X554006Y865278D01*
X551719Y866599D01*
X549167Y867283D01*
X546525D01*
X543987Y866603D01*
X511885Y898705D01*
Y1005051D01*
X513040Y1005706D01*
X513155Y1005677D01*
X514418Y1003490D01*
X516286Y1001622D01*
X518573Y1000301D01*
X521125Y999617D01*
X523767D01*
X526319Y1000301D01*
X528606Y1001622D01*
X530474Y1003490D01*
X531795Y1005777D01*
X532479Y1008329D01*
Y1010971D01*
X531795Y1013523D01*
X530474Y1015810D01*
X528606Y1017678D01*
X526319Y1018999D01*
X523767Y1019683D01*
X521125D01*
X518573Y1018999D01*
X516286Y1017678D01*
X514418Y1015810D01*
X513155Y1013623D01*
X513040Y1013594D01*
X511885Y1014249D01*
Y1097465D01*
X532685Y1118265D01*
X534982Y1117650D01*
X537530D01*
X539992Y1118310D01*
X542200Y1119584D01*
X544002Y1121386D01*
X545276Y1123594D01*
X545936Y1126056D01*
Y1128604D01*
X545276Y1131066D01*
X544002Y1133274D01*
X542200Y1135076D01*
X539992Y1136350D01*
X537530Y1137010D01*
D02*
G37*
G36*
X1221702Y1179830D02*
X1216698D01*
X1211791Y1178854D01*
X1207169Y1176939D01*
X1203008Y1174159D01*
X1199471Y1170622D01*
X1196691Y1166461D01*
X1194776Y1161839D01*
X1193800Y1156932D01*
Y1151928D01*
X1194776Y1147021D01*
X1196691Y1142399D01*
X1199471Y1138238D01*
X1203008Y1134700D01*
X1207169Y1131921D01*
X1211791Y1130006D01*
X1216698Y1129030D01*
X1221702D01*
X1226609Y1130006D01*
X1231231Y1131921D01*
X1235392Y1134700D01*
X1238930Y1138238D01*
X1241709Y1142399D01*
X1243624Y1147021D01*
X1244600Y1151928D01*
Y1156932D01*
X1243624Y1161839D01*
X1241709Y1166461D01*
X1238930Y1170622D01*
X1235392Y1174159D01*
X1231231Y1176939D01*
X1226609Y1178854D01*
X1221702Y1179830D01*
D02*
G37*
G36*
X289522D02*
X284518D01*
X279611Y1178854D01*
X274989Y1176939D01*
X270828Y1174159D01*
X267290Y1170622D01*
X264511Y1166461D01*
X262596Y1161839D01*
X261620Y1156932D01*
Y1151928D01*
X262596Y1147021D01*
X264511Y1142399D01*
X267290Y1138238D01*
X270828Y1134700D01*
X274989Y1131921D01*
X279611Y1130006D01*
X284518Y1129030D01*
X289522D01*
X294429Y1130006D01*
X299051Y1131921D01*
X303212Y1134700D01*
X306749Y1138238D01*
X309529Y1142399D01*
X311444Y1147021D01*
X312420Y1151928D01*
Y1156932D01*
X311444Y1161839D01*
X309529Y1166461D01*
X306749Y1170622D01*
X303212Y1174159D01*
X299051Y1176939D01*
X294429Y1178854D01*
X289522Y1179830D01*
D02*
G37*
G36*
X806331Y1137010D02*
X797921D01*
Y1128600D01*
X806331D01*
Y1137010D01*
D02*
G37*
G36*
X570936D02*
X562526D01*
Y1128600D01*
X570936D01*
Y1137010D01*
D02*
G37*
G36*
X1042106D02*
X1033696D01*
Y1128600D01*
X1042106D01*
Y1137010D01*
D02*
G37*
G36*
X795381D02*
X786971D01*
Y1128600D01*
X795381D01*
Y1137010D01*
D02*
G37*
G36*
X559986D02*
X551576D01*
Y1128600D01*
X559986D01*
Y1137010D01*
D02*
G37*
G36*
X1031156D02*
X1022746D01*
Y1128600D01*
X1031156D01*
Y1137010D01*
D02*
G37*
G36*
X1042106Y1126060D02*
X1033696D01*
Y1117650D01*
X1042106D01*
Y1126060D01*
D02*
G37*
G36*
X1031156D02*
X1022746D01*
Y1117650D01*
X1031156D01*
Y1126060D01*
D02*
G37*
G36*
X963700Y1137010D02*
X961152D01*
X958690Y1136350D01*
X956482Y1135076D01*
X954680Y1133274D01*
X953406Y1131066D01*
X952746Y1128604D01*
Y1126056D01*
X953406Y1123594D01*
X954680Y1121386D01*
X956482Y1119584D01*
X958690Y1118310D01*
X961152Y1117650D01*
X963700D01*
X966162Y1118310D01*
X968370Y1119584D01*
X970172Y1121386D01*
X971446Y1123594D01*
X972106Y1126056D01*
Y1128604D01*
X971446Y1131066D01*
X970172Y1133274D01*
X968370Y1135076D01*
X966162Y1136350D01*
X963700Y1137010D01*
D02*
G37*
G36*
X806331Y1126060D02*
X797921D01*
Y1117650D01*
X806331D01*
Y1126060D01*
D02*
G37*
G36*
X795381D02*
X786971D01*
Y1117650D01*
X795381D01*
Y1126060D01*
D02*
G37*
G36*
X727925Y1137010D02*
X725377D01*
X722915Y1136350D01*
X720707Y1135076D01*
X718905Y1133274D01*
X717631Y1131066D01*
X716971Y1128604D01*
Y1126056D01*
X717631Y1123594D01*
X718905Y1121386D01*
X720707Y1119584D01*
X722915Y1118310D01*
X725377Y1117650D01*
X727925D01*
X730387Y1118310D01*
X732595Y1119584D01*
X734397Y1121386D01*
X735671Y1123594D01*
X736331Y1126056D01*
Y1128604D01*
X735671Y1131066D01*
X734397Y1133274D01*
X732595Y1135076D01*
X730387Y1136350D01*
X727925Y1137010D01*
D02*
G37*
G36*
X570936Y1126060D02*
X562526D01*
Y1117650D01*
X570936D01*
Y1126060D01*
D02*
G37*
G36*
X559986D02*
X551576D01*
Y1117650D01*
X559986D01*
Y1126060D01*
D02*
G37*
G36*
X492530Y1137010D02*
X489982D01*
X487520Y1136350D01*
X485312Y1135076D01*
X483510Y1133274D01*
X482236Y1131066D01*
X481576Y1128604D01*
Y1126056D01*
X482236Y1123594D01*
X483510Y1121386D01*
X485312Y1119584D01*
X487520Y1118310D01*
X489982Y1117650D01*
X492530D01*
X494992Y1118310D01*
X497200Y1119584D01*
X499002Y1121386D01*
X500276Y1123594D01*
X500936Y1126056D01*
Y1128604D01*
X500276Y1131066D01*
X499002Y1133274D01*
X497200Y1135076D01*
X494992Y1136350D01*
X492530Y1137010D01*
D02*
G37*
G36*
X991870Y1050903D02*
Y1047750D01*
X995023D01*
X994476Y1049070D01*
X993190Y1050356D01*
X991870Y1050903D01*
D02*
G37*
G36*
X989330D02*
X988010Y1050356D01*
X986724Y1049070D01*
X986177Y1047750D01*
X989330D01*
Y1050903D01*
D02*
G37*
G36*
X944880D02*
Y1047750D01*
X948033D01*
X947486Y1049070D01*
X946200Y1050356D01*
X944880Y1050903D01*
D02*
G37*
G36*
X942340D02*
X941020Y1050356D01*
X939734Y1049070D01*
X939187Y1047750D01*
X942340D01*
Y1050903D01*
D02*
G37*
G36*
X995023Y1045210D02*
X991870D01*
Y1042057D01*
X993190Y1042604D01*
X994476Y1043890D01*
X995023Y1045210D01*
D02*
G37*
G36*
X989330D02*
X986177D01*
X986724Y1043890D01*
X988010Y1042604D01*
X989330Y1042057D01*
Y1045210D01*
D02*
G37*
G36*
X948033D02*
X944880D01*
Y1042057D01*
X946200Y1042604D01*
X947486Y1043890D01*
X948033Y1045210D01*
D02*
G37*
G36*
X942340D02*
X939187D01*
X939734Y1043890D01*
X941020Y1042604D01*
X942340Y1042057D01*
Y1045210D01*
D02*
G37*
G36*
X777767Y1019683D02*
X777716D01*
Y1010920D01*
X786479D01*
Y1010971D01*
X785795Y1013523D01*
X784474Y1015810D01*
X782606Y1017678D01*
X780319Y1018999D01*
X777767Y1019683D01*
D02*
G37*
G36*
X726967D02*
X726916D01*
Y1010920D01*
X735679D01*
Y1010971D01*
X734995Y1013523D01*
X733674Y1015810D01*
X731806Y1017678D01*
X729519Y1018999D01*
X726967Y1019683D01*
D02*
G37*
G36*
X775176D02*
X775125D01*
X772573Y1018999D01*
X770286Y1017678D01*
X768418Y1015810D01*
X767097Y1013523D01*
X766413Y1010971D01*
Y1010920D01*
X775176D01*
Y1019683D01*
D02*
G37*
G36*
X724376D02*
X724325D01*
X721774Y1018999D01*
X719486Y1017678D01*
X717618Y1015810D01*
X716297Y1013523D01*
X715613Y1010971D01*
Y1010920D01*
X724376D01*
Y1019683D01*
D02*
G37*
G36*
X1006367D02*
X1003725D01*
X1001173Y1018999D01*
X998886Y1017678D01*
X997018Y1015810D01*
X995697Y1013523D01*
X995013Y1010971D01*
Y1008329D01*
X995697Y1005777D01*
X997018Y1003490D01*
X998886Y1001622D01*
X1001173Y1000301D01*
X1003725Y999617D01*
X1006367D01*
X1008919Y1000301D01*
X1011206Y1001622D01*
X1013074Y1003490D01*
X1014395Y1005777D01*
X1015079Y1008329D01*
Y1010971D01*
X1014395Y1013523D01*
X1013074Y1015810D01*
X1011206Y1017678D01*
X1008919Y1018999D01*
X1006367Y1019683D01*
D02*
G37*
G36*
X879367D02*
X876725D01*
X874174Y1018999D01*
X871886Y1017678D01*
X870018Y1015810D01*
X868697Y1013523D01*
X868013Y1010971D01*
Y1008329D01*
X868697Y1005777D01*
X870018Y1003490D01*
X871886Y1001622D01*
X874174Y1000301D01*
X876725Y999617D01*
X879367D01*
X881919Y1000301D01*
X884206Y1001622D01*
X886074Y1003490D01*
X887395Y1005777D01*
X888079Y1008329D01*
Y1010971D01*
X887395Y1013523D01*
X886074Y1015810D01*
X884206Y1017678D01*
X881919Y1018999D01*
X879367Y1019683D01*
D02*
G37*
G36*
X853967D02*
X851325D01*
X848773Y1018999D01*
X846486Y1017678D01*
X844618Y1015810D01*
X843297Y1013523D01*
X842613Y1010971D01*
Y1008329D01*
X843297Y1005777D01*
X844618Y1003490D01*
X846486Y1001622D01*
X848773Y1000301D01*
X851325Y999617D01*
X853967D01*
X856519Y1000301D01*
X858806Y1001622D01*
X860674Y1003490D01*
X861995Y1005777D01*
X862679Y1008329D01*
Y1010971D01*
X861995Y1013523D01*
X860674Y1015810D01*
X858806Y1017678D01*
X856519Y1018999D01*
X853967Y1019683D01*
D02*
G37*
G36*
X828567D02*
X825925D01*
X823373Y1018999D01*
X821086Y1017678D01*
X819218Y1015810D01*
X817897Y1013523D01*
X817213Y1010971D01*
Y1008329D01*
X817897Y1005777D01*
X819218Y1003490D01*
X821086Y1001622D01*
X823373Y1000301D01*
X825925Y999617D01*
X828567D01*
X831119Y1000301D01*
X833406Y1001622D01*
X835274Y1003490D01*
X836595Y1005777D01*
X837279Y1008329D01*
Y1010971D01*
X836595Y1013523D01*
X835274Y1015810D01*
X833406Y1017678D01*
X831119Y1018999D01*
X828567Y1019683D01*
D02*
G37*
G36*
X803167D02*
X800525D01*
X797973Y1018999D01*
X795686Y1017678D01*
X793818Y1015810D01*
X792497Y1013523D01*
X791813Y1010971D01*
Y1008329D01*
X792497Y1005777D01*
X793818Y1003490D01*
X795686Y1001622D01*
X797973Y1000301D01*
X800525Y999617D01*
X803167D01*
X805719Y1000301D01*
X808006Y1001622D01*
X809874Y1003490D01*
X811195Y1005777D01*
X811879Y1008329D01*
Y1010971D01*
X811195Y1013523D01*
X809874Y1015810D01*
X808006Y1017678D01*
X805719Y1018999D01*
X803167Y1019683D01*
D02*
G37*
G36*
X786479Y1008380D02*
X777716D01*
Y999617D01*
X777767D01*
X780319Y1000301D01*
X782606Y1001622D01*
X784474Y1003490D01*
X785795Y1005777D01*
X786479Y1008329D01*
Y1008380D01*
D02*
G37*
G36*
X775176D02*
X766413D01*
Y1008329D01*
X767097Y1005777D01*
X768418Y1003490D01*
X770286Y1001622D01*
X772573Y1000301D01*
X775125Y999617D01*
X775176D01*
Y1008380D01*
D02*
G37*
G36*
X752367Y1019683D02*
X749725D01*
X747173Y1018999D01*
X744886Y1017678D01*
X743018Y1015810D01*
X741697Y1013523D01*
X741013Y1010971D01*
Y1008329D01*
X741697Y1005777D01*
X743018Y1003490D01*
X744886Y1001622D01*
X747173Y1000301D01*
X749725Y999617D01*
X752367D01*
X754919Y1000301D01*
X757206Y1001622D01*
X759074Y1003490D01*
X760395Y1005777D01*
X761079Y1008329D01*
Y1010971D01*
X760395Y1013523D01*
X759074Y1015810D01*
X757206Y1017678D01*
X754919Y1018999D01*
X752367Y1019683D01*
D02*
G37*
G36*
X735679Y1008380D02*
X726916D01*
Y999617D01*
X726967D01*
X729519Y1000301D01*
X731806Y1001622D01*
X733674Y1003490D01*
X734995Y1005777D01*
X735679Y1008329D01*
Y1008380D01*
D02*
G37*
G36*
X724376D02*
X715613D01*
Y1008329D01*
X716297Y1005777D01*
X717618Y1003490D01*
X719486Y1001622D01*
X721774Y1000301D01*
X724325Y999617D01*
X724376D01*
Y1008380D01*
D02*
G37*
G36*
X650767Y1019683D02*
X648125D01*
X645574Y1018999D01*
X643286Y1017678D01*
X641418Y1015810D01*
X640097Y1013523D01*
X639413Y1010971D01*
Y1008329D01*
X640097Y1005777D01*
X641418Y1003490D01*
X643286Y1001622D01*
X645574Y1000301D01*
X648125Y999617D01*
X650767D01*
X653319Y1000301D01*
X655606Y1001622D01*
X657474Y1003490D01*
X658795Y1005777D01*
X659479Y1008329D01*
Y1010971D01*
X658795Y1013523D01*
X657474Y1015810D01*
X655606Y1017678D01*
X653319Y1018999D01*
X650767Y1019683D01*
D02*
G37*
G36*
X625367D02*
X622725D01*
X620173Y1018999D01*
X617886Y1017678D01*
X616018Y1015810D01*
X614697Y1013523D01*
X614013Y1010971D01*
Y1008329D01*
X614697Y1005777D01*
X616018Y1003490D01*
X617886Y1001622D01*
X620173Y1000301D01*
X622725Y999617D01*
X625367D01*
X627919Y1000301D01*
X630206Y1001622D01*
X632074Y1003490D01*
X633395Y1005777D01*
X634079Y1008329D01*
Y1010971D01*
X633395Y1013523D01*
X632074Y1015810D01*
X630206Y1017678D01*
X627919Y1018999D01*
X625367Y1019683D01*
D02*
G37*
G36*
X599967D02*
X597325D01*
X594773Y1018999D01*
X592486Y1017678D01*
X590618Y1015810D01*
X589297Y1013523D01*
X588613Y1010971D01*
Y1008329D01*
X589297Y1005777D01*
X590618Y1003490D01*
X592486Y1001622D01*
X594773Y1000301D01*
X597325Y999617D01*
X599967D01*
X602519Y1000301D01*
X604806Y1001622D01*
X606674Y1003490D01*
X607995Y1005777D01*
X608679Y1008329D01*
Y1010971D01*
X607995Y1013523D01*
X606674Y1015810D01*
X604806Y1017678D01*
X602519Y1018999D01*
X599967Y1019683D01*
D02*
G37*
G36*
X574567D02*
X571925D01*
X569374Y1018999D01*
X567086Y1017678D01*
X565218Y1015810D01*
X563897Y1013523D01*
X563213Y1010971D01*
Y1008329D01*
X563897Y1005777D01*
X565218Y1003490D01*
X567086Y1001622D01*
X569374Y1000301D01*
X571925Y999617D01*
X574567D01*
X577119Y1000301D01*
X579406Y1001622D01*
X581274Y1003490D01*
X582595Y1005777D01*
X583279Y1008329D01*
Y1010971D01*
X582595Y1013523D01*
X581274Y1015810D01*
X579406Y1017678D01*
X577119Y1018999D01*
X574567Y1019683D01*
D02*
G37*
G36*
X549167D02*
X546525D01*
X543974Y1018999D01*
X541686Y1017678D01*
X539818Y1015810D01*
X538497Y1013523D01*
X537813Y1010971D01*
Y1008329D01*
X538497Y1005777D01*
X539818Y1003490D01*
X541686Y1001622D01*
X543974Y1000301D01*
X546525Y999617D01*
X549167D01*
X551719Y1000301D01*
X554006Y1001622D01*
X555874Y1003490D01*
X557195Y1005777D01*
X557879Y1008329D01*
Y1010971D01*
X557195Y1013523D01*
X555874Y1015810D01*
X554006Y1017678D01*
X551719Y1018999D01*
X549167Y1019683D01*
D02*
G37*
G36*
X325172Y976510D02*
X325120D01*
Y967740D01*
X333890D01*
Y967792D01*
X333206Y970345D01*
X331884Y972635D01*
X330015Y974504D01*
X327725Y975826D01*
X325172Y976510D01*
D02*
G37*
G36*
X322580D02*
X322528D01*
X319975Y975826D01*
X317685Y974504D01*
X315816Y972635D01*
X314494Y970345D01*
X313810Y967792D01*
Y967740D01*
X322580D01*
Y976510D01*
D02*
G37*
G36*
X350572D02*
X347928D01*
X345375Y975826D01*
X343085Y974504D01*
X341216Y972635D01*
X339894Y970345D01*
X339210Y967792D01*
Y965148D01*
X339894Y962595D01*
X341216Y960305D01*
X343085Y958436D01*
X345375Y957114D01*
X347928Y956430D01*
X350572D01*
X353125Y957114D01*
X355415Y958436D01*
X357284Y960305D01*
X358606Y962595D01*
X359290Y965148D01*
Y967792D01*
X358606Y970345D01*
X357284Y972635D01*
X355415Y974504D01*
X353125Y975826D01*
X350572Y976510D01*
D02*
G37*
G36*
X333890Y965200D02*
X325120D01*
Y956430D01*
X325172D01*
X327725Y957114D01*
X330015Y958436D01*
X331884Y960305D01*
X333206Y962595D01*
X333890Y965148D01*
Y965200D01*
D02*
G37*
G36*
X322580D02*
X313810D01*
Y965148D01*
X314494Y962595D01*
X315816Y960305D01*
X317685Y958436D01*
X319975Y957114D01*
X322528Y956430D01*
X322580D01*
Y965200D01*
D02*
G37*
G36*
X283090Y976510D02*
X263010D01*
Y956430D01*
X283090D01*
Y976510D01*
D02*
G37*
G36*
X1132840Y941683D02*
Y938530D01*
X1135993D01*
X1135446Y939850D01*
X1134160Y941136D01*
X1132840Y941683D01*
D02*
G37*
G36*
X1130300D02*
X1128980Y941136D01*
X1127694Y939850D01*
X1127147Y938530D01*
X1130300D01*
Y941683D01*
D02*
G37*
G36*
X1135993Y935990D02*
X1132840D01*
Y932837D01*
X1134160Y933384D01*
X1135446Y934670D01*
X1135993Y935990D01*
D02*
G37*
G36*
X1130300D02*
X1127147D01*
X1127694Y934670D01*
X1128980Y933384D01*
X1130300Y932837D01*
Y935990D01*
D02*
G37*
G36*
X752367Y867283D02*
X752316D01*
Y858520D01*
X761079D01*
Y858571D01*
X760395Y861123D01*
X759074Y863410D01*
X757206Y865278D01*
X754919Y866599D01*
X752367Y867283D01*
D02*
G37*
G36*
X749776D02*
X749725D01*
X747173Y866599D01*
X744886Y865278D01*
X743018Y863410D01*
X741697Y861123D01*
X741013Y858571D01*
Y858520D01*
X749776D01*
Y867283D01*
D02*
G37*
G36*
X980967D02*
X978325D01*
X975773Y866599D01*
X973486Y865278D01*
X971618Y863410D01*
X970297Y861123D01*
X969613Y858571D01*
Y855929D01*
X970297Y853377D01*
X971618Y851090D01*
X973486Y849222D01*
X975773Y847901D01*
X978325Y847217D01*
X980967D01*
X983519Y847901D01*
X985806Y849222D01*
X987674Y851090D01*
X988995Y853377D01*
X989679Y855929D01*
Y858571D01*
X988995Y861123D01*
X987674Y863410D01*
X985806Y865278D01*
X983519Y866599D01*
X980967Y867283D01*
D02*
G37*
G36*
X955567D02*
X952925D01*
X950374Y866599D01*
X948086Y865278D01*
X946218Y863410D01*
X944897Y861123D01*
X944213Y858571D01*
Y855929D01*
X944897Y853377D01*
X946218Y851090D01*
X948086Y849222D01*
X950374Y847901D01*
X952925Y847217D01*
X955567D01*
X958119Y847901D01*
X960406Y849222D01*
X962274Y851090D01*
X963595Y853377D01*
X964279Y855929D01*
Y858571D01*
X963595Y861123D01*
X962274Y863410D01*
X960406Y865278D01*
X958119Y866599D01*
X955567Y867283D01*
D02*
G37*
G36*
X930167D02*
X927525D01*
X924974Y866599D01*
X922686Y865278D01*
X920818Y863410D01*
X919497Y861123D01*
X918813Y858571D01*
Y855929D01*
X919497Y853377D01*
X920818Y851090D01*
X922686Y849222D01*
X924974Y847901D01*
X927525Y847217D01*
X930167D01*
X932719Y847901D01*
X935006Y849222D01*
X936874Y851090D01*
X938195Y853377D01*
X938879Y855929D01*
Y858571D01*
X938195Y861123D01*
X936874Y863410D01*
X935006Y865278D01*
X932719Y866599D01*
X930167Y867283D01*
D02*
G37*
G36*
X904767D02*
X902125D01*
X899574Y866599D01*
X897286Y865278D01*
X895418Y863410D01*
X894097Y861123D01*
X893413Y858571D01*
Y855929D01*
X894097Y853377D01*
X895418Y851090D01*
X897286Y849222D01*
X899574Y847901D01*
X902125Y847217D01*
X904767D01*
X907319Y847901D01*
X909606Y849222D01*
X911474Y851090D01*
X912795Y853377D01*
X913479Y855929D01*
Y858571D01*
X912795Y861123D01*
X911474Y863410D01*
X909606Y865278D01*
X907319Y866599D01*
X904767Y867283D01*
D02*
G37*
G36*
X879367D02*
X876725D01*
X874174Y866599D01*
X871886Y865278D01*
X870018Y863410D01*
X868697Y861123D01*
X868013Y858571D01*
Y855929D01*
X868697Y853377D01*
X870018Y851090D01*
X871886Y849222D01*
X874174Y847901D01*
X876725Y847217D01*
X879367D01*
X881919Y847901D01*
X884206Y849222D01*
X886074Y851090D01*
X887395Y853377D01*
X888079Y855929D01*
Y858571D01*
X887395Y861123D01*
X886074Y863410D01*
X884206Y865278D01*
X881919Y866599D01*
X879367Y867283D01*
D02*
G37*
G36*
X853967D02*
X851325D01*
X848773Y866599D01*
X846486Y865278D01*
X844618Y863410D01*
X843297Y861123D01*
X842613Y858571D01*
Y855929D01*
X843297Y853377D01*
X844618Y851090D01*
X846486Y849222D01*
X848773Y847901D01*
X851325Y847217D01*
X853967D01*
X856519Y847901D01*
X858806Y849222D01*
X860674Y851090D01*
X861995Y853377D01*
X862679Y855929D01*
Y858571D01*
X861995Y861123D01*
X860674Y863410D01*
X858806Y865278D01*
X856519Y866599D01*
X853967Y867283D01*
D02*
G37*
G36*
X828567D02*
X825925D01*
X823373Y866599D01*
X821086Y865278D01*
X819218Y863410D01*
X817897Y861123D01*
X817213Y858571D01*
Y855929D01*
X817897Y853377D01*
X819218Y851090D01*
X821086Y849222D01*
X823373Y847901D01*
X825925Y847217D01*
X828567D01*
X831119Y847901D01*
X833406Y849222D01*
X835274Y851090D01*
X836595Y853377D01*
X837279Y855929D01*
Y858571D01*
X836595Y861123D01*
X835274Y863410D01*
X833406Y865278D01*
X831119Y866599D01*
X828567Y867283D01*
D02*
G37*
G36*
X803167D02*
X800525D01*
X797973Y866599D01*
X795686Y865278D01*
X793818Y863410D01*
X792497Y861123D01*
X791813Y858571D01*
Y855929D01*
X792497Y853377D01*
X793818Y851090D01*
X795686Y849222D01*
X797973Y847901D01*
X800525Y847217D01*
X803167D01*
X805719Y847901D01*
X808006Y849222D01*
X809874Y851090D01*
X811195Y853377D01*
X811879Y855929D01*
Y858571D01*
X811195Y861123D01*
X809874Y863410D01*
X808006Y865278D01*
X805719Y866599D01*
X803167Y867283D01*
D02*
G37*
G36*
X777767D02*
X775125D01*
X772573Y866599D01*
X770286Y865278D01*
X768418Y863410D01*
X767097Y861123D01*
X766413Y858571D01*
Y855929D01*
X767097Y853377D01*
X768418Y851090D01*
X770286Y849222D01*
X772573Y847901D01*
X775125Y847217D01*
X777767D01*
X780319Y847901D01*
X782606Y849222D01*
X784474Y851090D01*
X785795Y853377D01*
X786479Y855929D01*
Y858571D01*
X785795Y861123D01*
X784474Y863410D01*
X782606Y865278D01*
X780319Y866599D01*
X777767Y867283D01*
D02*
G37*
G36*
X761079Y855980D02*
X752316D01*
Y847217D01*
X752367D01*
X754919Y847901D01*
X757206Y849222D01*
X759074Y851090D01*
X760395Y853377D01*
X761079Y855929D01*
Y855980D01*
D02*
G37*
G36*
X749776D02*
X741013D01*
Y855929D01*
X741697Y853377D01*
X743018Y851090D01*
X744886Y849222D01*
X747173Y847901D01*
X749725Y847217D01*
X749776D01*
Y855980D01*
D02*
G37*
G36*
X625367Y867283D02*
X622725D01*
X620173Y866599D01*
X617886Y865278D01*
X616018Y863410D01*
X614697Y861123D01*
X614013Y858571D01*
Y855929D01*
X614697Y853377D01*
X616018Y851090D01*
X617886Y849222D01*
X620173Y847901D01*
X622725Y847217D01*
X625367D01*
X627919Y847901D01*
X630206Y849222D01*
X632074Y851090D01*
X633395Y853377D01*
X634079Y855929D01*
Y858571D01*
X633395Y861123D01*
X632074Y863410D01*
X630206Y865278D01*
X627919Y866599D01*
X625367Y867283D01*
D02*
G37*
G36*
X599967D02*
X597325D01*
X594773Y866599D01*
X592486Y865278D01*
X590618Y863410D01*
X589297Y861123D01*
X588613Y858571D01*
Y855929D01*
X589297Y853377D01*
X590618Y851090D01*
X592486Y849222D01*
X594773Y847901D01*
X597325Y847217D01*
X599967D01*
X602519Y847901D01*
X604806Y849222D01*
X606674Y851090D01*
X607995Y853377D01*
X608679Y855929D01*
Y858571D01*
X607995Y861123D01*
X606674Y863410D01*
X604806Y865278D01*
X602519Y866599D01*
X599967Y867283D01*
D02*
G37*
G36*
X574567D02*
X571925D01*
X569374Y866599D01*
X567086Y865278D01*
X565218Y863410D01*
X563897Y861123D01*
X563213Y858571D01*
Y855929D01*
X563897Y853377D01*
X565218Y851090D01*
X567086Y849222D01*
X569374Y847901D01*
X571925Y847217D01*
X574567D01*
X577119Y847901D01*
X579406Y849222D01*
X581274Y851090D01*
X582595Y853377D01*
X583279Y855929D01*
Y858571D01*
X582595Y861123D01*
X581274Y863410D01*
X579406Y865278D01*
X577119Y866599D01*
X574567Y867283D01*
D02*
G37*
G36*
X726967D02*
X724325D01*
X721774Y866599D01*
X719486Y865278D01*
X717618Y863410D01*
X716297Y861123D01*
X715613Y858571D01*
Y855929D01*
X716297Y853377D01*
X717618Y851090D01*
X719486Y849222D01*
X721761Y847908D01*
Y842825D01*
X705401Y826464D01*
X704131Y826991D01*
Y847908D01*
X706406Y849222D01*
X708274Y851090D01*
X709595Y853377D01*
X710279Y855929D01*
Y858571D01*
X709595Y861123D01*
X708274Y863410D01*
X706406Y865278D01*
X704119Y866599D01*
X701567Y867283D01*
X698925D01*
X696374Y866599D01*
X694086Y865278D01*
X692218Y863410D01*
X690897Y861123D01*
X690213Y858571D01*
Y855929D01*
X690897Y853377D01*
X692218Y851090D01*
X694086Y849222D01*
X696361Y847908D01*
Y826830D01*
X686853Y817322D01*
X685680Y817808D01*
Y817932D01*
X684996Y820485D01*
X683674Y822775D01*
X681805Y824644D01*
X679515Y825966D01*
X676962Y826650D01*
X674318D01*
X671765Y825966D01*
X669475Y824644D01*
X668154Y823323D01*
X666884Y823849D01*
Y843795D01*
X670987Y847897D01*
X673525Y847217D01*
X676167D01*
X678719Y847901D01*
X681006Y849222D01*
X682874Y851090D01*
X684195Y853377D01*
X684879Y855929D01*
Y858571D01*
X684195Y861123D01*
X682874Y863410D01*
X681006Y865278D01*
X678719Y866599D01*
X676167Y867283D01*
X673525D01*
X670974Y866599D01*
X668686Y865278D01*
X666818Y863410D01*
X665497Y861123D01*
X664813Y858571D01*
Y855929D01*
X665493Y853391D01*
X660253Y848150D01*
X659411Y846890D01*
X659115Y845404D01*
Y823730D01*
X657845Y823204D01*
X656405Y824644D01*
X654115Y825966D01*
X653728Y826070D01*
Y848137D01*
X655606Y849222D01*
X657474Y851090D01*
X658795Y853377D01*
X659479Y855929D01*
Y858571D01*
X658795Y861123D01*
X657474Y863410D01*
X655606Y865278D01*
X653319Y866599D01*
X650767Y867283D01*
X648125D01*
X645574Y866599D01*
X643286Y865278D01*
X641418Y863410D01*
X640097Y861123D01*
X639413Y858571D01*
Y855929D01*
X640097Y853377D01*
X641418Y851090D01*
X643286Y849222D01*
X645574Y847901D01*
X645958Y847798D01*
Y825731D01*
X644075Y824644D01*
X642206Y822775D01*
X640884Y820485D01*
X640200Y817932D01*
Y815288D01*
X640881Y812745D01*
X634541Y806405D01*
X629784D01*
X629444Y807675D01*
X631005Y808576D01*
X632874Y810445D01*
X634196Y812735D01*
X634880Y815288D01*
Y815340D01*
X614800D01*
Y815288D01*
X615484Y812735D01*
X616806Y810445D01*
X618675Y808576D01*
X620237Y807675D01*
X619896Y806405D01*
X572650D01*
X571163Y806109D01*
X569903Y805267D01*
X475035Y710399D01*
X472492Y711080D01*
X469848D01*
X467295Y710396D01*
X465005Y709074D01*
X463136Y707205D01*
X461814Y704915D01*
X461130Y702362D01*
Y699718D01*
X461814Y697165D01*
X463136Y694875D01*
X465005Y693006D01*
X467295Y691684D01*
X469848Y691000D01*
X472492D01*
X475045Y691684D01*
X477335Y693006D01*
X479204Y694875D01*
X480526Y697165D01*
X481210Y699718D01*
Y702362D01*
X480529Y704905D01*
X574259Y798635D01*
X614800D01*
Y781170D01*
X633047D01*
X633533Y779997D01*
X603546Y750010D01*
X541655D01*
X540168Y749714D01*
X538908Y748872D01*
X500435Y710399D01*
X497892Y711080D01*
X495248D01*
X492695Y710396D01*
X490405Y709074D01*
X488536Y707205D01*
X487214Y704915D01*
X486530Y702362D01*
Y699718D01*
X487214Y697165D01*
X488536Y694875D01*
X490405Y693006D01*
X492695Y691684D01*
X495248Y691000D01*
X497892D01*
X500445Y691684D01*
X502735Y693006D01*
X504604Y694875D01*
X505926Y697165D01*
X506610Y699718D01*
Y702362D01*
X505929Y704905D01*
X543264Y742240D01*
X605155D01*
X606642Y742536D01*
X607902Y743378D01*
X646375Y781851D01*
X648918Y781170D01*
X651562D01*
X654115Y781854D01*
X656405Y783176D01*
X658274Y785045D01*
X659596Y787335D01*
X660280Y789888D01*
Y792532D01*
X659599Y795075D01*
X663399Y798875D01*
X667447D01*
X667933Y797702D01*
X667606Y797375D01*
X666284Y795085D01*
X665600Y792532D01*
Y789888D01*
X666284Y787335D01*
X667606Y785045D01*
X669475Y783176D01*
X671765Y781854D01*
X674318Y781170D01*
X676962D01*
X679515Y781854D01*
X681805Y783176D01*
X683674Y785045D01*
X684996Y787335D01*
X685680Y789888D01*
Y792532D01*
X684999Y795075D01*
X728393Y838469D01*
X729235Y839730D01*
X729531Y841216D01*
Y847908D01*
X731806Y849222D01*
X733674Y851090D01*
X734995Y853377D01*
X735679Y855929D01*
Y858571D01*
X734995Y861123D01*
X733674Y863410D01*
X731806Y865278D01*
X729519Y866599D01*
X726967Y867283D01*
D02*
G37*
G36*
X626162Y826650D02*
X626110D01*
Y817880D01*
X634880D01*
Y817932D01*
X634196Y820485D01*
X632874Y822775D01*
X631005Y824644D01*
X628715Y825966D01*
X626162Y826650D01*
D02*
G37*
G36*
X623570D02*
X623518D01*
X620965Y825966D01*
X618675Y824644D01*
X616806Y822775D01*
X615484Y820485D01*
X614800Y817932D01*
Y817880D01*
X623570D01*
Y826650D01*
D02*
G37*
G36*
X375559Y790702D02*
X373741D01*
X372060Y790006D01*
X370774Y788720D01*
X370078Y787039D01*
Y785221D01*
X370774Y783540D01*
X372060Y782254D01*
X373741Y781558D01*
X375559D01*
X377240Y782254D01*
X378526Y783540D01*
X379222Y785221D01*
Y787039D01*
X378526Y788720D01*
X377240Y790006D01*
X375559Y790702D01*
D02*
G37*
G36*
X190810Y804968D02*
X187536Y804537D01*
X184486Y803274D01*
X181866Y801264D01*
X179856Y798644D01*
X178593Y795594D01*
X178162Y792320D01*
Y772320D01*
X178593Y769046D01*
X179856Y765996D01*
X181866Y763376D01*
X184486Y761366D01*
X187536Y760103D01*
X190810Y759672D01*
X194084Y760103D01*
X197134Y761366D01*
X199754Y763376D01*
X201764Y765996D01*
X203027Y769046D01*
X203458Y772320D01*
Y792320D01*
X203027Y795594D01*
X201764Y798644D01*
X199754Y801264D01*
X197134Y803274D01*
X194084Y804537D01*
X190810Y804968D01*
D02*
G37*
G36*
X130810D02*
X127536Y804537D01*
X124486Y803274D01*
X121866Y801264D01*
X119856Y798644D01*
X118593Y795594D01*
X118162Y792320D01*
Y772320D01*
X118593Y769046D01*
X119856Y765996D01*
X121866Y763376D01*
X124486Y761366D01*
X127536Y760103D01*
X130810Y759672D01*
X134084Y760103D01*
X137134Y761366D01*
X139754Y763376D01*
X141764Y765996D01*
X143027Y769046D01*
X143458Y772320D01*
Y792320D01*
X143027Y795594D01*
X141764Y798644D01*
X139754Y801264D01*
X137134Y803274D01*
X134084Y804537D01*
X130810Y804968D01*
D02*
G37*
G36*
X177560Y748733D02*
X154060D01*
X150330Y748242D01*
X146853Y746802D01*
X143868Y744512D01*
X141578Y741527D01*
X140138Y738050D01*
X139647Y734320D01*
X140138Y730590D01*
X141578Y727113D01*
X143868Y724128D01*
X146853Y721838D01*
X150330Y720398D01*
X154060Y719907D01*
X177560D01*
X181290Y720398D01*
X184767Y721838D01*
X187752Y724128D01*
X190042Y727113D01*
X191482Y730590D01*
X191973Y734320D01*
X191482Y738050D01*
X190042Y741527D01*
X187752Y744512D01*
X184767Y746802D01*
X181290Y748242D01*
X177560Y748733D01*
D02*
G37*
G36*
X624892Y711080D02*
X624840D01*
Y702310D01*
X633610D01*
Y702362D01*
X632926Y704915D01*
X631604Y707205D01*
X629735Y709074D01*
X627445Y710396D01*
X624892Y711080D01*
D02*
G37*
G36*
X622300D02*
X622248D01*
X619695Y710396D01*
X617405Y709074D01*
X615536Y707205D01*
X614214Y704915D01*
X613530Y702362D01*
Y702310D01*
X622300D01*
Y711080D01*
D02*
G37*
G36*
X659010D02*
X638930D01*
Y691000D01*
X659010D01*
Y711080D01*
D02*
G37*
G36*
X633610Y699770D02*
X624840D01*
Y691000D01*
X624892D01*
X627445Y691684D01*
X629735Y693006D01*
X631604Y694875D01*
X632926Y697165D01*
X633610Y699718D01*
Y699770D01*
D02*
G37*
G36*
X622300D02*
X613530D01*
Y699718D01*
X614214Y697165D01*
X615536Y694875D01*
X617405Y693006D01*
X619695Y691684D01*
X622248Y691000D01*
X622300D01*
Y699770D01*
D02*
G37*
G36*
X299772Y976510D02*
X297128D01*
X294575Y975826D01*
X292285Y974504D01*
X290416Y972635D01*
X289094Y970345D01*
X288410Y967792D01*
Y965148D01*
X289094Y962595D01*
X290416Y960305D01*
X292285Y958436D01*
X294565Y957120D01*
Y739140D01*
X294861Y737653D01*
X295703Y736393D01*
X366823Y665273D01*
X368083Y664431D01*
X369570Y664135D01*
X565150D01*
X566637Y664431D01*
X567897Y665273D01*
X594305Y691681D01*
X596848Y691000D01*
X599492D01*
X602045Y691684D01*
X604335Y693006D01*
X606204Y694875D01*
X607526Y697165D01*
X608210Y699718D01*
Y702362D01*
X607526Y704915D01*
X606204Y707205D01*
X604335Y709074D01*
X602045Y710396D01*
X599492Y711080D01*
X596848D01*
X594295Y710396D01*
X592005Y709074D01*
X590136Y707205D01*
X588814Y704915D01*
X588130Y702362D01*
Y699718D01*
X588811Y697175D01*
X563541Y671905D01*
X371179D01*
X302335Y740749D01*
Y957120D01*
X304615Y958436D01*
X306484Y960305D01*
X307806Y962595D01*
X308490Y965148D01*
Y967792D01*
X307806Y970345D01*
X306484Y972635D01*
X304615Y974504D01*
X302325Y975826D01*
X299772Y976510D01*
D02*
G37*
G36*
X574092Y711080D02*
X571448D01*
X568895Y710396D01*
X566605Y709074D01*
X564736Y707205D01*
X563414Y704915D01*
X562730Y702362D01*
Y699718D01*
X563414Y697165D01*
X564736Y694875D01*
X566605Y693006D01*
X568895Y691684D01*
X571448Y691000D01*
X574092D01*
X576645Y691684D01*
X578935Y693006D01*
X580804Y694875D01*
X582126Y697165D01*
X582810Y699718D01*
Y702362D01*
X582126Y704915D01*
X580804Y707205D01*
X578935Y709074D01*
X576645Y710396D01*
X574092Y711080D01*
D02*
G37*
G36*
X548692D02*
X546048D01*
X543495Y710396D01*
X541205Y709074D01*
X539336Y707205D01*
X538014Y704915D01*
X537330Y702362D01*
Y699718D01*
X538014Y697165D01*
X539336Y694875D01*
X541205Y693006D01*
X543495Y691684D01*
X546048Y691000D01*
X548692D01*
X551245Y691684D01*
X553535Y693006D01*
X555404Y694875D01*
X556726Y697165D01*
X557410Y699718D01*
Y702362D01*
X556726Y704915D01*
X555404Y707205D01*
X553535Y709074D01*
X551245Y710396D01*
X548692Y711080D01*
D02*
G37*
G36*
X523292D02*
X520648D01*
X518095Y710396D01*
X515805Y709074D01*
X513936Y707205D01*
X512614Y704915D01*
X511930Y702362D01*
Y699718D01*
X512614Y697165D01*
X513936Y694875D01*
X515805Y693006D01*
X518095Y691684D01*
X520648Y691000D01*
X523292D01*
X525845Y691684D01*
X528135Y693006D01*
X530004Y694875D01*
X531326Y697165D01*
X532010Y699718D01*
Y702362D01*
X531326Y704915D01*
X530004Y707205D01*
X528135Y709074D01*
X525845Y710396D01*
X523292Y711080D01*
D02*
G37*
G36*
X714221Y718820D02*
X710719D01*
X707284Y718137D01*
X704048Y716796D01*
X701136Y714851D01*
X698659Y712374D01*
X696714Y709462D01*
X695373Y706226D01*
X694690Y702791D01*
Y699289D01*
X695373Y695854D01*
X696714Y692618D01*
X698659Y689706D01*
X701136Y687229D01*
X704048Y685284D01*
X707284Y683943D01*
X710719Y683260D01*
X714221D01*
X717656Y683943D01*
X720892Y685284D01*
X723804Y687229D01*
X726281Y689706D01*
X728226Y692618D01*
X729567Y695854D01*
X730250Y699289D01*
Y702791D01*
X729567Y706226D01*
X728226Y709462D01*
X726281Y712374D01*
X723804Y714851D01*
X720892Y716796D01*
X717656Y718137D01*
X714221Y718820D01*
D02*
G37*
G36*
X409421D02*
X405919D01*
X402484Y718137D01*
X399248Y716796D01*
X396336Y714851D01*
X393859Y712374D01*
X391914Y709462D01*
X390573Y706226D01*
X389890Y702791D01*
Y699289D01*
X390573Y695854D01*
X391914Y692618D01*
X393859Y689706D01*
X396336Y687229D01*
X399248Y685284D01*
X402484Y683943D01*
X405919Y683260D01*
X409421D01*
X412856Y683943D01*
X416092Y685284D01*
X419004Y687229D01*
X421481Y689706D01*
X423426Y692618D01*
X424767Y695854D01*
X425450Y699289D01*
Y702791D01*
X424767Y706226D01*
X423426Y709462D01*
X421481Y712374D01*
X419004Y714851D01*
X416092Y716796D01*
X412856Y718137D01*
X409421Y718820D01*
D02*
G37*
G36*
X1296722Y477400D02*
X1296670D01*
Y468630D01*
X1305440D01*
Y468682D01*
X1304756Y471235D01*
X1303434Y473525D01*
X1301565Y475394D01*
X1299275Y476716D01*
X1296722Y477400D01*
D02*
G37*
G36*
X1294130D02*
X1294078D01*
X1291525Y476716D01*
X1289235Y475394D01*
X1287366Y473525D01*
X1286044Y471235D01*
X1285360Y468682D01*
Y468630D01*
X1294130D01*
Y477400D01*
D02*
G37*
G36*
X1305440Y466090D02*
X1296670D01*
Y457320D01*
X1296722D01*
X1299275Y458004D01*
X1301565Y459326D01*
X1303434Y461195D01*
X1304756Y463485D01*
X1305440Y466038D01*
Y466090D01*
D02*
G37*
G36*
X1294130D02*
X1285360D01*
Y466038D01*
X1286044Y463485D01*
X1287366Y461195D01*
X1289235Y459326D01*
X1291525Y458004D01*
X1294078Y457320D01*
X1294130D01*
Y466090D01*
D02*
G37*
G36*
X980967Y1019683D02*
X978325D01*
X975773Y1018999D01*
X973486Y1017678D01*
X971618Y1015810D01*
X970297Y1013523D01*
X969613Y1010971D01*
Y1008329D01*
X970297Y1005777D01*
X971618Y1003490D01*
X973486Y1001622D01*
X975761Y1000308D01*
Y915194D01*
X976057Y913707D01*
X976899Y912447D01*
X1266115Y623231D01*
Y476710D01*
X1263835Y475394D01*
X1261966Y473525D01*
X1260644Y471235D01*
X1259960Y468682D01*
Y466038D01*
X1260644Y463485D01*
X1261966Y461195D01*
X1263835Y459326D01*
X1266125Y458004D01*
X1268678Y457320D01*
X1271322D01*
X1273875Y458004D01*
X1276165Y459326D01*
X1278034Y461195D01*
X1279356Y463485D01*
X1280040Y466038D01*
Y468682D01*
X1279356Y471235D01*
X1278034Y473525D01*
X1276165Y475394D01*
X1273885Y476710D01*
Y624840D01*
X1273589Y626327D01*
X1272747Y627587D01*
X983531Y916803D01*
Y1000308D01*
X985806Y1001622D01*
X987674Y1003490D01*
X988995Y1005777D01*
X989679Y1008329D01*
Y1010971D01*
X988995Y1013523D01*
X987674Y1015810D01*
X985806Y1017678D01*
X983519Y1018999D01*
X980967Y1019683D01*
D02*
G37*
G36*
X955567D02*
X952925D01*
X950374Y1018999D01*
X948086Y1017678D01*
X946218Y1015810D01*
X944897Y1013523D01*
X944213Y1010971D01*
Y1008329D01*
X944897Y1005777D01*
X946218Y1003490D01*
X948086Y1001622D01*
X950361Y1000308D01*
Y924035D01*
X950657Y922548D01*
X951499Y921288D01*
X1004331Y868456D01*
X1003845Y867283D01*
X1003725D01*
X1001173Y866599D01*
X998886Y865278D01*
X997018Y863410D01*
X995697Y861123D01*
X995013Y858571D01*
Y855929D01*
X995697Y853377D01*
X997018Y851090D01*
X998886Y849222D01*
X1001173Y847901D01*
X1003725Y847217D01*
X1006367D01*
X1008919Y847901D01*
X1011206Y849222D01*
X1013074Y851090D01*
X1014395Y853377D01*
X1015079Y855929D01*
Y856049D01*
X1016252Y856535D01*
X1240715Y632072D01*
Y476710D01*
X1238435Y475394D01*
X1236566Y473525D01*
X1235244Y471235D01*
X1234560Y468682D01*
Y466038D01*
X1235244Y463485D01*
X1236566Y461195D01*
X1238435Y459326D01*
X1240725Y458004D01*
X1243278Y457320D01*
X1245922D01*
X1248475Y458004D01*
X1250765Y459326D01*
X1252634Y461195D01*
X1253956Y463485D01*
X1254640Y466038D01*
Y468682D01*
X1253956Y471235D01*
X1252634Y473525D01*
X1250765Y475394D01*
X1248485Y476710D01*
Y633681D01*
X1248189Y635168D01*
X1247347Y636428D01*
X958131Y925644D01*
Y1000308D01*
X960406Y1001622D01*
X962274Y1003490D01*
X963595Y1005777D01*
X964279Y1008329D01*
Y1010971D01*
X963595Y1013523D01*
X962274Y1015810D01*
X960406Y1017678D01*
X958119Y1018999D01*
X955567Y1019683D01*
D02*
G37*
G36*
X1229240Y477400D02*
X1209160D01*
Y457320D01*
X1229240D01*
Y477400D01*
D02*
G37*
G36*
X1221702Y355600D02*
X1216698D01*
X1211791Y354624D01*
X1207169Y352709D01*
X1203008Y349930D01*
X1199471Y346392D01*
X1196691Y342231D01*
X1194776Y337609D01*
X1193800Y332702D01*
Y327698D01*
X1194776Y322791D01*
X1196691Y318169D01*
X1199471Y314008D01*
X1203008Y310471D01*
X1207169Y307691D01*
X1211791Y305776D01*
X1216698Y304800D01*
X1221702D01*
X1226609Y305776D01*
X1231231Y307691D01*
X1235392Y310471D01*
X1238930Y314008D01*
X1241709Y318169D01*
X1243624Y322791D01*
X1244600Y327698D01*
Y332702D01*
X1243624Y337609D01*
X1241709Y342231D01*
X1238930Y346392D01*
X1235392Y349930D01*
X1231231Y352709D01*
X1226609Y354624D01*
X1221702Y355600D01*
D02*
G37*
G36*
X289522D02*
X284518D01*
X279611Y354624D01*
X274989Y352709D01*
X270828Y349930D01*
X267290Y346392D01*
X264511Y342231D01*
X262596Y337609D01*
X261620Y332702D01*
Y327698D01*
X262596Y322791D01*
X264511Y318169D01*
X267290Y314008D01*
X270828Y310471D01*
X274989Y307691D01*
X279611Y305776D01*
X284518Y304800D01*
X289522D01*
X294429Y305776D01*
X299051Y307691D01*
X303212Y310471D01*
X306749Y314008D01*
X309529Y318169D01*
X311444Y322791D01*
X312420Y327698D01*
Y332702D01*
X311444Y337609D01*
X309529Y342231D01*
X306749Y346392D01*
X303212Y349930D01*
X299051Y352709D01*
X294429Y354624D01*
X289522Y355600D01*
D02*
G37*
G36*
X714221Y299720D02*
X710719D01*
X707284Y299037D01*
X704048Y297696D01*
X701136Y295751D01*
X698659Y293274D01*
X696714Y290362D01*
X695373Y287126D01*
X694690Y283691D01*
Y280189D01*
X695373Y276754D01*
X696714Y273518D01*
X698659Y270606D01*
X701136Y268129D01*
X704048Y266184D01*
X707284Y264843D01*
X710719Y264160D01*
X714221D01*
X717656Y264843D01*
X720892Y266184D01*
X723804Y268129D01*
X726281Y270606D01*
X728226Y273518D01*
X729567Y276754D01*
X730250Y280189D01*
Y283691D01*
X729567Y287126D01*
X728226Y290362D01*
X726281Y293274D01*
X723804Y295751D01*
X720892Y297696D01*
X717656Y299037D01*
X714221Y299720D01*
D02*
G37*
G36*
X409421D02*
X405919D01*
X402484Y299037D01*
X399248Y297696D01*
X396336Y295751D01*
X393859Y293274D01*
X391914Y290362D01*
X390573Y287126D01*
X389890Y283691D01*
Y280189D01*
X390573Y276754D01*
X391914Y273518D01*
X393859Y270606D01*
X396336Y268129D01*
X399248Y266184D01*
X402484Y264843D01*
X405919Y264160D01*
X409421D01*
X412856Y264843D01*
X416092Y266184D01*
X419004Y268129D01*
X421481Y270606D01*
X423426Y273518D01*
X424767Y276754D01*
X425450Y280189D01*
Y283691D01*
X424767Y287126D01*
X423426Y290362D01*
X421481Y293274D01*
X419004Y295751D01*
X416092Y297696D01*
X412856Y299037D01*
X409421Y299720D01*
D02*
G37*
%LPD*%
D14*
X6151Y674616D02*
G03*
X762943Y5062I756793J92922D01*
G01*
X41031Y715991D02*
G03*
X6151Y674616I5898J-40362D01*
G01*
X41031Y715991D02*
G03*
X53808Y729438I-336J13112D01*
G01*
Y829768D02*
G03*
X43610Y842219I-11324J1126D01*
G01*
X7888Y873588D02*
G03*
X43610Y842219I35344J4225D01*
G01*
X370269Y1421059D02*
G03*
X7888Y873588I392675J-653587D01*
G01*
X381706Y1416508D02*
G03*
X370239Y1421108I-8033J-3433D01*
G01*
X1155682Y1421232D02*
G03*
X1143706Y1416508I-3626J-8350D01*
G01*
X762943Y5062D02*
G03*
X1155682Y1421232I0J762543D01*
G01*
X381706Y1257996D02*
Y1416508D01*
X53808Y729438D02*
Y829768D01*
X381706Y1257996D02*
X1143706D01*
Y1416508D01*
X565150Y668020D02*
X598170Y701040D01*
X298450Y739140D02*
X369570Y668020D01*
X565150D01*
X298450Y739140D02*
Y966470D01*
X496570Y701040D02*
X541655Y746125D01*
X605155D01*
X650240Y791210D01*
X471170Y701040D02*
X572650Y802520D01*
X636150D01*
X650240Y816610D01*
X725646Y841216D02*
Y857250D01*
X675640Y791210D02*
X725646Y841216D01*
X661790Y802760D02*
X677784D01*
X650240Y791210D02*
X661790Y802760D01*
X677784D02*
X700246Y825221D01*
Y857250D01*
X653535Y803910D02*
X663000Y813375D01*
Y845404D01*
X646945Y803910D02*
X653535D01*
X638930Y795895D02*
X646945Y803910D01*
X638930Y795140D02*
Y795895D01*
X635000Y791210D02*
X638930Y795140D01*
X624840Y791210D02*
X635000D01*
X663000Y845404D02*
X674846Y857250D01*
X649446D02*
X649843Y856853D01*
Y817007D02*
X650240Y816610D01*
X649843Y817007D02*
Y856853D01*
X979646Y915194D02*
Y1009650D01*
Y915194D02*
X1270000Y624840D01*
Y467360D02*
Y624840D01*
X1244600Y467360D02*
Y633681D01*
X954246Y924035D02*
X1244600Y633681D01*
X954246Y924035D02*
Y1009650D01*
X928846Y1048750D02*
X1007426Y1127330D01*
X928846Y1009650D02*
Y1048750D01*
X903446Y1043350D02*
X987426Y1127330D01*
X903446Y1009650D02*
Y1043350D01*
X674846Y1009650D02*
Y1050525D01*
X751651Y1127330D01*
X700246Y1055925D02*
X771651Y1127330D01*
X700246Y1009650D02*
Y1055925D01*
X508000Y897096D02*
Y1099074D01*
X536256Y1127330D01*
X508000Y897096D02*
X547846Y857250D01*
X497840Y881856D02*
X522446Y857250D01*
X497840Y1105737D02*
X516256Y1124153D01*
X497840Y881856D02*
Y1105737D01*
X516256Y1124153D02*
Y1127330D01*
D52*
X349250Y966470D02*
D03*
X323850D02*
D03*
X298450D02*
D03*
X675640Y816610D02*
D03*
Y791210D02*
D03*
X650240Y816610D02*
D03*
Y791210D02*
D03*
X624840Y816610D02*
D03*
X1244600Y467360D02*
D03*
X1270000D02*
D03*
X1295400D02*
D03*
X276860Y1245870D02*
D03*
X302260D02*
D03*
X623570Y701040D02*
D03*
X598170D02*
D03*
X572770D02*
D03*
X547370D02*
D03*
X521970D02*
D03*
X496570D02*
D03*
X471170D02*
D03*
D53*
X273050Y966470D02*
D03*
X624840Y791210D02*
D03*
X1219200Y467360D02*
D03*
X327660Y1245870D02*
D03*
X648970Y701040D02*
D03*
D54*
X561256Y1127330D02*
D03*
X796651D02*
D03*
X1032426D02*
D03*
D55*
X536256D02*
D03*
X516256D02*
D03*
X491256D02*
D03*
X771651D02*
D03*
X751651D02*
D03*
X726651D02*
D03*
X1007426D02*
D03*
X987426D02*
D03*
X962426D02*
D03*
D56*
X591956Y1154430D02*
D03*
X460556D02*
D03*
X827351D02*
D03*
X695951D02*
D03*
X1063126D02*
D03*
X931726D02*
D03*
D57*
X522446Y1009650D02*
D03*
X547846D02*
D03*
X573246D02*
D03*
X598646D02*
D03*
X624046D02*
D03*
X649446D02*
D03*
X674846D02*
D03*
X700246D02*
D03*
X725646D02*
D03*
X751046D02*
D03*
X776446D02*
D03*
X801846D02*
D03*
X827246D02*
D03*
X852646D02*
D03*
X878046D02*
D03*
X903446D02*
D03*
X928846D02*
D03*
X954246D02*
D03*
X979646D02*
D03*
X1005046D02*
D03*
Y857250D02*
D03*
X979646D02*
D03*
X954246D02*
D03*
X928846D02*
D03*
X903446D02*
D03*
X878046D02*
D03*
X852646D02*
D03*
X827246D02*
D03*
X801846D02*
D03*
X776446D02*
D03*
X751046D02*
D03*
X725646D02*
D03*
X700246D02*
D03*
X674846D02*
D03*
X649446D02*
D03*
X624046D02*
D03*
X598646D02*
D03*
X573246D02*
D03*
X547846D02*
D03*
D58*
X522446D02*
D03*
D59*
X190810Y782320D02*
D03*
X130810D02*
D03*
D60*
X165810Y734320D02*
D03*
D61*
X1131570Y937260D02*
D03*
X990600Y1046480D02*
D03*
X943610D02*
D03*
X374650Y786130D02*
D03*
D62*
X1219200Y1154430D02*
D03*
Y330200D02*
D03*
X287020D02*
D03*
Y1154430D02*
D03*
D63*
X712470Y281940D02*
D03*
Y701040D02*
D03*
X407670D02*
D03*
Y281940D02*
D03*
M02*
