M48
;Layer_Color=9474304
;FILE_FORMAT=4:4
METRIC,LZ
;TYPE=PLATED
T1F00S00C0.2032
T3F00S00C0.9000
T4F00S00C0.9200
T5F00S00C0.9906
T6F00S00C2.2600
T7F00S00C2.5400
T8F00S00C3.0480
%
T01
X0037465Y0078613
X0094361Y0104648
X009906
X0113157Y0093726
T03
X012192Y0046736
X012446
X0127
X012954
X0064897Y0070104
X0062357
X0059817
X0057277
X0054737
X0052197
X0049657
X0047117
X0034925Y0096647
X0032385
X0029845
X0027305
X0062484Y0081661
X0065024
X0067564
Y0079121
X0065024
X0062484
X0032766Y0124587
X0030226
X0027686
T04
X00491256Y0112733
X00516256
X00536256
X00561256
X00726651
X00751651
X00771651
X00796651
X00962426
X00987426
X01007426
X01032426
T05
X00522446Y0085725
Y0100965
X00547846
X00573246
X00598646
X00624046
X00649446
X00674846
X00700246
X00725646
X00751046
X00776446
X00801846
X00827246
X00852646
X00878046
X00903446
X00928846
Y0085725
X00903446
X00878046
X00852646
X00827246
X00801846
X00776446
X00751046
X00725646
X00700246
X00674846
X00649446
X00624046
X00598646
X00573246
X00547846
X00954246
X00979646
X01005046
Y0100965
X00979646
X00954246
T06
X00460556Y0115443
X00591956
X00695951
X00827351
X00931726
X01063126
T07
X0040767Y0028194
X0071247
Y0070104
X0040767
T08
X0028702Y003302
X012192
X0028702Y0115443
X012192
M30
