G04*
G04 #@! TF.GenerationSoftware,Altium Limited,Altium Designer,23.3.1 (30)*
G04*
G04 Layer_Physical_Order=1*
G04 Layer_Color=255*
%FSLAX44Y44*%
%MOMM*%
G71*
G04*
G04 #@! TF.SameCoordinates,AB4FAB72-6961-4B24-BA16-F6D923A68503*
G04*
G04*
G04 #@! TF.FilePolarity,Positive*
G04*
G01*
G75*
%ADD14C,0.2540*%
%ADD16R,5.5000X2.0000*%
%ADD17R,0.6604X0.9398*%
%ADD18R,0.8000X0.8000*%
%ADD19R,0.7900X0.9300*%
%ADD20R,1.1500X1.3000*%
%ADD21R,1.4000X2.1000*%
%ADD22R,0.8000X0.8000*%
%ADD23R,0.9800X0.8500*%
%ADD24R,2.8300X0.9700*%
G04:AMPARAMS|DCode=25|XSize=0.889mm|YSize=0.889mm|CornerRadius=0.1111mm|HoleSize=0mm|Usage=FLASHONLY|Rotation=0.000|XOffset=0mm|YOffset=0mm|HoleType=Round|Shape=RoundedRectangle|*
%AMROUNDEDRECTD25*
21,1,0.8890,0.6668,0,0,0.0*
21,1,0.6668,0.8890,0,0,0.0*
1,1,0.2223,0.3334,-0.3334*
1,1,0.2223,-0.3334,-0.3334*
1,1,0.2223,-0.3334,0.3334*
1,1,0.2223,0.3334,0.3334*
%
%ADD25ROUNDEDRECTD25*%
G04:AMPARAMS|DCode=26|XSize=0.889mm|YSize=0.889mm|CornerRadius=0.1111mm|HoleSize=0mm|Usage=FLASHONLY|Rotation=270.000|XOffset=0mm|YOffset=0mm|HoleType=Round|Shape=RoundedRectangle|*
%AMROUNDEDRECTD26*
21,1,0.8890,0.6668,0,0,270.0*
21,1,0.6668,0.8890,0,0,270.0*
1,1,0.2223,-0.3334,-0.3334*
1,1,0.2223,-0.3334,0.3334*
1,1,0.2223,0.3334,0.3334*
1,1,0.2223,0.3334,-0.3334*
%
%ADD26ROUNDEDRECTD26*%
%ADD51R,6.0900X5.6300*%
%ADD52C,1.5000*%
%ADD53R,1.5000X1.5000*%
%ADD54R,1.4280X1.4280*%
%ADD55C,1.4280*%
%ADD56C,3.2760*%
%ADD57C,1.4986*%
%ADD58R,1.4986X1.4986*%
%ADD59O,2.0000X4.0000*%
%ADD60O,4.7000X2.3500*%
%ADD61C,0.4064*%
%ADD62C,4.5720*%
%ADD63C,3.0480*%
G36*
X1153409Y1417329D02*
X1172675Y1405428D01*
X1195195Y1390381D01*
X1217164Y1374539D01*
X1238553Y1357923D01*
X1259336Y1340554D01*
X1279486Y1322455D01*
X1298977Y1303648D01*
X1317784Y1284157D01*
X1335883Y1264007D01*
X1353252Y1243224D01*
X1369868Y1221835D01*
X1385710Y1199866D01*
X1400758Y1177346D01*
X1414992Y1154302D01*
X1428395Y1130766D01*
X1440949Y1106766D01*
X1452638Y1082333D01*
X1463448Y1057499D01*
X1473365Y1032295D01*
X1482376Y1006752D01*
X1490469Y980905D01*
X1497635Y954785D01*
X1503864Y928426D01*
X1509147Y901861D01*
X1513480Y875125D01*
X1516855Y848251D01*
X1519270Y821274D01*
X1520719Y794228D01*
X1521203Y767147D01*
X1520719Y740066D01*
X1519270Y713020D01*
X1516855Y686043D01*
X1513480Y659169D01*
X1509147Y632433D01*
X1503864Y605868D01*
X1497635Y579509D01*
X1490469Y553389D01*
X1482376Y527541D01*
X1473365Y501999D01*
X1463448Y476795D01*
X1452638Y451960D01*
X1440949Y427528D01*
X1428395Y403528D01*
X1414992Y379991D01*
X1400758Y356948D01*
X1385710Y334428D01*
X1369868Y312459D01*
X1353252Y291069D01*
X1335883Y270287D01*
X1317784Y250137D01*
X1298977Y230646D01*
X1279486Y211839D01*
X1259336Y193739D01*
X1238553Y176371D01*
X1217164Y159755D01*
X1195195Y143913D01*
X1172675Y128865D01*
X1149632Y114631D01*
X1126095Y101228D01*
X1102095Y88674D01*
X1077663Y76985D01*
X1052828Y66175D01*
X1027624Y56258D01*
X1002082Y47247D01*
X976234Y39154D01*
X950114Y31988D01*
X923755Y25759D01*
X897190Y20475D01*
X870454Y16143D01*
X843580Y12767D01*
X816603Y10353D01*
X789557Y8903D01*
X763746Y8443D01*
X762476Y8489D01*
X762476Y8489D01*
X761206Y8443D01*
X735398Y8903D01*
X708354Y10353D01*
X681379Y12767D01*
X654508Y16142D01*
X627774Y20474D01*
X601211Y25758D01*
X574855Y31986D01*
X548737Y39151D01*
X522892Y47244D01*
X497352Y56254D01*
X472150Y66170D01*
X447317Y76979D01*
X422887Y88667D01*
X398889Y101220D01*
X375355Y114622D01*
X352313Y128855D01*
X329795Y143901D01*
X307828Y159741D01*
X286441Y176356D01*
X265660Y193723D01*
X245512Y211821D01*
X226022Y230626D01*
X207217Y250116D01*
X189119Y270263D01*
X171752Y291044D01*
X155138Y312432D01*
X139297Y334399D01*
X124251Y356917D01*
X110018Y379959D01*
X96616Y403493D01*
X84063Y427491D01*
X72375Y451921D01*
X61566Y476753D01*
X51650Y501955D01*
X42640Y527495D01*
X34547Y553341D01*
X27382Y579459D01*
X21154Y605815D01*
X15870Y632378D01*
X11538Y659111D01*
X9588Y674637D01*
X9588Y674637D01*
X9588D01*
X9549Y675866D01*
X9949Y680953D01*
X11303Y686594D01*
X13523Y691953D01*
X16554Y696899D01*
X20322Y701310D01*
X24732Y705078D01*
X29679Y708109D01*
X35038Y710329D01*
X40546Y711651D01*
X40564Y711648D01*
X41121Y711718D01*
X42364Y711847D01*
X43546Y711963D01*
X46737Y712931D01*
X49677Y714503D01*
X52255Y716618D01*
X54370Y719195D01*
X55942Y722136D01*
X56909Y725326D01*
X57236Y728644D01*
X57210Y728908D01*
X57225Y728980D01*
Y829310D01*
X57187Y829499D01*
X57279Y830436D01*
X56986Y833414D01*
X56118Y836277D01*
X54707Y838916D01*
X52809Y841229D01*
X50496Y843127D01*
X47857Y844538D01*
X44994Y845406D01*
X44734Y845432D01*
X43521Y845570D01*
X43142Y845645D01*
X42994Y845615D01*
X42859Y845605D01*
X42278Y845636D01*
X37797Y845988D01*
X32951Y847152D01*
X28347Y849059D01*
X24099Y851663D01*
X20309Y854899D01*
X17073Y858688D01*
X14469Y862937D01*
X12562Y867541D01*
X11399Y872386D01*
X11327Y873300D01*
X11538Y874982D01*
X15870Y901716D01*
X21154Y928278D01*
X27382Y954635D01*
X34547Y980752D01*
X42640Y1006598D01*
X51650Y1032138D01*
X61566Y1057340D01*
X72375Y1082172D01*
X84063Y1106602D01*
X96616Y1130600D01*
X110018Y1154135D01*
X124251Y1177176D01*
X139297Y1199694D01*
X155138Y1221661D01*
X171752Y1243049D01*
X189119Y1263830D01*
X207217Y1283978D01*
X226023Y1303467D01*
X245512Y1322272D01*
X265660Y1340370D01*
X286441Y1357737D01*
X307828Y1374352D01*
X329795Y1390192D01*
X352314Y1405238D01*
X371691Y1417208D01*
X373205Y1417509D01*
X375078Y1417137D01*
X376665Y1416076D01*
X377353Y1415046D01*
Y1257538D01*
X377649Y1256051D01*
X378491Y1254791D01*
X379751Y1253949D01*
X381238Y1253653D01*
X1143238D01*
X1144725Y1253949D01*
X1145985Y1254791D01*
X1146827Y1256051D01*
X1147123Y1257538D01*
Y1415040D01*
X1147863Y1416149D01*
X1149572Y1417290D01*
X1151588Y1417691D01*
X1153409Y1417329D01*
D02*
G37*
%LPC*%
G36*
X250701Y1261637D02*
X245431D01*
Y1256367D01*
X250701D01*
Y1261637D01*
D02*
G37*
G36*
X242891D02*
X237621D01*
Y1256367D01*
X242891D01*
Y1261637D01*
D02*
G37*
G36*
X250701Y1253827D02*
X245431D01*
Y1248557D01*
X250701D01*
Y1253827D01*
D02*
G37*
G36*
X242891D02*
X237621D01*
Y1248557D01*
X242891D01*
Y1253827D01*
D02*
G37*
G36*
X337700Y1255910D02*
X328930D01*
Y1247140D01*
X337700D01*
Y1255910D01*
D02*
G37*
G36*
X326390D02*
X317620D01*
Y1247140D01*
X326390D01*
Y1255910D01*
D02*
G37*
G36*
X278182D02*
X275538D01*
X272985Y1255226D01*
X270695Y1253904D01*
X268826Y1252035D01*
X267504Y1249745D01*
X266820Y1247192D01*
Y1244695D01*
X266107Y1243982D01*
X250701D01*
Y1246637D01*
X237621D01*
Y1233557D01*
X250701D01*
Y1236213D01*
X267716D01*
X269202Y1236508D01*
X270462Y1237350D01*
X270856Y1237744D01*
X272985Y1236514D01*
X275538Y1235830D01*
X278182D01*
X280735Y1236514D01*
X283025Y1237836D01*
X284894Y1239705D01*
X286216Y1241995D01*
X286900Y1244548D01*
Y1247192D01*
X286216Y1249745D01*
X284894Y1252035D01*
X283025Y1253904D01*
X280735Y1255226D01*
X278182Y1255910D01*
D02*
G37*
G36*
X337700Y1244600D02*
X328930D01*
Y1235830D01*
X337700D01*
Y1244600D01*
D02*
G37*
G36*
X326390D02*
X317620D01*
Y1235830D01*
X326390D01*
Y1244600D01*
D02*
G37*
G36*
X1221702Y1179830D02*
X1220470D01*
Y1155700D01*
X1244600D01*
Y1156932D01*
X1243624Y1161839D01*
X1241709Y1166461D01*
X1238930Y1170622D01*
X1235392Y1174159D01*
X1231231Y1176939D01*
X1226609Y1178854D01*
X1221702Y1179830D01*
D02*
G37*
G36*
X1217930D02*
X1216698D01*
X1211791Y1178854D01*
X1207169Y1176939D01*
X1203008Y1174159D01*
X1199471Y1170622D01*
X1196691Y1166461D01*
X1194776Y1161839D01*
X1193800Y1156932D01*
Y1155700D01*
X1217930D01*
Y1179830D01*
D02*
G37*
G36*
X289522D02*
X288290D01*
Y1155700D01*
X312420D01*
Y1156932D01*
X311444Y1161839D01*
X309529Y1166461D01*
X306749Y1170622D01*
X303212Y1174159D01*
X299051Y1176939D01*
X294429Y1178854D01*
X289522Y1179830D01*
D02*
G37*
G36*
X285750D02*
X284518D01*
X279611Y1178854D01*
X274989Y1176939D01*
X270828Y1174159D01*
X267290Y1170622D01*
X264511Y1166461D01*
X262596Y1161839D01*
X261620Y1156932D01*
Y1155700D01*
X285750D01*
Y1179830D01*
D02*
G37*
G36*
X1064989Y1173350D02*
X1061263D01*
X1057607Y1172623D01*
X1054164Y1171197D01*
X1051065Y1169126D01*
X1048430Y1166491D01*
X1046359Y1163392D01*
X1044933Y1159949D01*
X1044206Y1156293D01*
Y1152567D01*
X1044933Y1148911D01*
X1046359Y1145468D01*
X1048430Y1142369D01*
X1051065Y1139734D01*
X1054164Y1137663D01*
X1057607Y1136237D01*
X1061263Y1135510D01*
X1064989D01*
X1068645Y1136237D01*
X1072088Y1137663D01*
X1075187Y1139734D01*
X1077822Y1142369D01*
X1079893Y1145468D01*
X1081319Y1148911D01*
X1082046Y1152567D01*
Y1156293D01*
X1081319Y1159949D01*
X1079893Y1163392D01*
X1077822Y1166491D01*
X1075187Y1169126D01*
X1072088Y1171197D01*
X1068645Y1172623D01*
X1064989Y1173350D01*
D02*
G37*
G36*
X933589D02*
X929863D01*
X926207Y1172623D01*
X922764Y1171197D01*
X919665Y1169126D01*
X917030Y1166491D01*
X914959Y1163392D01*
X913533Y1159949D01*
X912806Y1156293D01*
Y1152567D01*
X913533Y1148911D01*
X914959Y1145468D01*
X917030Y1142369D01*
X919665Y1139734D01*
X922764Y1137663D01*
X926207Y1136237D01*
X929863Y1135510D01*
X933589D01*
X937245Y1136237D01*
X940688Y1137663D01*
X943787Y1139734D01*
X946422Y1142369D01*
X948493Y1145468D01*
X949919Y1148911D01*
X950646Y1152567D01*
Y1156293D01*
X949919Y1159949D01*
X948493Y1163392D01*
X946422Y1166491D01*
X943787Y1169126D01*
X940688Y1171197D01*
X937245Y1172623D01*
X933589Y1173350D01*
D02*
G37*
G36*
X829214D02*
X825488D01*
X821832Y1172623D01*
X818389Y1171197D01*
X815290Y1169126D01*
X812655Y1166491D01*
X810584Y1163392D01*
X809158Y1159949D01*
X808431Y1156293D01*
Y1152567D01*
X809158Y1148911D01*
X810584Y1145468D01*
X812655Y1142369D01*
X815290Y1139734D01*
X818389Y1137663D01*
X821832Y1136237D01*
X825488Y1135510D01*
X829214D01*
X832870Y1136237D01*
X836313Y1137663D01*
X839412Y1139734D01*
X842047Y1142369D01*
X844118Y1145468D01*
X845544Y1148911D01*
X846271Y1152567D01*
Y1156293D01*
X845544Y1159949D01*
X844118Y1163392D01*
X842047Y1166491D01*
X839412Y1169126D01*
X836313Y1171197D01*
X832870Y1172623D01*
X829214Y1173350D01*
D02*
G37*
G36*
X697814D02*
X694088D01*
X690432Y1172623D01*
X686989Y1171197D01*
X683890Y1169126D01*
X681255Y1166491D01*
X679184Y1163392D01*
X677758Y1159949D01*
X677031Y1156293D01*
Y1152567D01*
X677758Y1148911D01*
X679184Y1145468D01*
X681255Y1142369D01*
X683890Y1139734D01*
X686989Y1137663D01*
X690432Y1136237D01*
X694088Y1135510D01*
X697814D01*
X701470Y1136237D01*
X704913Y1137663D01*
X708012Y1139734D01*
X710647Y1142369D01*
X712718Y1145468D01*
X714144Y1148911D01*
X714871Y1152567D01*
Y1156293D01*
X714144Y1159949D01*
X712718Y1163392D01*
X710647Y1166491D01*
X708012Y1169126D01*
X704913Y1171197D01*
X701470Y1172623D01*
X697814Y1173350D01*
D02*
G37*
G36*
X593820D02*
X590093D01*
X586437Y1172623D01*
X582994Y1171197D01*
X579895Y1169126D01*
X577260Y1166491D01*
X575189Y1163392D01*
X573763Y1159949D01*
X573036Y1156293D01*
Y1152567D01*
X573763Y1148911D01*
X575189Y1145468D01*
X577260Y1142369D01*
X579895Y1139734D01*
X582994Y1137663D01*
X586437Y1136237D01*
X590093Y1135510D01*
X593820D01*
X597475Y1136237D01*
X600918Y1137663D01*
X604017Y1139734D01*
X606652Y1142369D01*
X608723Y1145468D01*
X610149Y1148911D01*
X610876Y1152567D01*
Y1156293D01*
X610149Y1159949D01*
X608723Y1163392D01*
X606652Y1166491D01*
X604017Y1169126D01*
X600918Y1171197D01*
X597475Y1172623D01*
X593820Y1173350D01*
D02*
G37*
G36*
X462420D02*
X458693D01*
X455037Y1172623D01*
X451594Y1171197D01*
X448495Y1169126D01*
X445860Y1166491D01*
X443789Y1163392D01*
X442363Y1159949D01*
X441636Y1156293D01*
Y1152567D01*
X442363Y1148911D01*
X443789Y1145468D01*
X445860Y1142369D01*
X448495Y1139734D01*
X451594Y1137663D01*
X455037Y1136237D01*
X458693Y1135510D01*
X462420D01*
X466075Y1136237D01*
X469518Y1137663D01*
X472617Y1139734D01*
X475252Y1142369D01*
X477323Y1145468D01*
X478749Y1148911D01*
X479476Y1152567D01*
Y1156293D01*
X478749Y1159949D01*
X477323Y1163392D01*
X475252Y1166491D01*
X472617Y1169126D01*
X469518Y1171197D01*
X466075Y1172623D01*
X462420Y1173350D01*
D02*
G37*
G36*
X1008700Y1137010D02*
X1006152D01*
X1003690Y1136350D01*
X1001482Y1135076D01*
X999680Y1133274D01*
X998406Y1131066D01*
X998083Y1129864D01*
X996769D01*
X996446Y1131066D01*
X995172Y1133274D01*
X993370Y1135076D01*
X991162Y1136350D01*
X988700Y1137010D01*
X986152D01*
X983690Y1136350D01*
X981482Y1135076D01*
X979680Y1133274D01*
X978406Y1131066D01*
X977746Y1128604D01*
Y1126056D01*
X978406Y1123594D01*
X979680Y1121386D01*
X981482Y1119584D01*
X983690Y1118310D01*
X986152Y1117650D01*
X988700D01*
X991162Y1118310D01*
X993370Y1119584D01*
X995172Y1121386D01*
X996446Y1123594D01*
X996769Y1124796D01*
X998083D01*
X998406Y1123594D01*
X999680Y1121386D01*
X1001482Y1119584D01*
X1003690Y1118310D01*
X1006152Y1117650D01*
X1008700D01*
X1011162Y1118310D01*
X1013370Y1119584D01*
X1015172Y1121386D01*
X1016446Y1123594D01*
X1017106Y1126056D01*
Y1128604D01*
X1016446Y1131066D01*
X1015172Y1133274D01*
X1013370Y1135076D01*
X1011162Y1136350D01*
X1008700Y1137010D01*
D02*
G37*
G36*
X772925D02*
X770377D01*
X767915Y1136350D01*
X765707Y1135076D01*
X763905Y1133274D01*
X762631Y1131066D01*
X762309Y1129864D01*
X760994D01*
X760671Y1131066D01*
X759397Y1133274D01*
X757595Y1135076D01*
X755387Y1136350D01*
X752925Y1137010D01*
X750377D01*
X747915Y1136350D01*
X745707Y1135076D01*
X743905Y1133274D01*
X742631Y1131066D01*
X741971Y1128604D01*
Y1126056D01*
X742631Y1123594D01*
X743905Y1121386D01*
X745707Y1119584D01*
X747915Y1118310D01*
X750377Y1117650D01*
X752925D01*
X755387Y1118310D01*
X757595Y1119584D01*
X759397Y1121386D01*
X760671Y1123594D01*
X760994Y1124796D01*
X762309D01*
X762631Y1123594D01*
X763905Y1121386D01*
X765707Y1119584D01*
X767915Y1118310D01*
X770377Y1117650D01*
X772925D01*
X775387Y1118310D01*
X777595Y1119584D01*
X779397Y1121386D01*
X780671Y1123594D01*
X781331Y1126056D01*
Y1128604D01*
X780671Y1131066D01*
X779397Y1133274D01*
X777595Y1135076D01*
X775387Y1136350D01*
X772925Y1137010D01*
D02*
G37*
G36*
X1244600Y1153160D02*
X1220470D01*
Y1129030D01*
X1221702D01*
X1226609Y1130006D01*
X1231231Y1131921D01*
X1235392Y1134700D01*
X1238930Y1138238D01*
X1241709Y1142399D01*
X1243624Y1147021D01*
X1244600Y1151928D01*
Y1153160D01*
D02*
G37*
G36*
X1217930D02*
X1193800D01*
Y1151928D01*
X1194776Y1147021D01*
X1196691Y1142399D01*
X1199471Y1138238D01*
X1203008Y1134700D01*
X1207169Y1131921D01*
X1211791Y1130006D01*
X1216698Y1129030D01*
X1217930D01*
Y1153160D01*
D02*
G37*
G36*
X312420D02*
X288290D01*
Y1129030D01*
X289522D01*
X294429Y1130006D01*
X299051Y1131921D01*
X303212Y1134700D01*
X306749Y1138238D01*
X309529Y1142399D01*
X311444Y1147021D01*
X312420Y1151928D01*
Y1153160D01*
D02*
G37*
G36*
X285750D02*
X261620D01*
Y1151928D01*
X262596Y1147021D01*
X264511Y1142399D01*
X267290Y1138238D01*
X270828Y1134700D01*
X274989Y1131921D01*
X279611Y1130006D01*
X284518Y1129030D01*
X285750D01*
Y1153160D01*
D02*
G37*
G36*
X963700Y1137010D02*
X963696D01*
Y1128600D01*
X972106D01*
Y1128604D01*
X971446Y1131066D01*
X970172Y1133274D01*
X968370Y1135076D01*
X966162Y1136350D01*
X963700Y1137010D01*
D02*
G37*
G36*
X727925D02*
X727921D01*
Y1128600D01*
X736331D01*
Y1128604D01*
X735671Y1131066D01*
X734397Y1133274D01*
X732595Y1135076D01*
X730387Y1136350D01*
X727925Y1137010D01*
D02*
G37*
G36*
X492530D02*
X492526D01*
Y1128600D01*
X500936D01*
Y1128604D01*
X500276Y1131066D01*
X499002Y1133274D01*
X497200Y1135076D01*
X494992Y1136350D01*
X492530Y1137010D01*
D02*
G37*
G36*
X961156D02*
X961152D01*
X958690Y1136350D01*
X956482Y1135076D01*
X954680Y1133274D01*
X953406Y1131066D01*
X952746Y1128604D01*
Y1128600D01*
X961156D01*
Y1137010D01*
D02*
G37*
G36*
X725381D02*
X725377D01*
X722915Y1136350D01*
X720707Y1135076D01*
X718905Y1133274D01*
X717631Y1131066D01*
X716971Y1128604D01*
Y1128600D01*
X725381D01*
Y1137010D01*
D02*
G37*
G36*
X489986D02*
X489982D01*
X487520Y1136350D01*
X485312Y1135076D01*
X483510Y1133274D01*
X482236Y1131066D01*
X481576Y1128604D01*
Y1128600D01*
X489986D01*
Y1137010D01*
D02*
G37*
G36*
X570936D02*
X551576D01*
Y1126009D01*
X550337Y1125763D01*
X549077Y1124921D01*
X545367Y1121211D01*
X544351Y1121991D01*
X545276Y1123594D01*
X545936Y1126056D01*
Y1128604D01*
X545276Y1131066D01*
X544002Y1133274D01*
X542200Y1135076D01*
X539992Y1136350D01*
X537530Y1137010D01*
X534982D01*
X532520Y1136350D01*
X530312Y1135076D01*
X528510Y1133274D01*
X527236Y1131066D01*
X526913Y1129864D01*
X525599D01*
X525276Y1131066D01*
X524002Y1133274D01*
X522200Y1135076D01*
X519992Y1136350D01*
X517530Y1137010D01*
X514982D01*
X512520Y1136350D01*
X510312Y1135076D01*
X508510Y1133274D01*
X507236Y1131066D01*
X506576Y1128604D01*
Y1126056D01*
X507236Y1123594D01*
X508510Y1121386D01*
X510312Y1119584D01*
X512520Y1118310D01*
X514982Y1117650D01*
X517530D01*
X519992Y1118310D01*
X522200Y1119584D01*
X524002Y1121386D01*
X525276Y1123594D01*
X525599Y1124796D01*
X526913D01*
X527236Y1123594D01*
X528510Y1121386D01*
X530312Y1119584D01*
X532520Y1118310D01*
X534982Y1117650D01*
X537530D01*
X539992Y1118310D01*
X541595Y1119235D01*
X542375Y1118219D01*
X533056Y1108900D01*
X525470D01*
Y1095820D01*
X538550D01*
Y1103406D01*
X552794Y1117650D01*
X570936D01*
Y1137010D01*
D02*
G37*
G36*
X961156Y1126060D02*
X952746D01*
Y1126056D01*
X953406Y1123594D01*
X954680Y1121386D01*
X956482Y1119584D01*
X958690Y1118310D01*
X961152Y1117650D01*
X961156D01*
Y1126060D01*
D02*
G37*
G36*
X725381D02*
X716971D01*
Y1126056D01*
X717631Y1123594D01*
X718905Y1121386D01*
X720707Y1119584D01*
X722915Y1118310D01*
X725377Y1117650D01*
X725381D01*
Y1126060D01*
D02*
G37*
G36*
X489986D02*
X481576D01*
Y1126056D01*
X482236Y1123594D01*
X483510Y1121386D01*
X485312Y1119584D01*
X487520Y1118310D01*
X489982Y1117650D01*
X489986D01*
Y1126060D01*
D02*
G37*
G36*
X523550Y1108900D02*
X518280D01*
Y1103630D01*
X523550D01*
Y1108900D01*
D02*
G37*
G36*
X500936Y1126060D02*
X492526D01*
Y1117650D01*
X492530D01*
X494992Y1118310D01*
X495356Y1118520D01*
X510246Y1103630D01*
X515740D01*
Y1109124D01*
X500486Y1124377D01*
X500936Y1126056D01*
Y1126060D01*
D02*
G37*
G36*
X759770Y1107630D02*
X754500D01*
Y1102360D01*
X759770D01*
Y1107630D01*
D02*
G37*
G36*
X736331Y1126060D02*
X727921D01*
Y1117650D01*
X727925D01*
X730387Y1118310D01*
X730469Y1118357D01*
X746466Y1102360D01*
X751960D01*
Y1107854D01*
X735787Y1124026D01*
X736331Y1126056D01*
Y1126060D01*
D02*
G37*
G36*
X995990Y1106360D02*
X990720D01*
Y1101090D01*
X995990D01*
Y1106360D01*
D02*
G37*
G36*
X972106Y1126060D02*
X963696D01*
Y1117650D01*
X963700D01*
X965614Y1118163D01*
X982686Y1101090D01*
X988180D01*
Y1106584D01*
X971345Y1123419D01*
X971446Y1123594D01*
X972106Y1126056D01*
Y1126060D01*
D02*
G37*
G36*
X523550Y1101090D02*
X518280D01*
Y1095820D01*
X523550D01*
Y1101090D01*
D02*
G37*
G36*
X515740D02*
X510470D01*
Y1095820D01*
X515740D01*
Y1101090D01*
D02*
G37*
G36*
X806331Y1137010D02*
X786971D01*
Y1124954D01*
X785853Y1124207D01*
X769276Y1107630D01*
X761690D01*
Y1094550D01*
X774770D01*
Y1102136D01*
X790209Y1117575D01*
X790781D01*
X791156Y1117650D01*
X806331D01*
Y1137010D01*
D02*
G37*
G36*
X759770Y1099820D02*
X754500D01*
Y1094550D01*
X759770D01*
Y1099820D01*
D02*
G37*
G36*
X751960D02*
X746690D01*
Y1094550D01*
X751960D01*
Y1099820D01*
D02*
G37*
G36*
X1042106Y1137010D02*
X1022746D01*
Y1123610D01*
X1005496Y1106360D01*
X997910D01*
Y1093280D01*
X1010990D01*
Y1100866D01*
X1027774Y1117650D01*
X1042106D01*
Y1137010D01*
D02*
G37*
G36*
X995990Y1098550D02*
X990720D01*
Y1093280D01*
X995990D01*
Y1098550D01*
D02*
G37*
G36*
X988180D02*
X982910D01*
Y1093280D01*
X988180D01*
Y1098550D01*
D02*
G37*
G36*
X962480Y1053150D02*
X947600D01*
Y1050365D01*
X946179D01*
X944519Y1051052D01*
X942701D01*
X941020Y1050356D01*
X939734Y1049070D01*
X939038Y1047389D01*
Y1045571D01*
X939734Y1043890D01*
X941020Y1042604D01*
X942701Y1041908D01*
X944519D01*
X946179Y1042595D01*
X947600D01*
Y1039570D01*
X962480D01*
Y1053150D01*
D02*
G37*
G36*
X986610D02*
X971730D01*
Y1039570D01*
X986610D01*
Y1042595D01*
X988031D01*
X989691Y1041908D01*
X991509D01*
X993190Y1042604D01*
X994476Y1043890D01*
X995172Y1045571D01*
Y1047389D01*
X994476Y1049070D01*
X993190Y1050356D01*
X991509Y1051052D01*
X989691D01*
X988031Y1050365D01*
X986610D01*
Y1053150D01*
D02*
G37*
G36*
X763580Y1036510D02*
X758310D01*
Y1031240D01*
X763580D01*
Y1036510D01*
D02*
G37*
G36*
X755770D02*
X750500D01*
Y1031240D01*
X755770D01*
Y1036510D01*
D02*
G37*
G36*
X763580Y1028700D02*
X750500D01*
Y1023430D01*
X753155D01*
Y1020621D01*
X752316Y1019782D01*
Y1010920D01*
X761079D01*
Y1010971D01*
X760395Y1013523D01*
X759169Y1015647D01*
X759787Y1016265D01*
X760629Y1017525D01*
X760925Y1019012D01*
Y1023430D01*
X763580D01*
Y1028700D01*
D02*
G37*
G36*
X749776Y1019683D02*
X749725D01*
X747173Y1018999D01*
X744886Y1017678D01*
X743018Y1015810D01*
X741697Y1013523D01*
X741013Y1010971D01*
Y1010920D01*
X749776D01*
Y1019683D01*
D02*
G37*
G36*
X1006367D02*
X1003725D01*
X1001173Y1018999D01*
X998886Y1017678D01*
X997018Y1015810D01*
X995697Y1013523D01*
X995013Y1010971D01*
Y1008329D01*
X995697Y1005777D01*
X997018Y1003490D01*
X998886Y1001622D01*
X1001173Y1000301D01*
X1003725Y999617D01*
X1006367D01*
X1008919Y1000301D01*
X1011206Y1001622D01*
X1013074Y1003490D01*
X1014395Y1005777D01*
X1015079Y1008329D01*
Y1010971D01*
X1014395Y1013523D01*
X1013074Y1015810D01*
X1011206Y1017678D01*
X1008919Y1018999D01*
X1006367Y1019683D01*
D02*
G37*
G36*
X986610Y1038150D02*
X971730D01*
Y1024570D01*
X975761D01*
Y1018992D01*
X973486Y1017678D01*
X971618Y1015810D01*
X970297Y1013523D01*
X969613Y1010971D01*
Y1008329D01*
X970297Y1005777D01*
X971618Y1003490D01*
X973486Y1001622D01*
X975773Y1000301D01*
X978325Y999617D01*
X980967D01*
X983519Y1000301D01*
X985806Y1001622D01*
X987674Y1003490D01*
X988995Y1005777D01*
X989679Y1008329D01*
Y1010971D01*
X988995Y1013523D01*
X987674Y1015810D01*
X985806Y1017678D01*
X983531Y1018992D01*
Y1024570D01*
X986610D01*
Y1038150D01*
D02*
G37*
G36*
X962480D02*
X947600D01*
Y1024570D01*
X950361D01*
Y1018992D01*
X948086Y1017678D01*
X946218Y1015810D01*
X944897Y1013523D01*
X944213Y1010971D01*
Y1008329D01*
X944897Y1005777D01*
X946218Y1003490D01*
X948086Y1001622D01*
X950374Y1000301D01*
X952925Y999617D01*
X955567D01*
X958119Y1000301D01*
X960406Y1001622D01*
X962274Y1003490D01*
X963595Y1005777D01*
X964279Y1008329D01*
Y1010971D01*
X963595Y1013523D01*
X962274Y1015810D01*
X960406Y1017678D01*
X958131Y1018992D01*
Y1024570D01*
X962480D01*
Y1038150D01*
D02*
G37*
G36*
X930167Y1019683D02*
X927525D01*
X924974Y1018999D01*
X922686Y1017678D01*
X920818Y1015810D01*
X919497Y1013523D01*
X918813Y1010971D01*
Y1008329D01*
X919497Y1005777D01*
X920818Y1003490D01*
X922686Y1001622D01*
X924974Y1000301D01*
X927525Y999617D01*
X930167D01*
X932719Y1000301D01*
X935006Y1001622D01*
X936874Y1003490D01*
X938195Y1005777D01*
X938879Y1008329D01*
Y1010971D01*
X938195Y1013523D01*
X936874Y1015810D01*
X935006Y1017678D01*
X932719Y1018999D01*
X930167Y1019683D01*
D02*
G37*
G36*
X904767D02*
X902125D01*
X899574Y1018999D01*
X897286Y1017678D01*
X895418Y1015810D01*
X894097Y1013523D01*
X893413Y1010971D01*
Y1008329D01*
X894097Y1005777D01*
X895418Y1003490D01*
X897286Y1001622D01*
X899574Y1000301D01*
X902125Y999617D01*
X904767D01*
X907319Y1000301D01*
X909606Y1001622D01*
X911474Y1003490D01*
X912795Y1005777D01*
X913479Y1008329D01*
Y1010971D01*
X912795Y1013523D01*
X911474Y1015810D01*
X909606Y1017678D01*
X907319Y1018999D01*
X904767Y1019683D01*
D02*
G37*
G36*
X879367D02*
X876725D01*
X874174Y1018999D01*
X871886Y1017678D01*
X870018Y1015810D01*
X868697Y1013523D01*
X868013Y1010971D01*
Y1008329D01*
X868697Y1005777D01*
X870018Y1003490D01*
X871886Y1001622D01*
X874174Y1000301D01*
X876725Y999617D01*
X879367D01*
X881919Y1000301D01*
X884206Y1001622D01*
X886074Y1003490D01*
X887395Y1005777D01*
X888079Y1008329D01*
Y1010971D01*
X887395Y1013523D01*
X886074Y1015810D01*
X884206Y1017678D01*
X881919Y1018999D01*
X879367Y1019683D01*
D02*
G37*
G36*
X853967D02*
X851325D01*
X848773Y1018999D01*
X846486Y1017678D01*
X844618Y1015810D01*
X843297Y1013523D01*
X842613Y1010971D01*
Y1008329D01*
X843297Y1005777D01*
X844618Y1003490D01*
X846486Y1001622D01*
X848773Y1000301D01*
X851325Y999617D01*
X853967D01*
X856519Y1000301D01*
X858806Y1001622D01*
X860674Y1003490D01*
X861995Y1005777D01*
X862679Y1008329D01*
Y1010971D01*
X861995Y1013523D01*
X860674Y1015810D01*
X858806Y1017678D01*
X856519Y1018999D01*
X853967Y1019683D01*
D02*
G37*
G36*
X828567D02*
X825925D01*
X823373Y1018999D01*
X821086Y1017678D01*
X819218Y1015810D01*
X817897Y1013523D01*
X817213Y1010971D01*
Y1008329D01*
X817897Y1005777D01*
X819218Y1003490D01*
X821086Y1001622D01*
X823373Y1000301D01*
X825925Y999617D01*
X828567D01*
X831119Y1000301D01*
X833406Y1001622D01*
X835274Y1003490D01*
X836595Y1005777D01*
X837279Y1008329D01*
Y1010971D01*
X836595Y1013523D01*
X835274Y1015810D01*
X833406Y1017678D01*
X831119Y1018999D01*
X828567Y1019683D01*
D02*
G37*
G36*
X803167D02*
X800525D01*
X797973Y1018999D01*
X795686Y1017678D01*
X793818Y1015810D01*
X792497Y1013523D01*
X791813Y1010971D01*
Y1008329D01*
X792497Y1005777D01*
X793818Y1003490D01*
X795686Y1001622D01*
X797973Y1000301D01*
X800525Y999617D01*
X803167D01*
X805719Y1000301D01*
X808006Y1001622D01*
X809874Y1003490D01*
X811195Y1005777D01*
X811879Y1008329D01*
Y1010971D01*
X811195Y1013523D01*
X809874Y1015810D01*
X808006Y1017678D01*
X805719Y1018999D01*
X803167Y1019683D01*
D02*
G37*
G36*
X778580Y1036510D02*
X765500D01*
Y1023430D01*
X768155D01*
Y1017424D01*
X768451Y1015937D01*
X768488Y1015881D01*
X768418Y1015810D01*
X767097Y1013523D01*
X766413Y1010971D01*
Y1008329D01*
X767097Y1005777D01*
X768418Y1003490D01*
X770286Y1001622D01*
X772573Y1000301D01*
X775125Y999617D01*
X777767D01*
X780319Y1000301D01*
X782606Y1001622D01*
X784474Y1003490D01*
X785795Y1005777D01*
X786479Y1008329D01*
Y1010971D01*
X785795Y1013523D01*
X784474Y1015810D01*
X782606Y1017678D01*
X780319Y1018999D01*
X777767Y1019683D01*
X775925D01*
Y1023430D01*
X778580D01*
Y1036510D01*
D02*
G37*
G36*
X761079Y1008380D02*
X752316D01*
Y999617D01*
X752367D01*
X754919Y1000301D01*
X757206Y1001622D01*
X759074Y1003490D01*
X760395Y1005777D01*
X761079Y1008329D01*
Y1008380D01*
D02*
G37*
G36*
X749776D02*
X741013D01*
Y1008329D01*
X741697Y1005777D01*
X743018Y1003490D01*
X744886Y1001622D01*
X747173Y1000301D01*
X749725Y999617D01*
X749776D01*
Y1008380D01*
D02*
G37*
G36*
X726967Y1019683D02*
X724325D01*
X721774Y1018999D01*
X719486Y1017678D01*
X717618Y1015810D01*
X716297Y1013523D01*
X715613Y1010971D01*
Y1008329D01*
X716297Y1005777D01*
X717618Y1003490D01*
X719486Y1001622D01*
X721774Y1000301D01*
X724325Y999617D01*
X726967D01*
X729519Y1000301D01*
X731806Y1001622D01*
X733674Y1003490D01*
X734995Y1005777D01*
X735679Y1008329D01*
Y1010971D01*
X734995Y1013523D01*
X733674Y1015810D01*
X731806Y1017678D01*
X729519Y1018999D01*
X726967Y1019683D01*
D02*
G37*
G36*
X701567D02*
X698925D01*
X696374Y1018999D01*
X694086Y1017678D01*
X692218Y1015810D01*
X690897Y1013523D01*
X690213Y1010971D01*
Y1008329D01*
X690897Y1005777D01*
X692218Y1003490D01*
X694086Y1001622D01*
X696374Y1000301D01*
X698925Y999617D01*
X701567D01*
X704119Y1000301D01*
X706406Y1001622D01*
X708274Y1003490D01*
X709595Y1005777D01*
X710279Y1008329D01*
Y1010971D01*
X709595Y1013523D01*
X708274Y1015810D01*
X706406Y1017678D01*
X704119Y1018999D01*
X701567Y1019683D01*
D02*
G37*
G36*
X676167D02*
X673525D01*
X670974Y1018999D01*
X668686Y1017678D01*
X666818Y1015810D01*
X665497Y1013523D01*
X664813Y1010971D01*
Y1008329D01*
X665497Y1005777D01*
X666818Y1003490D01*
X668686Y1001622D01*
X670974Y1000301D01*
X673525Y999617D01*
X676167D01*
X678719Y1000301D01*
X681006Y1001622D01*
X682874Y1003490D01*
X684195Y1005777D01*
X684879Y1008329D01*
Y1010971D01*
X684195Y1013523D01*
X682874Y1015810D01*
X681006Y1017678D01*
X678719Y1018999D01*
X676167Y1019683D01*
D02*
G37*
G36*
X625367D02*
X622725D01*
X620173Y1018999D01*
X617886Y1017678D01*
X616018Y1015810D01*
X614697Y1013523D01*
X614013Y1010971D01*
Y1008329D01*
X614697Y1005777D01*
X616018Y1003490D01*
X617886Y1001622D01*
X620173Y1000301D01*
X622725Y999617D01*
X625367D01*
X627919Y1000301D01*
X630206Y1001622D01*
X632074Y1003490D01*
X633395Y1005777D01*
X634079Y1008329D01*
Y1010971D01*
X633395Y1013523D01*
X632074Y1015810D01*
X630206Y1017678D01*
X627919Y1018999D01*
X625367Y1019683D01*
D02*
G37*
G36*
X599967D02*
X597325D01*
X594773Y1018999D01*
X592486Y1017678D01*
X590618Y1015810D01*
X589297Y1013523D01*
X588613Y1010971D01*
Y1008329D01*
X589297Y1005777D01*
X590618Y1003490D01*
X592486Y1001622D01*
X594773Y1000301D01*
X597325Y999617D01*
X599967D01*
X602519Y1000301D01*
X604806Y1001622D01*
X606674Y1003490D01*
X607995Y1005777D01*
X608679Y1008329D01*
Y1010971D01*
X607995Y1013523D01*
X606674Y1015810D01*
X604806Y1017678D01*
X602519Y1018999D01*
X599967Y1019683D01*
D02*
G37*
G36*
X574567D02*
X571925D01*
X569374Y1018999D01*
X567086Y1017678D01*
X565218Y1015810D01*
X563897Y1013523D01*
X563213Y1010971D01*
Y1008329D01*
X563897Y1005777D01*
X565218Y1003490D01*
X567086Y1001622D01*
X569374Y1000301D01*
X571925Y999617D01*
X574567D01*
X577119Y1000301D01*
X579406Y1001622D01*
X581274Y1003490D01*
X582595Y1005777D01*
X583279Y1008329D01*
Y1010971D01*
X582595Y1013523D01*
X581274Y1015810D01*
X579406Y1017678D01*
X577119Y1018999D01*
X574567Y1019683D01*
D02*
G37*
G36*
X549167D02*
X546525D01*
X543974Y1018999D01*
X541686Y1017678D01*
X539818Y1015810D01*
X538497Y1013523D01*
X537813Y1010971D01*
Y1008329D01*
X538497Y1005777D01*
X539818Y1003490D01*
X541686Y1001622D01*
X543974Y1000301D01*
X546525Y999617D01*
X549167D01*
X551719Y1000301D01*
X554006Y1001622D01*
X555874Y1003490D01*
X557195Y1005777D01*
X557879Y1008329D01*
Y1010971D01*
X557195Y1013523D01*
X555874Y1015810D01*
X554006Y1017678D01*
X551719Y1018999D01*
X549167Y1019683D01*
D02*
G37*
G36*
X303582Y1255910D02*
X300938D01*
X298385Y1255226D01*
X296095Y1253904D01*
X294226Y1252035D01*
X292904Y1249745D01*
X292220Y1247192D01*
Y1244548D01*
X292904Y1241995D01*
X294226Y1239705D01*
X296095Y1237836D01*
X298375Y1236520D01*
Y1229836D01*
X298671Y1228350D01*
X299513Y1227089D01*
X513093Y1013509D01*
X512413Y1010971D01*
Y1008329D01*
X513097Y1005777D01*
X514418Y1003490D01*
X516286Y1001622D01*
X518573Y1000301D01*
X521125Y999617D01*
X523767D01*
X526319Y1000301D01*
X528606Y1001622D01*
X530474Y1003490D01*
X531795Y1005777D01*
X532479Y1008329D01*
Y1010971D01*
X531795Y1013523D01*
X530474Y1015810D01*
X528606Y1017678D01*
X526319Y1018999D01*
X523767Y1019683D01*
X521125D01*
X518587Y1019003D01*
X306145Y1231445D01*
Y1236520D01*
X308425Y1237836D01*
X310294Y1239705D01*
X311616Y1241995D01*
X312300Y1244548D01*
Y1247192D01*
X311616Y1249745D01*
X310294Y1252035D01*
X308425Y1253904D01*
X306135Y1255226D01*
X303582Y1255910D01*
D02*
G37*
G36*
X283090Y976510D02*
X274320D01*
Y967740D01*
X283090D01*
Y976510D01*
D02*
G37*
G36*
X271780D02*
X263010D01*
Y967740D01*
X271780D01*
Y976510D01*
D02*
G37*
G36*
X1117180Y968470D02*
X1100600D01*
Y961465D01*
X1089800D01*
Y964770D01*
X1076820D01*
Y950390D01*
X1089800D01*
Y953695D01*
X1100600D01*
Y950390D01*
X1117180D01*
Y968470D01*
D02*
G37*
G36*
X299772Y976510D02*
X297128D01*
X294575Y975826D01*
X292285Y974504D01*
X290416Y972635D01*
X289094Y970345D01*
X288410Y967792D01*
Y965148D01*
X289094Y962595D01*
X290416Y960305D01*
X292285Y958436D01*
X294575Y957114D01*
X297128Y956430D01*
X299772D01*
X302325Y957114D01*
X304615Y958436D01*
X306484Y960305D01*
X307806Y962595D01*
X308490Y965148D01*
Y967792D01*
X307806Y970345D01*
X306484Y972635D01*
X304615Y974504D01*
X302325Y975826D01*
X299772Y976510D01*
D02*
G37*
G36*
X283090Y965200D02*
X274320D01*
Y956430D01*
X283090D01*
Y965200D01*
D02*
G37*
G36*
X271780D02*
X263010D01*
Y956430D01*
X271780D01*
Y965200D01*
D02*
G37*
G36*
X1117180Y922750D02*
X1100600D01*
Y915745D01*
X1089110D01*
Y919050D01*
X1076130D01*
Y904670D01*
X1089110D01*
Y907975D01*
X1100600D01*
Y904670D01*
X1117180D01*
Y922750D01*
D02*
G37*
G36*
X1139680Y968470D02*
X1123100D01*
Y950390D01*
X1127685D01*
Y939829D01*
X1126998Y938169D01*
Y936351D01*
X1127685Y934691D01*
Y922750D01*
X1123100D01*
Y904670D01*
X1139680D01*
Y922750D01*
X1135455D01*
Y934691D01*
X1136142Y936351D01*
Y938169D01*
X1135455Y939829D01*
Y950390D01*
X1139680D01*
Y968470D01*
D02*
G37*
G36*
X325172Y976510D02*
X322528D01*
X319975Y975826D01*
X317685Y974504D01*
X315816Y972635D01*
X314494Y970345D01*
X313810Y967792D01*
Y965148D01*
X314494Y962595D01*
X315816Y960305D01*
X317685Y958436D01*
X319965Y957120D01*
Y917279D01*
X275883Y873196D01*
X270986D01*
X269562Y872913D01*
X268354Y872106D01*
X267547Y870898D01*
X267347Y869896D01*
X266053D01*
X265853Y870898D01*
X265046Y872106D01*
X263838Y872913D01*
X262414Y873196D01*
X260350D01*
Y866140D01*
Y859083D01*
X262414D01*
X263838Y859367D01*
X265046Y860174D01*
X265853Y861382D01*
X266053Y862384D01*
X267347D01*
X267547Y861382D01*
X268354Y860174D01*
X269562Y859367D01*
X270986Y859083D01*
X274853D01*
X289590Y844346D01*
Y788460D01*
X355570D01*
Y815265D01*
X360793D01*
Y813481D01*
X377373D01*
Y831561D01*
X360793D01*
Y823035D01*
X355570D01*
Y849840D01*
X295084D01*
X281376Y863547D01*
Y867703D01*
X326597Y912923D01*
X327439Y914183D01*
X327735Y915670D01*
Y957120D01*
X330015Y958436D01*
X331884Y960305D01*
X333206Y962595D01*
X333890Y965148D01*
Y967792D01*
X333206Y970345D01*
X331884Y972635D01*
X330015Y974504D01*
X327725Y975826D01*
X325172Y976510D01*
D02*
G37*
G36*
X257810Y873196D02*
X255746D01*
X254322Y872913D01*
X253114Y872106D01*
X252307Y870898D01*
X252024Y869474D01*
Y867410D01*
X257810D01*
Y873196D01*
D02*
G37*
G36*
X1072710Y919050D02*
X1059730D01*
Y912365D01*
X1056276D01*
X1054790Y912069D01*
X1053529Y911227D01*
X1008905Y866603D01*
X1006367Y867283D01*
X1003725D01*
X1001173Y866599D01*
X998886Y865278D01*
X997018Y863410D01*
X995697Y861123D01*
X995013Y858571D01*
Y855929D01*
X995697Y853377D01*
X997018Y851090D01*
X998886Y849222D01*
X1001173Y847901D01*
X1003725Y847217D01*
X1006367D01*
X1008919Y847901D01*
X1011206Y849222D01*
X1013074Y851090D01*
X1014395Y853377D01*
X1015079Y855929D01*
Y858571D01*
X1014399Y861109D01*
X1057885Y904595D01*
X1063540D01*
X1063915Y904670D01*
X1072710D01*
Y919050D01*
D02*
G37*
G36*
X257810Y864870D02*
X252024D01*
Y862806D01*
X252307Y861382D01*
X253114Y860174D01*
X254322Y859367D01*
X255746Y859083D01*
X257810D01*
Y864870D01*
D02*
G37*
G36*
X777767Y867283D02*
X777716D01*
Y858520D01*
X786479D01*
Y858571D01*
X785795Y861123D01*
X784474Y863410D01*
X782606Y865278D01*
X780319Y866599D01*
X777767Y867283D01*
D02*
G37*
G36*
X775176D02*
X775125D01*
X772573Y866599D01*
X770286Y865278D01*
X768418Y863410D01*
X767097Y861123D01*
X766413Y858571D01*
Y858520D01*
X775176D01*
Y867283D01*
D02*
G37*
G36*
X625367D02*
X622725D01*
X620173Y866599D01*
X617886Y865278D01*
X616018Y863410D01*
X614697Y861123D01*
X614013Y858571D01*
Y857565D01*
X608965Y852517D01*
X607949Y853297D01*
X607995Y853377D01*
X608679Y855929D01*
Y858571D01*
X607995Y861123D01*
X606674Y863410D01*
X604806Y865278D01*
X602519Y866599D01*
X599967Y867283D01*
X597325D01*
X594773Y866599D01*
X592486Y865278D01*
X590618Y863410D01*
X589297Y861123D01*
X588613Y858571D01*
Y855929D01*
X588656Y855770D01*
X544623Y811737D01*
X543781Y810477D01*
X543485Y808990D01*
Y710390D01*
X541205Y709074D01*
X539336Y707205D01*
X538014Y704915D01*
X537330Y702362D01*
Y699718D01*
X538014Y697165D01*
X539336Y694875D01*
X541205Y693006D01*
X543495Y691684D01*
X546048Y691000D01*
X548692D01*
X551245Y691684D01*
X553535Y693006D01*
X555404Y694875D01*
X556726Y697165D01*
X557410Y699718D01*
Y702362D01*
X556726Y704915D01*
X555404Y707205D01*
X553535Y709074D01*
X551255Y710390D01*
Y807381D01*
X592872Y848998D01*
X594773Y847901D01*
X597325Y847217D01*
X599967D01*
X602519Y847901D01*
X602599Y847947D01*
X603379Y846931D01*
X593235Y836787D01*
X593235Y836787D01*
X570023Y813575D01*
X569181Y812315D01*
X568885Y810828D01*
Y710390D01*
X566605Y709074D01*
X564736Y707205D01*
X563414Y704915D01*
X562730Y702362D01*
Y699718D01*
X563414Y697165D01*
X564736Y694875D01*
X566605Y693006D01*
X568895Y691684D01*
X571448Y691000D01*
X574092D01*
X576645Y691684D01*
X578935Y693006D01*
X580804Y694875D01*
X582126Y697165D01*
X582810Y699718D01*
Y702362D01*
X582126Y704915D01*
X580804Y707205D01*
X578935Y709074D01*
X576655Y710390D01*
Y809219D01*
X581567Y814131D01*
X582740Y813645D01*
Y803600D01*
X595820D01*
Y806255D01*
X615315D01*
X616802Y806551D01*
X618062Y807393D01*
X619036Y808367D01*
X620965Y807254D01*
X623518Y806570D01*
X626162D01*
X628715Y807254D01*
X631005Y808576D01*
X632874Y810445D01*
X634196Y812735D01*
X634880Y815288D01*
Y817932D01*
X634196Y820485D01*
X632874Y822775D01*
X631005Y824644D01*
X628715Y825966D01*
X626162Y826650D01*
X623518D01*
X620965Y825966D01*
X618675Y824644D01*
X616806Y822775D01*
X615484Y820485D01*
X614800Y817932D01*
Y815288D01*
X614836Y815154D01*
X613706Y814025D01*
X595820D01*
Y816680D01*
X585775D01*
X585289Y817853D01*
X598729Y831293D01*
X598729Y831294D01*
X617271Y849836D01*
X617886Y849222D01*
X620173Y847901D01*
X622725Y847217D01*
X625367D01*
X627919Y847901D01*
X630206Y849222D01*
X632074Y851090D01*
X633395Y853377D01*
X634079Y855929D01*
Y858571D01*
X633395Y861123D01*
X632074Y863410D01*
X630206Y865278D01*
X627919Y866599D01*
X625367Y867283D01*
D02*
G37*
G36*
X1073400Y964770D02*
X1060420D01*
Y955884D01*
X976899Y872363D01*
X976057Y871103D01*
X975761Y869616D01*
Y866592D01*
X973486Y865278D01*
X971618Y863410D01*
X970297Y861123D01*
X969613Y858571D01*
Y855929D01*
X970297Y853377D01*
X971618Y851090D01*
X973486Y849222D01*
X975773Y847901D01*
X978325Y847217D01*
X980967D01*
X983519Y847901D01*
X985806Y849222D01*
X987674Y851090D01*
X988995Y853377D01*
X989679Y855929D01*
Y858571D01*
X988995Y861123D01*
X987674Y863410D01*
X985806Y865278D01*
X983531Y866592D01*
Y868007D01*
X1065914Y950390D01*
X1073400D01*
Y964770D01*
D02*
G37*
G36*
X786479Y855980D02*
X777716D01*
Y847217D01*
X777767D01*
X780319Y847901D01*
X782606Y849222D01*
X784474Y851090D01*
X785795Y853377D01*
X786479Y855929D01*
Y855980D01*
D02*
G37*
G36*
X726967Y867283D02*
X724325D01*
X721774Y866599D01*
X719486Y865278D01*
X717618Y863410D01*
X716297Y861123D01*
X715613Y858571D01*
Y855929D01*
X716297Y853377D01*
X717618Y851090D01*
X719486Y849222D01*
X721774Y847901D01*
X724325Y847217D01*
X726967D01*
X729519Y847901D01*
X731806Y849222D01*
X733674Y851090D01*
X734995Y853377D01*
X735679Y855929D01*
Y858571D01*
X734995Y861123D01*
X733674Y863410D01*
X731806Y865278D01*
X729519Y866599D01*
X726967Y867283D01*
D02*
G37*
G36*
X701567D02*
X698925D01*
X696374Y866599D01*
X694086Y865278D01*
X692218Y863410D01*
X690897Y861123D01*
X690213Y858571D01*
Y855929D01*
X690897Y853377D01*
X692218Y851090D01*
X694086Y849222D01*
X696374Y847901D01*
X698925Y847217D01*
X701567D01*
X704119Y847901D01*
X706406Y849222D01*
X708274Y851090D01*
X709595Y853377D01*
X710279Y855929D01*
Y858571D01*
X709595Y861123D01*
X708274Y863410D01*
X706406Y865278D01*
X704119Y866599D01*
X701567Y867283D01*
D02*
G37*
G36*
X676167D02*
X673525D01*
X670974Y866599D01*
X668686Y865278D01*
X666818Y863410D01*
X665497Y861123D01*
X664813Y858571D01*
Y855929D01*
X665497Y853377D01*
X666818Y851090D01*
X668686Y849222D01*
X670974Y847901D01*
X673525Y847217D01*
X676167D01*
X678719Y847901D01*
X681006Y849222D01*
X682874Y851090D01*
X684195Y853377D01*
X684879Y855929D01*
Y858571D01*
X684195Y861123D01*
X682874Y863410D01*
X681006Y865278D01*
X678719Y866599D01*
X676167Y867283D01*
D02*
G37*
G36*
X650767D02*
X648125D01*
X645574Y866599D01*
X643286Y865278D01*
X641418Y863410D01*
X640097Y861123D01*
X639413Y858571D01*
Y855929D01*
X640097Y853377D01*
X641418Y851090D01*
X643286Y849222D01*
X645574Y847901D01*
X648125Y847217D01*
X650767D01*
X653319Y847901D01*
X655606Y849222D01*
X657474Y851090D01*
X658795Y853377D01*
X659479Y855929D01*
Y858571D01*
X658795Y861123D01*
X657474Y863410D01*
X655606Y865278D01*
X653319Y866599D01*
X650767Y867283D01*
D02*
G37*
G36*
X574567D02*
X571925D01*
X569374Y866599D01*
X567086Y865278D01*
X565218Y863410D01*
X563897Y861123D01*
X563213Y858571D01*
Y855929D01*
X563256Y855770D01*
X519223Y811737D01*
X518381Y810477D01*
X518085Y808990D01*
Y710390D01*
X515805Y709074D01*
X513936Y707205D01*
X512614Y704915D01*
X511930Y702362D01*
Y699718D01*
X512614Y697165D01*
X513936Y694875D01*
X515805Y693006D01*
X518095Y691684D01*
X520648Y691000D01*
X523292D01*
X525845Y691684D01*
X528135Y693006D01*
X530004Y694875D01*
X531326Y697165D01*
X532010Y699718D01*
Y702362D01*
X531326Y704915D01*
X530004Y707205D01*
X528135Y709074D01*
X525855Y710390D01*
Y807381D01*
X567472Y848998D01*
X569374Y847901D01*
X571925Y847217D01*
X574567D01*
X577119Y847901D01*
X579406Y849222D01*
X581274Y851090D01*
X582595Y853377D01*
X583279Y855929D01*
Y858571D01*
X582595Y861123D01*
X581274Y863410D01*
X579406Y865278D01*
X577119Y866599D01*
X574567Y867283D01*
D02*
G37*
G36*
X549167D02*
X546525D01*
X543974Y866599D01*
X541686Y865278D01*
X539818Y863410D01*
X538497Y861123D01*
X537813Y858571D01*
Y855929D01*
X538497Y853377D01*
X539818Y851090D01*
X541686Y849222D01*
X543974Y847901D01*
X546525Y847217D01*
X549167D01*
X551719Y847901D01*
X554006Y849222D01*
X555874Y851090D01*
X557195Y853377D01*
X557879Y855929D01*
Y858571D01*
X557195Y861123D01*
X555874Y863410D01*
X554006Y865278D01*
X551719Y866599D01*
X549167Y867283D01*
D02*
G37*
G36*
X532479D02*
X512413D01*
Y847217D01*
X532479D01*
Y867283D01*
D02*
G37*
G36*
X272770Y849440D02*
X257350D01*
Y843320D01*
X272770D01*
Y849440D01*
D02*
G37*
G36*
X254810D02*
X239390D01*
Y843320D01*
X254810D01*
Y849440D01*
D02*
G37*
G36*
X775176Y855980D02*
X766413D01*
Y855929D01*
X767097Y853377D01*
X768323Y851253D01*
X767903Y850833D01*
X767061Y849573D01*
X766765Y848086D01*
Y843470D01*
X764110D01*
Y838200D01*
X770650D01*
X777190D01*
Y843470D01*
X774535D01*
Y846477D01*
X775176Y847118D01*
Y855980D01*
D02*
G37*
G36*
X272770Y840780D02*
X257350D01*
Y834660D01*
X272770D01*
Y840780D01*
D02*
G37*
G36*
X254810D02*
X239390D01*
Y834660D01*
X254810D01*
Y840780D01*
D02*
G37*
G36*
X777190Y835660D02*
X771920D01*
Y830390D01*
X777190D01*
Y835660D01*
D02*
G37*
G36*
X769380D02*
X764110D01*
Y830390D01*
X769380D01*
Y835660D01*
D02*
G37*
G36*
X752367Y867283D02*
X749725D01*
X747173Y866599D01*
X744886Y865278D01*
X743018Y863410D01*
X741697Y861123D01*
X741013Y858571D01*
Y855929D01*
X741697Y853377D01*
X743018Y851090D01*
X744886Y849222D01*
X747173Y847901D01*
X749725Y847217D01*
X751765D01*
Y843470D01*
X749110D01*
Y830390D01*
X762190D01*
Y843470D01*
X759535D01*
Y849278D01*
X759239Y850765D01*
X759043Y851058D01*
X759074Y851090D01*
X760395Y853377D01*
X761079Y855929D01*
Y858571D01*
X760395Y861123D01*
X759074Y863410D01*
X757206Y865278D01*
X754919Y866599D01*
X752367Y867283D01*
D02*
G37*
G36*
X233204Y832557D02*
X231140D01*
Y826770D01*
X236926D01*
Y828834D01*
X236643Y830258D01*
X235836Y831466D01*
X234628Y832273D01*
X233204Y832557D01*
D02*
G37*
G36*
X228600D02*
X226536D01*
X225112Y832273D01*
X223904Y831466D01*
X223097Y830258D01*
X222813Y828834D01*
Y826770D01*
X228600D01*
Y832557D01*
D02*
G37*
G36*
X676962Y826650D02*
X676910D01*
Y817880D01*
X685680D01*
Y817932D01*
X684996Y820485D01*
X683674Y822775D01*
X681805Y824644D01*
X679515Y825966D01*
X676962Y826650D01*
D02*
G37*
G36*
X674370D02*
X674318D01*
X671765Y825966D01*
X669475Y824644D01*
X667606Y822775D01*
X666284Y820485D01*
X665600Y817932D01*
Y817880D01*
X674370D01*
Y826650D01*
D02*
G37*
G36*
X813562Y822579D02*
X808990D01*
Y816610D01*
X813562D01*
Y822579D01*
D02*
G37*
G36*
X819658D02*
X815086D01*
Y816610D01*
X819658D01*
Y822579D01*
D02*
G37*
G36*
X803167Y867283D02*
X800525D01*
X797973Y866599D01*
X795686Y865278D01*
X793818Y863410D01*
X792497Y861123D01*
X791813Y858571D01*
Y855929D01*
X792497Y853377D01*
X793818Y851090D01*
X795686Y849222D01*
X797961Y847908D01*
Y826696D01*
X793844Y822579D01*
X787654D01*
Y813418D01*
X787645Y813374D01*
Y789780D01*
X736530D01*
Y764700D01*
X796610D01*
Y789780D01*
X795415D01*
Y808101D01*
X799338D01*
Y817085D01*
X800705Y818452D01*
X801878Y817966D01*
Y816610D01*
X806450D01*
Y822579D01*
X806164D01*
X805484Y823847D01*
X805731Y825087D01*
Y847908D01*
X808006Y849222D01*
X809874Y851090D01*
X811195Y853377D01*
X811879Y855929D01*
Y858571D01*
X811195Y861123D01*
X809874Y863410D01*
X808006Y865278D01*
X805719Y866599D01*
X803167Y867283D01*
D02*
G37*
G36*
X826770Y814070D02*
X822198D01*
Y808101D01*
X826770D01*
Y814070D01*
D02*
G37*
G36*
X819658D02*
X815086D01*
Y808101D01*
X819658D01*
Y814070D01*
D02*
G37*
G36*
X813562D02*
X808990D01*
Y808101D01*
X813562D01*
Y814070D01*
D02*
G37*
G36*
X806450D02*
X801878D01*
Y808101D01*
X806450D01*
Y814070D01*
D02*
G37*
G36*
X685680Y815340D02*
X676910D01*
Y806570D01*
X676962D01*
X679515Y807254D01*
X681805Y808576D01*
X683674Y810445D01*
X684996Y812735D01*
X685680Y815288D01*
Y815340D01*
D02*
G37*
G36*
X674370D02*
X665600D01*
Y815288D01*
X666284Y812735D01*
X667606Y810445D01*
X669475Y808576D01*
X671765Y807254D01*
X674318Y806570D01*
X674370D01*
Y815340D01*
D02*
G37*
G36*
X651562Y826650D02*
X648918D01*
X646365Y825966D01*
X644075Y824644D01*
X642206Y822775D01*
X640884Y820485D01*
X640200Y817932D01*
Y815288D01*
X640884Y812735D01*
X642206Y810445D01*
X644075Y808576D01*
X646365Y807254D01*
X648918Y806570D01*
X651562D01*
X654115Y807254D01*
X656405Y808576D01*
X658274Y810445D01*
X659596Y812735D01*
X660280Y815288D01*
Y817932D01*
X659596Y820485D01*
X658274Y822775D01*
X656405Y824644D01*
X654115Y825966D01*
X651562Y826650D01*
D02*
G37*
G36*
X373773Y804969D02*
X368553D01*
Y799049D01*
X373773D01*
Y804969D01*
D02*
G37*
G36*
X366013D02*
X360793D01*
Y799049D01*
X366013D01*
Y804969D01*
D02*
G37*
G36*
X595820Y801680D02*
X590550D01*
Y796410D01*
X595820D01*
Y801680D01*
D02*
G37*
G36*
X588010D02*
X582740D01*
Y796410D01*
X588010D01*
Y801680D01*
D02*
G37*
G36*
X399873Y831561D02*
X383293D01*
Y813481D01*
X387698D01*
Y807988D01*
X384679Y804969D01*
X377193D01*
Y794459D01*
X375923Y793933D01*
X373773Y796083D01*
Y796509D01*
X368553D01*
Y790315D01*
X370474Y788394D01*
Y787995D01*
X370227Y787400D01*
X379073D01*
X378526Y788720D01*
X378243Y789003D01*
Y790003D01*
X378724Y790589D01*
X390173D01*
Y799475D01*
X394329Y803632D01*
X395172Y804892D01*
X395467Y806379D01*
Y813481D01*
X399873D01*
Y831561D01*
D02*
G37*
G36*
X366013Y796509D02*
X360793D01*
Y790589D01*
X366013D01*
Y796509D01*
D02*
G37*
G36*
X853967Y867283D02*
X851325D01*
X848773Y866599D01*
X846486Y865278D01*
X844618Y863410D01*
X843297Y861123D01*
X842613Y858571D01*
Y855929D01*
X843297Y853377D01*
X844618Y851090D01*
X846486Y849222D01*
X848773Y847901D01*
X851325Y847217D01*
X853967D01*
X856505Y847897D01*
X888995Y815407D01*
Y789780D01*
X853215D01*
X852840Y789855D01*
X837955D01*
Y798847D01*
X837767Y799792D01*
Y808101D01*
X840994D01*
Y822579D01*
X834804D01*
X831131Y826252D01*
Y847908D01*
X833406Y849222D01*
X835274Y851090D01*
X836595Y853377D01*
X837279Y855929D01*
Y858571D01*
X836595Y861123D01*
X835274Y863410D01*
X833406Y865278D01*
X831119Y866599D01*
X828567Y867283D01*
X825925D01*
X823373Y866599D01*
X821086Y865278D01*
X819218Y863410D01*
X817897Y861123D01*
X817213Y858571D01*
Y855929D01*
X817897Y853377D01*
X819218Y851090D01*
X821086Y849222D01*
X823361Y847908D01*
Y824643D01*
X823519Y823849D01*
X822632Y822579D01*
X822198D01*
Y816610D01*
X826770D01*
Y817966D01*
X827943Y818452D01*
X829310Y817085D01*
Y808101D01*
X829997D01*
Y799035D01*
X830185Y798089D01*
Y785970D01*
X830481Y784483D01*
X831323Y783223D01*
X831530Y783085D01*
Y764700D01*
X888995D01*
Y679787D01*
X888861Y679586D01*
X888565Y678099D01*
Y571620D01*
X882910D01*
Y545540D01*
X888565D01*
Y480620D01*
X882910D01*
Y454540D01*
X901990D01*
Y480620D01*
X896335D01*
Y545540D01*
X901990D01*
Y571620D01*
X896335D01*
Y676842D01*
X896469Y677042D01*
X896765Y678529D01*
Y817016D01*
X896469Y818503D01*
X895627Y819763D01*
X861999Y853391D01*
X862679Y855929D01*
Y858571D01*
X861995Y861123D01*
X860674Y863410D01*
X858806Y865278D01*
X856519Y866599D01*
X853967Y867283D01*
D02*
G37*
G36*
X595820Y793870D02*
X590550D01*
Y788600D01*
X595820D01*
Y793870D01*
D02*
G37*
G36*
X588010D02*
X582740D01*
Y788600D01*
X588010D01*
Y793870D01*
D02*
G37*
G36*
X132080Y804801D02*
Y783590D01*
X143458D01*
Y792320D01*
X143027Y795594D01*
X141764Y798644D01*
X139754Y801264D01*
X137134Y803274D01*
X134084Y804537D01*
X132080Y804801D01*
D02*
G37*
G36*
X129540D02*
X127536Y804537D01*
X124486Y803274D01*
X121866Y801264D01*
X119856Y798644D01*
X118593Y795594D01*
X118162Y792320D01*
Y783590D01*
X129540D01*
Y804801D01*
D02*
G37*
G36*
X1126230Y795140D02*
X1117960D01*
Y783370D01*
X1126230D01*
Y795140D01*
D02*
G37*
G36*
X1047490D02*
X1039220D01*
Y783370D01*
X1047490D01*
Y795140D01*
D02*
G37*
G36*
X1115420D02*
X1107150D01*
Y783370D01*
X1115420D01*
Y795140D01*
D02*
G37*
G36*
X1036680D02*
X1028410D01*
Y783370D01*
X1036680D01*
Y795140D01*
D02*
G37*
G36*
X379073Y784860D02*
X375920D01*
Y781707D01*
X377240Y782254D01*
X378526Y783540D01*
X379073Y784860D01*
D02*
G37*
G36*
X373380D02*
X370227D01*
X370774Y783540D01*
X372060Y782254D01*
X373380Y781707D01*
Y784860D01*
D02*
G37*
G36*
X651562Y801250D02*
X648918D01*
X646365Y800566D01*
X644075Y799244D01*
X642206Y797375D01*
X640884Y795085D01*
X640200Y792532D01*
Y789888D01*
X640884Y787335D01*
X642206Y785045D01*
X644075Y783176D01*
X646365Y781854D01*
X648918Y781170D01*
X651562D01*
X654115Y781854D01*
X656405Y783176D01*
X658274Y785045D01*
X659596Y787335D01*
X660280Y789888D01*
Y792532D01*
X659596Y795085D01*
X658274Y797375D01*
X656405Y799244D01*
X654115Y800566D01*
X651562Y801250D01*
D02*
G37*
G36*
X634880D02*
X614800D01*
Y781170D01*
X634880D01*
Y801250D01*
D02*
G37*
G36*
X350572Y976510D02*
X347928D01*
X345375Y975826D01*
X343085Y974504D01*
X341216Y972635D01*
X339894Y970345D01*
X339210Y967792D01*
Y965148D01*
X339894Y962595D01*
X341216Y960305D01*
X343085Y958436D01*
X345375Y957114D01*
X347928Y956430D01*
X350572D01*
X353125Y957114D01*
X353922Y957574D01*
X407595Y903901D01*
Y778849D01*
X402251Y773505D01*
X277199D01*
X272845Y777859D01*
Y792670D01*
X272770Y793045D01*
Y803640D01*
X252875D01*
X252500Y803715D01*
X241909D01*
X236926Y808697D01*
Y813594D01*
X236643Y815018D01*
X235836Y816226D01*
X234628Y817033D01*
X233626Y817233D01*
Y818527D01*
X234628Y818727D01*
X235836Y819534D01*
X236643Y820742D01*
X236926Y822166D01*
Y824230D01*
X229870D01*
X222813D01*
Y822166D01*
X223097Y820742D01*
X223904Y819534D01*
X225112Y818727D01*
X226114Y818527D01*
Y817233D01*
X225112Y817033D01*
X223904Y816226D01*
X223097Y815018D01*
X222923Y814145D01*
X220085D01*
X218598Y813849D01*
X217338Y813007D01*
X203011Y798680D01*
X201736D01*
X199754Y801264D01*
X197134Y803274D01*
X194084Y804537D01*
X190810Y804968D01*
X187536Y804537D01*
X184486Y803274D01*
X181866Y801264D01*
X179856Y798644D01*
X178593Y795594D01*
X178162Y792320D01*
Y772320D01*
X178593Y769046D01*
X179856Y765996D01*
X181866Y763376D01*
X184486Y761366D01*
X187536Y760103D01*
X190810Y759672D01*
X194084Y760103D01*
X197134Y761366D01*
X199754Y763376D01*
X201764Y765996D01*
X203027Y769046D01*
X203458Y772320D01*
Y790910D01*
X204620D01*
X206107Y791206D01*
X207367Y792048D01*
X221694Y806375D01*
X222923D01*
X223097Y805502D01*
X223904Y804294D01*
X225112Y803487D01*
X226536Y803204D01*
X231433D01*
X237553Y797083D01*
X238813Y796241D01*
X239390Y796126D01*
Y788860D01*
X265075D01*
Y776250D01*
X265371Y774763D01*
X266213Y773503D01*
X272843Y766873D01*
X274103Y766031D01*
X275590Y765735D01*
X403860D01*
X405347Y766031D01*
X406607Y766873D01*
X414227Y774493D01*
X415069Y775753D01*
X415365Y777240D01*
Y905510D01*
X415069Y906997D01*
X414227Y908257D01*
X358877Y963607D01*
X359290Y965148D01*
Y967792D01*
X358606Y970345D01*
X357284Y972635D01*
X355415Y974504D01*
X353125Y975826D01*
X350572Y976510D01*
D02*
G37*
G36*
X1126230Y780830D02*
X1117960D01*
Y769060D01*
X1126230D01*
Y780830D01*
D02*
G37*
G36*
X1115420D02*
X1107150D01*
Y769060D01*
X1115420D01*
Y780830D01*
D02*
G37*
G36*
X1047490D02*
X1039220D01*
Y769060D01*
X1047490D01*
Y780830D01*
D02*
G37*
G36*
X1036680D02*
X1028410D01*
Y769060D01*
X1036680D01*
Y780830D01*
D02*
G37*
G36*
X143458Y781050D02*
X132080D01*
Y759839D01*
X134084Y760103D01*
X137134Y761366D01*
X139754Y763376D01*
X141764Y765996D01*
X143027Y769046D01*
X143458Y772320D01*
Y781050D01*
D02*
G37*
G36*
X129540D02*
X118162D01*
Y772320D01*
X118593Y769046D01*
X119856Y765996D01*
X121866Y763376D01*
X124486Y761366D01*
X127536Y760103D01*
X129540Y759839D01*
Y781050D01*
D02*
G37*
G36*
X650310Y745680D02*
X645040D01*
Y740410D01*
X650310D01*
Y745680D01*
D02*
G37*
G36*
X642500D02*
X637230D01*
Y740410D01*
X642500D01*
Y745680D01*
D02*
G37*
G36*
X177560Y748733D02*
X167080D01*
Y735590D01*
X191806D01*
X191482Y738050D01*
X190042Y741527D01*
X187752Y744512D01*
X184767Y746802D01*
X181290Y748242D01*
X177560Y748733D01*
D02*
G37*
G36*
X164540D02*
X154060D01*
X150330Y748242D01*
X146853Y746802D01*
X143868Y744512D01*
X141578Y741527D01*
X140138Y738050D01*
X139814Y735590D01*
X164540D01*
Y748733D01*
D02*
G37*
G36*
X650310Y737870D02*
X645040D01*
Y732600D01*
X650310D01*
Y737870D01*
D02*
G37*
G36*
X642500D02*
X637230D01*
Y732600D01*
X642500D01*
Y737870D01*
D02*
G37*
G36*
X191806Y733050D02*
X167080D01*
Y719907D01*
X177560D01*
X181290Y720398D01*
X184767Y721838D01*
X187752Y724128D01*
X190042Y727113D01*
X191482Y730590D01*
X191806Y733050D01*
D02*
G37*
G36*
X164540D02*
X139814D01*
X140138Y730590D01*
X141578Y727113D01*
X143868Y724128D01*
X146853Y721838D01*
X150330Y720398D01*
X154060Y719907D01*
X164540D01*
Y733050D01*
D02*
G37*
G36*
X659010Y711080D02*
X650240D01*
Y702310D01*
X659010D01*
Y711080D01*
D02*
G37*
G36*
X714221Y718820D02*
X713740D01*
Y702310D01*
X730250D01*
Y702791D01*
X729567Y706226D01*
X728226Y709462D01*
X726281Y712374D01*
X723804Y714851D01*
X720892Y716796D01*
X717656Y718137D01*
X714221Y718820D01*
D02*
G37*
G36*
X711200D02*
X710719D01*
X707284Y718137D01*
X704048Y716796D01*
X701136Y714851D01*
X698659Y712374D01*
X696714Y709462D01*
X695373Y706226D01*
X694690Y702791D01*
Y702310D01*
X711200D01*
Y718820D01*
D02*
G37*
G36*
X409421D02*
X408940D01*
Y702310D01*
X425450D01*
Y702791D01*
X424767Y706226D01*
X423426Y709462D01*
X421481Y712374D01*
X419004Y714851D01*
X416092Y716796D01*
X412856Y718137D01*
X409421Y718820D01*
D02*
G37*
G36*
X406400D02*
X405919D01*
X402484Y718137D01*
X399248Y716796D01*
X396336Y714851D01*
X393859Y712374D01*
X391914Y709462D01*
X390573Y706226D01*
X389890Y702791D01*
Y702310D01*
X406400D01*
Y718820D01*
D02*
G37*
G36*
X647700Y711080D02*
X638930D01*
Y702310D01*
X647700D01*
Y711080D01*
D02*
G37*
G36*
X1126230Y704140D02*
X1117960D01*
Y692370D01*
X1126230D01*
Y704140D01*
D02*
G37*
G36*
X1047490D02*
X1039220D01*
Y692370D01*
X1047490D01*
Y704140D01*
D02*
G37*
G36*
X1115420D02*
X1107150D01*
Y692370D01*
X1115420D01*
Y704140D01*
D02*
G37*
G36*
X1036680D02*
X1028410D01*
Y692370D01*
X1036680D01*
Y704140D01*
D02*
G37*
G36*
X659010Y699770D02*
X650240D01*
Y691000D01*
X659010D01*
Y699770D01*
D02*
G37*
G36*
X647700D02*
X638930D01*
Y691000D01*
X647700D01*
Y699770D01*
D02*
G37*
G36*
X635310Y745680D02*
X622230D01*
Y732600D01*
X624885D01*
Y711221D01*
X624745Y711080D01*
X622248D01*
X619695Y710396D01*
X617405Y709074D01*
X615536Y707205D01*
X614214Y704915D01*
X613530Y702362D01*
Y699718D01*
X614214Y697165D01*
X615536Y694875D01*
X617405Y693006D01*
X619695Y691684D01*
X622248Y691000D01*
X624892D01*
X627445Y691684D01*
X629735Y693006D01*
X631604Y694875D01*
X632926Y697165D01*
X633610Y699718D01*
Y702362D01*
X632926Y704915D01*
X631669Y707092D01*
X632359Y708125D01*
X632655Y709612D01*
Y732600D01*
X635310D01*
Y745680D01*
D02*
G37*
G36*
X599492Y711080D02*
X596848D01*
X594295Y710396D01*
X592005Y709074D01*
X590136Y707205D01*
X588814Y704915D01*
X588130Y702362D01*
Y699718D01*
X588814Y697165D01*
X590136Y694875D01*
X592005Y693006D01*
X594295Y691684D01*
X596848Y691000D01*
X599492D01*
X602045Y691684D01*
X604335Y693006D01*
X606204Y694875D01*
X607526Y697165D01*
X608210Y699718D01*
Y702362D01*
X607526Y704915D01*
X606204Y707205D01*
X604335Y709074D01*
X602045Y710396D01*
X599492Y711080D01*
D02*
G37*
G36*
X497892D02*
X495248D01*
X492695Y710396D01*
X490405Y709074D01*
X488536Y707205D01*
X487214Y704915D01*
X486530Y702362D01*
Y699718D01*
X487214Y697165D01*
X488536Y694875D01*
X490405Y693006D01*
X492695Y691684D01*
X495248Y691000D01*
X497892D01*
X500445Y691684D01*
X502735Y693006D01*
X504604Y694875D01*
X505926Y697165D01*
X506610Y699718D01*
Y702362D01*
X505926Y704915D01*
X504604Y707205D01*
X502735Y709074D01*
X500445Y710396D01*
X497892Y711080D01*
D02*
G37*
G36*
X472492D02*
X469848D01*
X467295Y710396D01*
X465005Y709074D01*
X463136Y707205D01*
X461814Y704915D01*
X461130Y702362D01*
Y699718D01*
X461814Y697165D01*
X463136Y694875D01*
X465005Y693006D01*
X467295Y691684D01*
X469848Y691000D01*
X472492D01*
X475045Y691684D01*
X477335Y693006D01*
X479204Y694875D01*
X480526Y697165D01*
X481210Y699718D01*
Y702362D01*
X480526Y704915D01*
X479204Y707205D01*
X477335Y709074D01*
X475045Y710396D01*
X472492Y711080D01*
D02*
G37*
G36*
X730250Y699770D02*
X713740D01*
Y683260D01*
X714221D01*
X717656Y683943D01*
X720892Y685284D01*
X723804Y687229D01*
X726281Y689706D01*
X728226Y692618D01*
X729567Y695854D01*
X730250Y699289D01*
Y699770D01*
D02*
G37*
G36*
X711200D02*
X694690D01*
Y699289D01*
X695373Y695854D01*
X696714Y692618D01*
X698659Y689706D01*
X701136Y687229D01*
X704048Y685284D01*
X707284Y683943D01*
X710719Y683260D01*
X711200D01*
Y699770D01*
D02*
G37*
G36*
X425450D02*
X408940D01*
Y683260D01*
X409421D01*
X412856Y683943D01*
X416092Y685284D01*
X419004Y687229D01*
X421481Y689706D01*
X423426Y692618D01*
X424767Y695854D01*
X425450Y699289D01*
Y699770D01*
D02*
G37*
G36*
X406400D02*
X389890D01*
Y699289D01*
X390573Y695854D01*
X391914Y692618D01*
X393859Y689706D01*
X396336Y687229D01*
X399248Y685284D01*
X402484Y683943D01*
X405919Y683260D01*
X406400D01*
Y699770D01*
D02*
G37*
G36*
X650767Y1019683D02*
X648125D01*
X645574Y1018999D01*
X643286Y1017678D01*
X641418Y1015810D01*
X640097Y1013523D01*
X639413Y1010971D01*
Y1008329D01*
X640097Y1005777D01*
X641418Y1003490D01*
X643286Y1001622D01*
X645574Y1000301D01*
X648125Y999617D01*
X650767D01*
X653305Y1000297D01*
X670829Y982773D01*
X672089Y981931D01*
X673576Y981635D01*
X1143931D01*
X1157805Y967761D01*
Y795140D01*
X1152150D01*
Y769060D01*
X1157805D01*
Y704140D01*
X1152150D01*
Y678060D01*
X1171230D01*
Y704140D01*
X1165575D01*
Y769060D01*
X1171230D01*
Y795140D01*
X1165575D01*
Y969370D01*
X1165279Y970857D01*
X1164437Y972117D01*
X1148287Y988267D01*
X1147027Y989109D01*
X1145540Y989405D01*
X675185D01*
X658799Y1005791D01*
X659479Y1008329D01*
Y1010971D01*
X658795Y1013523D01*
X657474Y1015810D01*
X655606Y1017678D01*
X653319Y1018999D01*
X650767Y1019683D01*
D02*
G37*
G36*
X1126230Y689830D02*
X1117960D01*
Y678060D01*
X1126230D01*
Y689830D01*
D02*
G37*
G36*
X1115420D02*
X1107150D01*
Y678060D01*
X1115420D01*
Y689830D01*
D02*
G37*
G36*
X955567Y867283D02*
X952925D01*
X950374Y866599D01*
X948086Y865278D01*
X946218Y863410D01*
X944897Y861123D01*
X944213Y858571D01*
Y855929D01*
X944897Y853377D01*
X946218Y851090D01*
X948086Y849222D01*
X950374Y847901D01*
X952925Y847217D01*
X955567D01*
X958105Y847897D01*
X990265Y815737D01*
X991525Y814895D01*
X993012Y814600D01*
X1048077D01*
X1073410Y789266D01*
Y769060D01*
X1079065D01*
Y704140D01*
X1073410D01*
Y678060D01*
X1092490D01*
Y704140D01*
X1086835D01*
Y769060D01*
X1092490D01*
Y795140D01*
X1078524D01*
X1052433Y821231D01*
X1051172Y822073D01*
X1049686Y822369D01*
X994621D01*
X963599Y853391D01*
X964279Y855929D01*
Y858571D01*
X963595Y861123D01*
X962274Y863410D01*
X960406Y865278D01*
X958119Y866599D01*
X955567Y867283D01*
D02*
G37*
G36*
X1047490Y689830D02*
X1039220D01*
Y678060D01*
X1047490D01*
Y689830D01*
D02*
G37*
G36*
X1036680D02*
X1028410D01*
Y678060D01*
X1036680D01*
Y689830D01*
D02*
G37*
G36*
X950335Y661790D02*
X942065D01*
Y650020D01*
X950335D01*
Y661790D01*
D02*
G37*
G36*
X939525D02*
X931255D01*
Y650020D01*
X939525D01*
Y661790D01*
D02*
G37*
G36*
X676962Y801250D02*
X674318D01*
X671765Y800566D01*
X669475Y799244D01*
X667606Y797375D01*
X666284Y795085D01*
X665600Y792532D01*
Y789888D01*
X666284Y787335D01*
X667606Y785045D01*
X669475Y783176D01*
X671755Y781860D01*
Y681059D01*
X626821Y636125D01*
X258100D01*
Y645280D01*
X239020D01*
Y619200D01*
X244675D01*
Y554280D01*
X239020D01*
Y528200D01*
X258100D01*
Y554280D01*
X252445D01*
Y619200D01*
X258100D01*
Y628355D01*
X628430D01*
X629917Y628651D01*
X631177Y629493D01*
X678387Y676703D01*
X679229Y677963D01*
X679525Y679450D01*
Y781860D01*
X681805Y783176D01*
X683674Y785045D01*
X684996Y787335D01*
X685680Y789888D01*
Y792532D01*
X684996Y795085D01*
X683674Y797375D01*
X681805Y799244D01*
X679515Y800566D01*
X676962Y801250D01*
D02*
G37*
G36*
X950335Y647480D02*
X942065D01*
Y635710D01*
X950335D01*
Y647480D01*
D02*
G37*
G36*
X939525D02*
X931255D01*
Y635710D01*
X939525D01*
Y647480D01*
D02*
G37*
G36*
X213100Y645280D02*
X204830D01*
Y633510D01*
X213100D01*
Y645280D01*
D02*
G37*
G36*
X202290D02*
X194020D01*
Y633510D01*
X202290D01*
Y645280D01*
D02*
G37*
G36*
X213100Y630970D02*
X204830D01*
Y619200D01*
X213100D01*
Y630970D01*
D02*
G37*
G36*
X202290D02*
X194020D01*
Y619200D01*
X202290D01*
Y630970D01*
D02*
G37*
G36*
X1043680Y571620D02*
X1035410D01*
Y559850D01*
X1043680D01*
Y571620D01*
D02*
G37*
G36*
X856990D02*
X848720D01*
Y559850D01*
X856990D01*
Y571620D01*
D02*
G37*
G36*
X1032870D02*
X1024600D01*
Y559850D01*
X1032870D01*
Y571620D01*
D02*
G37*
G36*
X846180D02*
X837910D01*
Y559850D01*
X846180D01*
Y571620D01*
D02*
G37*
G36*
X950335Y570790D02*
X942065D01*
Y559020D01*
X950335D01*
Y570790D01*
D02*
G37*
G36*
X939525D02*
X931255D01*
Y559020D01*
X939525D01*
Y570790D01*
D02*
G37*
G36*
X1043680Y557310D02*
X1035410D01*
Y545540D01*
X1043680D01*
Y557310D01*
D02*
G37*
G36*
X1032870D02*
X1024600D01*
Y545540D01*
X1032870D01*
Y557310D01*
D02*
G37*
G36*
X856990D02*
X848720D01*
Y545540D01*
X856990D01*
Y557310D01*
D02*
G37*
G36*
X846180D02*
X837910D01*
Y545540D01*
X846180D01*
Y557310D01*
D02*
G37*
G36*
X904767Y867283D02*
X902125D01*
X899574Y866599D01*
X897286Y865278D01*
X895418Y863410D01*
X894097Y861123D01*
X893413Y858571D01*
Y855929D01*
X894097Y853377D01*
X895418Y851090D01*
X897286Y849222D01*
X899574Y847901D01*
X902125Y847217D01*
X904767D01*
X907305Y847897D01*
X938455Y816747D01*
Y695705D01*
X938751Y694218D01*
X939593Y692958D01*
X976255Y656296D01*
Y635710D01*
X981910D01*
Y570790D01*
X976255D01*
Y544710D01*
X995335D01*
Y570790D01*
X989680D01*
Y635710D01*
X995335D01*
Y661790D01*
X981749D01*
X946225Y697314D01*
Y818356D01*
X945929Y819843D01*
X945087Y821103D01*
X912799Y853391D01*
X913479Y855929D01*
Y858571D01*
X912795Y861123D01*
X911474Y863410D01*
X909606Y865278D01*
X907319Y866599D01*
X904767Y867283D01*
D02*
G37*
G36*
X950335Y556480D02*
X942065D01*
Y544710D01*
X950335D01*
Y556480D01*
D02*
G37*
G36*
X939525D02*
X931255D01*
Y544710D01*
X939525D01*
Y556480D01*
D02*
G37*
G36*
X213100Y554280D02*
X204830D01*
Y542510D01*
X213100D01*
Y554280D01*
D02*
G37*
G36*
X202290D02*
X194020D01*
Y542510D01*
X202290D01*
Y554280D01*
D02*
G37*
G36*
X213100Y539970D02*
X204830D01*
Y528200D01*
X213100D01*
Y539970D01*
D02*
G37*
G36*
X202290D02*
X194020D01*
Y528200D01*
X202290D01*
Y539970D01*
D02*
G37*
G36*
X1256340Y498030D02*
X1251070D01*
Y492760D01*
X1256340D01*
Y498030D01*
D02*
G37*
G36*
Y490220D02*
X1251070D01*
Y484950D01*
X1256340D01*
Y490220D01*
D02*
G37*
G36*
X1248530Y498030D02*
X1243260D01*
Y495361D01*
X1241843Y495079D01*
X1240583Y494237D01*
X1223746Y477400D01*
X1220470D01*
Y468630D01*
X1229240D01*
Y471906D01*
X1242570Y485236D01*
X1243260Y484950D01*
Y484950D01*
X1248530D01*
Y491490D01*
Y498030D01*
D02*
G37*
G36*
X1043680Y480620D02*
X1035410D01*
Y468850D01*
X1043680D01*
Y480620D01*
D02*
G37*
G36*
X856990D02*
X848720D01*
Y468850D01*
X856990D01*
Y480620D01*
D02*
G37*
G36*
X1032870D02*
X1024600D01*
Y468850D01*
X1032870D01*
Y480620D01*
D02*
G37*
G36*
X846180D02*
X837910D01*
Y468850D01*
X846180D01*
Y480620D01*
D02*
G37*
G36*
X1217930Y477400D02*
X1209160D01*
Y468630D01*
X1217930D01*
Y477400D01*
D02*
G37*
G36*
X950335Y472560D02*
X942065D01*
Y460790D01*
X950335D01*
Y472560D01*
D02*
G37*
G36*
X939525D02*
X931255D01*
Y460790D01*
X939525D01*
Y472560D01*
D02*
G37*
G36*
X1271340Y498030D02*
X1258260D01*
Y484950D01*
X1271340D01*
Y484950D01*
X1272030Y485236D01*
X1286041Y471225D01*
X1285360Y468682D01*
Y466038D01*
X1286044Y463485D01*
X1287366Y461195D01*
X1289235Y459326D01*
X1291525Y458004D01*
X1294078Y457320D01*
X1296722D01*
X1299275Y458004D01*
X1301565Y459326D01*
X1303434Y461195D01*
X1304756Y463485D01*
X1305440Y466038D01*
Y468682D01*
X1304756Y471235D01*
X1303434Y473525D01*
X1301565Y475394D01*
X1299275Y476716D01*
X1296722Y477400D01*
X1294078D01*
X1291535Y476719D01*
X1274017Y494237D01*
X1272757Y495079D01*
X1271340Y495361D01*
Y498030D01*
D02*
G37*
G36*
X1271322Y477400D02*
X1268678D01*
X1266125Y476716D01*
X1263835Y475394D01*
X1261966Y473525D01*
X1260644Y471235D01*
X1259960Y468682D01*
Y466038D01*
X1260644Y463485D01*
X1261966Y461195D01*
X1263835Y459326D01*
X1266125Y458004D01*
X1268678Y457320D01*
X1271322D01*
X1273875Y458004D01*
X1276165Y459326D01*
X1278034Y461195D01*
X1279356Y463485D01*
X1280040Y466038D01*
Y468682D01*
X1279356Y471235D01*
X1278034Y473525D01*
X1276165Y475394D01*
X1273875Y476716D01*
X1271322Y477400D01*
D02*
G37*
G36*
X1245922D02*
X1243278D01*
X1240725Y476716D01*
X1238435Y475394D01*
X1236566Y473525D01*
X1235244Y471235D01*
X1234560Y468682D01*
Y466038D01*
X1235244Y463485D01*
X1236566Y461195D01*
X1238435Y459326D01*
X1240725Y458004D01*
X1243278Y457320D01*
X1245922D01*
X1248475Y458004D01*
X1250765Y459326D01*
X1252634Y461195D01*
X1253956Y463485D01*
X1254640Y466038D01*
Y468682D01*
X1253956Y471235D01*
X1252634Y473525D01*
X1250765Y475394D01*
X1248475Y476716D01*
X1245922Y477400D01*
D02*
G37*
G36*
X1229240Y466090D02*
X1220470D01*
Y457320D01*
X1229240D01*
Y466090D01*
D02*
G37*
G36*
X1217930D02*
X1209160D01*
Y457320D01*
X1217930D01*
Y466090D01*
D02*
G37*
G36*
X930167Y867283D02*
X927525D01*
X924974Y866599D01*
X922686Y865278D01*
X920818Y863410D01*
X919497Y861123D01*
X918813Y858571D01*
Y855929D01*
X919497Y853377D01*
X920818Y851090D01*
X922686Y849222D01*
X924974Y847901D01*
X927525Y847217D01*
X930167D01*
X932705Y847897D01*
X965125Y815477D01*
Y713740D01*
X965421Y712253D01*
X966263Y710993D01*
X1075255Y602001D01*
Y571620D01*
X1069600D01*
Y545540D01*
X1075255D01*
Y480620D01*
X1069600D01*
Y454540D01*
X1088680D01*
Y480620D01*
X1083025D01*
Y545540D01*
X1088680D01*
Y571620D01*
X1083025D01*
Y603610D01*
X1082729Y605097D01*
X1081887Y606357D01*
X972895Y715349D01*
Y817086D01*
X972599Y818573D01*
X971757Y819833D01*
X938199Y853391D01*
X938879Y855929D01*
Y858571D01*
X938195Y861123D01*
X936874Y863410D01*
X935006Y865278D01*
X932719Y866599D01*
X930167Y867283D01*
D02*
G37*
G36*
X1043680Y466310D02*
X1035410D01*
Y454540D01*
X1043680D01*
Y466310D01*
D02*
G37*
G36*
X1032870D02*
X1024600D01*
Y454540D01*
X1032870D01*
Y466310D01*
D02*
G37*
G36*
X856990D02*
X848720D01*
Y454540D01*
X856990D01*
Y466310D01*
D02*
G37*
G36*
X846180D02*
X837910D01*
Y454540D01*
X846180D01*
Y466310D01*
D02*
G37*
G36*
X950335Y458250D02*
X942065D01*
Y446480D01*
X950335D01*
Y458250D01*
D02*
G37*
G36*
X939525D02*
X931255D01*
Y446480D01*
X939525D01*
Y458250D01*
D02*
G37*
G36*
X950335Y381560D02*
X942065D01*
Y369790D01*
X950335D01*
Y381560D01*
D02*
G37*
G36*
X939525D02*
X931255D01*
Y369790D01*
X939525D01*
Y381560D01*
D02*
G37*
G36*
X879367Y867283D02*
X876725D01*
X874174Y866599D01*
X871886Y865278D01*
X870018Y863410D01*
X868697Y861123D01*
X868013Y858571D01*
Y855929D01*
X868697Y853377D01*
X870018Y851090D01*
X871886Y849222D01*
X874174Y847901D01*
X876725Y847217D01*
X879367D01*
X881905Y847897D01*
X913055Y816747D01*
Y531875D01*
X913351Y530388D01*
X914193Y529128D01*
X976255Y467066D01*
Y446480D01*
X981910D01*
Y381560D01*
X976255D01*
Y355480D01*
X995335D01*
Y381560D01*
X989680D01*
Y446480D01*
X995335D01*
Y472560D01*
X981749D01*
X920825Y533484D01*
Y818356D01*
X920529Y819843D01*
X919687Y821103D01*
X887399Y853391D01*
X888079Y855929D01*
Y858571D01*
X887395Y861123D01*
X886074Y863410D01*
X884206Y865278D01*
X881919Y866599D01*
X879367Y867283D01*
D02*
G37*
G36*
X950335Y367250D02*
X942065D01*
Y355480D01*
X950335D01*
Y367250D01*
D02*
G37*
G36*
X939525D02*
X931255D01*
Y355480D01*
X939525D01*
Y367250D01*
D02*
G37*
G36*
X1221702Y355600D02*
X1220470D01*
Y331470D01*
X1244600D01*
Y332702D01*
X1243624Y337609D01*
X1241709Y342231D01*
X1238930Y346392D01*
X1235392Y349930D01*
X1231231Y352709D01*
X1226609Y354624D01*
X1221702Y355600D01*
D02*
G37*
G36*
X1217930D02*
X1216698D01*
X1211791Y354624D01*
X1207169Y352709D01*
X1203008Y349930D01*
X1199471Y346392D01*
X1196691Y342231D01*
X1194776Y337609D01*
X1193800Y332702D01*
Y331470D01*
X1217930D01*
Y355600D01*
D02*
G37*
G36*
X289522D02*
X288290D01*
Y331470D01*
X312420D01*
Y332702D01*
X311444Y337609D01*
X309529Y342231D01*
X306749Y346392D01*
X303212Y349930D01*
X299051Y352709D01*
X294429Y354624D01*
X289522Y355600D01*
D02*
G37*
G36*
X285750D02*
X284518D01*
X279611Y354624D01*
X274989Y352709D01*
X270828Y349930D01*
X267290Y346392D01*
X264511Y342231D01*
X262596Y337609D01*
X261620Y332702D01*
Y331470D01*
X285750D01*
Y355600D01*
D02*
G37*
G36*
X1244600Y328930D02*
X1220470D01*
Y304800D01*
X1221702D01*
X1226609Y305776D01*
X1231231Y307691D01*
X1235392Y310471D01*
X1238930Y314008D01*
X1241709Y318169D01*
X1243624Y322791D01*
X1244600Y327698D01*
Y328930D01*
D02*
G37*
G36*
X1217930D02*
X1193800D01*
Y327698D01*
X1194776Y322791D01*
X1196691Y318169D01*
X1199471Y314008D01*
X1203008Y310471D01*
X1207169Y307691D01*
X1211791Y305776D01*
X1216698Y304800D01*
X1217930D01*
Y328930D01*
D02*
G37*
G36*
X312420D02*
X288290D01*
Y304800D01*
X289522D01*
X294429Y305776D01*
X299051Y307691D01*
X303212Y310471D01*
X306749Y314008D01*
X309529Y318169D01*
X311444Y322791D01*
X312420Y327698D01*
Y328930D01*
D02*
G37*
G36*
X285750D02*
X261620D01*
Y327698D01*
X262596Y322791D01*
X264511Y318169D01*
X267290Y314008D01*
X270828Y310471D01*
X274989Y307691D01*
X279611Y305776D01*
X284518Y304800D01*
X285750D01*
Y328930D01*
D02*
G37*
G36*
X714221Y299720D02*
X713740D01*
Y283210D01*
X730250D01*
Y283691D01*
X729567Y287126D01*
X728226Y290362D01*
X726281Y293274D01*
X723804Y295751D01*
X720892Y297696D01*
X717656Y299037D01*
X714221Y299720D01*
D02*
G37*
G36*
X711200D02*
X710719D01*
X707284Y299037D01*
X704048Y297696D01*
X701136Y295751D01*
X698659Y293274D01*
X696714Y290362D01*
X695373Y287126D01*
X694690Y283691D01*
Y283210D01*
X711200D01*
Y299720D01*
D02*
G37*
G36*
X409421D02*
X408940D01*
Y283210D01*
X425450D01*
Y283691D01*
X424767Y287126D01*
X423426Y290362D01*
X421481Y293274D01*
X419004Y295751D01*
X416092Y297696D01*
X412856Y299037D01*
X409421Y299720D01*
D02*
G37*
G36*
X406400D02*
X405919D01*
X402484Y299037D01*
X399248Y297696D01*
X396336Y295751D01*
X393859Y293274D01*
X391914Y290362D01*
X390573Y287126D01*
X389890Y283691D01*
Y283210D01*
X406400D01*
Y299720D01*
D02*
G37*
G36*
X730250Y280670D02*
X713740D01*
Y264160D01*
X714221D01*
X717656Y264843D01*
X720892Y266184D01*
X723804Y268129D01*
X726281Y270606D01*
X728226Y273518D01*
X729567Y276754D01*
X730250Y280189D01*
Y280670D01*
D02*
G37*
G36*
X711200D02*
X694690D01*
Y280189D01*
X695373Y276754D01*
X696714Y273518D01*
X698659Y270606D01*
X701136Y268129D01*
X704048Y266184D01*
X707284Y264843D01*
X710719Y264160D01*
X711200D01*
Y280670D01*
D02*
G37*
G36*
X425450D02*
X408940D01*
Y264160D01*
X409421D01*
X412856Y264843D01*
X416092Y266184D01*
X419004Y268129D01*
X421481Y270606D01*
X423426Y273518D01*
X424767Y276754D01*
X425450Y280189D01*
Y280670D01*
D02*
G37*
G36*
X406400D02*
X389890D01*
Y280189D01*
X390573Y276754D01*
X391914Y273518D01*
X393859Y270606D01*
X396336Y268129D01*
X399248Y266184D01*
X402484Y264843D01*
X405919Y264160D01*
X406400D01*
Y280670D01*
D02*
G37*
%LPD*%
D14*
X1155215Y1420774D02*
G03*
X1143238Y1416050I-3626J-8350D01*
G01*
X762476Y4604D02*
G03*
X1155215Y1420774I0J762543D01*
G01*
X5683Y674158D02*
G03*
X762476Y4604I756793J92922D01*
G01*
X40564Y715533D02*
G03*
X5683Y674157I5898J-40362D01*
G01*
X40564Y715533D02*
G03*
X53340Y728980I-336J13112D01*
G01*
Y829310D02*
G03*
X43142Y841760I-11324J1126D01*
G01*
X7420Y873129D02*
G03*
X43142Y841760I35344J4225D01*
G01*
X369801Y1420600D02*
G03*
X7420Y873129I392675J-653587D01*
G01*
X381238Y1416050D02*
G03*
X369772Y1420650I-8033J-3433D01*
G01*
X381238Y1257538D02*
Y1416050D01*
Y1257538D02*
X1143238D01*
Y1416050D01*
X53340Y728980D02*
Y829310D01*
X267716Y1240097D02*
X273488Y1245870D01*
X276860D01*
X244161Y1240097D02*
X267716D01*
X615315Y810140D02*
X621785Y816610D01*
X624840D01*
X589280Y810140D02*
X615315D01*
X623570Y701040D02*
Y704412D01*
X628770Y709612D02*
Y739140D01*
X623570Y704412D02*
X628770Y709612D01*
X1131390Y913710D02*
X1131570Y913890D01*
Y937260D01*
Y959250D01*
X1131390Y959430D02*
X1131570Y959250D01*
X954920Y1046480D02*
X955040Y1046360D01*
X943610Y1046480D02*
X954920D01*
X979290D02*
X990600D01*
X979170Y1046360D02*
X979290Y1046480D01*
X979646Y1009650D02*
Y1030884D01*
X979170Y1031360D02*
X979646Y1030884D01*
X954246Y1030566D02*
X955040Y1031360D01*
X954246Y1009650D02*
Y1030566D01*
X1161690Y691100D02*
Y782100D01*
X1082950Y691100D02*
Y782100D01*
X985795Y557750D02*
Y648750D01*
X892450Y467580D02*
Y558580D01*
X1079140Y467580D02*
Y558580D01*
X985795Y368520D02*
Y459520D01*
X248560Y541240D02*
Y632240D01*
X628430D02*
X675640Y679450D01*
Y791210D01*
X248560Y632240D02*
X628430D01*
X323850Y915670D02*
Y966470D01*
X274320Y866140D02*
X323850Y915670D01*
X374358Y786422D02*
Y790003D01*
Y786422D02*
X374650Y786130D01*
X367283Y797079D02*
Y797779D01*
Y797079D02*
X374358Y790003D01*
X1243330Y491490D02*
X1249800D01*
X1219200Y467360D02*
X1243330Y491490D01*
X1271270D02*
X1295400Y467360D01*
X1264800Y491490D02*
X1271270D01*
X551824Y1122174D02*
X556100D01*
X532010Y1102360D02*
X551824Y1122174D01*
X556100D02*
X561256Y1127330D01*
X492040D02*
X517010Y1102360D01*
X491256Y1127330D02*
X492040D01*
X726990D02*
X753230Y1101090D01*
X726651Y1127330D02*
X726990D01*
X788600Y1121460D02*
X790781D01*
X768230Y1101090D02*
X788600Y1121460D01*
X790781D02*
X796651Y1127330D01*
X962426Y1126844D02*
Y1127330D01*
Y1126844D02*
X989450Y1099820D01*
X1026556Y1121460D02*
X1032426Y1127330D01*
X1004450Y1099820D02*
X1026090Y1121460D01*
X1026556D01*
X204620Y794795D02*
X220085Y810260D01*
X198876Y794795D02*
X204620D01*
X220085Y810260D02*
X229870D01*
X240300Y799830D01*
X268960Y776250D02*
Y792670D01*
X240300Y799830D02*
X252500D01*
X772040Y1017424D02*
Y1029970D01*
Y1017424D02*
X776446Y1013018D01*
Y1009650D02*
Y1013018D01*
X757040Y1019012D02*
Y1029970D01*
X751046Y1013018D02*
X757040Y1019012D01*
X751046Y1009650D02*
Y1013018D01*
X770650Y848086D02*
X776446Y853882D01*
X770650Y836930D02*
Y848086D01*
X776446Y853882D02*
Y857250D01*
X751046Y853882D02*
X755650Y849278D01*
Y836930D02*
Y849278D01*
X751046Y853882D02*
Y857250D01*
X252500Y799830D02*
X256080Y796250D01*
X190810Y782320D02*
Y786730D01*
X198876Y794795D01*
X350520Y966470D02*
X411480Y905510D01*
X349250Y966470D02*
X350520D01*
X411480Y777240D02*
Y905510D01*
X403860Y769620D02*
X411480Y777240D01*
X275590Y769620D02*
X403860D01*
X268960Y776250D02*
X275590Y769620D01*
X256080Y796250D02*
X265380D01*
X268960Y792670D01*
X277495Y861935D02*
Y862965D01*
X320280Y819150D02*
X322580D01*
X277495Y861935D02*
X320280Y819150D01*
X274320Y866140D02*
X277495Y862965D01*
X365711Y819150D02*
X369083Y822521D01*
X322580Y819150D02*
X365711D01*
X383683Y797779D02*
Y798479D01*
X391583Y806379D02*
Y822521D01*
X383683Y798479D02*
X391583Y806379D01*
X1082950Y782100D02*
Y785600D01*
X1076840Y791330D02*
X1077220D01*
X1049686Y818484D02*
X1076840Y791330D01*
X993012Y818484D02*
X1049686D01*
X1077220Y791330D02*
X1082950Y785600D01*
X878046Y857250D02*
X916940Y818356D01*
Y531875D02*
Y818356D01*
Y531875D02*
X985795Y463020D01*
X969010Y713740D02*
X1079140Y603610D01*
X928846Y857250D02*
X969010Y817086D01*
Y713740D02*
Y817086D01*
X1079140Y558580D02*
Y603610D01*
X903446Y857250D02*
X942340Y818356D01*
Y695705D02*
X985795Y652250D01*
X942340Y695705D02*
Y818356D01*
X1161690Y782100D02*
Y969370D01*
X1145540Y985520D02*
X1161690Y969370D01*
X649446Y1009650D02*
X673576Y985520D01*
X1145540D01*
X1083310Y957580D02*
X1107040D01*
X1108890Y959430D01*
X1082620Y911860D02*
X1107040D01*
X1108890Y913710D01*
X1063540Y908480D02*
X1066220Y911160D01*
Y911860D01*
X1005046Y857250D02*
X1056276Y908480D01*
X1063540D01*
X1066910Y956880D02*
Y957580D01*
X979646Y857250D02*
Y869616D01*
X1066910Y956880D01*
X954246Y857250D02*
X993012Y818484D01*
X985795Y648750D02*
Y652250D01*
Y459520D02*
Y463020D01*
X892880Y678529D02*
Y817016D01*
X852646Y857250D02*
X892880Y817016D01*
X892450Y558580D02*
Y678099D01*
X892880Y678529D01*
X827246Y824643D02*
X835152Y816737D01*
X827246Y824643D02*
Y857250D01*
X835152Y815340D02*
Y816737D01*
X793496D02*
X801846Y825087D01*
Y857250D01*
X793496Y815340D02*
Y816737D01*
X833882Y799035D02*
Y814070D01*
X834070Y785970D02*
X852840D01*
X861570Y777240D01*
X833882Y814070D02*
X835152Y815340D01*
X833882Y799035D02*
X834070Y798847D01*
Y785970D02*
Y798847D01*
X791530Y785970D02*
Y813374D01*
X793496Y815340D01*
X782800Y777240D02*
X791530Y785970D01*
X766570Y777240D02*
X782800D01*
X521970Y701040D02*
Y808990D01*
X570230Y857250D01*
X573246D01*
X547370Y808990D02*
X595630Y857250D01*
X598646D01*
X547370Y701040D02*
Y808990D01*
X595982Y834040D02*
X595982D01*
X621665Y854869D02*
X624046Y857250D01*
X616810Y854869D02*
X621665D01*
X595982Y834040D02*
X616810Y854869D01*
X572770Y810828D02*
X595982Y834040D01*
X572770Y701040D02*
Y810828D01*
X302260Y1229836D02*
X522446Y1009650D01*
X302260Y1229836D02*
Y1245870D01*
D16*
X766570Y777240D02*
D03*
X861570D02*
D03*
D17*
X793496Y815340D02*
D03*
X807720D02*
D03*
X835152D02*
D03*
X820928D02*
D03*
D18*
X589280Y810140D02*
D03*
Y795140D02*
D03*
X244161Y1255097D02*
D03*
Y1240097D02*
D03*
D19*
X1083310Y957580D02*
D03*
X1066910D02*
D03*
X1082620Y911860D02*
D03*
X1066220D02*
D03*
X367283Y797779D02*
D03*
X383683D02*
D03*
D20*
X1131390Y913710D02*
D03*
X1108890D02*
D03*
X1131390Y959430D02*
D03*
X1108890D02*
D03*
X369083Y822521D02*
D03*
X391583D02*
D03*
D21*
X1161690Y691100D02*
D03*
Y782100D02*
D03*
X1116690D02*
D03*
Y691100D02*
D03*
X940795Y368520D02*
D03*
Y459520D02*
D03*
X985795D02*
D03*
Y368520D02*
D03*
X203560Y541240D02*
D03*
Y632240D02*
D03*
X248560D02*
D03*
Y541240D02*
D03*
X985795Y557750D02*
D03*
Y648750D02*
D03*
X940795D02*
D03*
Y557750D02*
D03*
X1079140Y467580D02*
D03*
Y558580D02*
D03*
X1034140D02*
D03*
Y467580D02*
D03*
X892450D02*
D03*
Y558580D02*
D03*
X847450D02*
D03*
Y467580D02*
D03*
X1082950Y691100D02*
D03*
Y782100D02*
D03*
X1037950D02*
D03*
Y691100D02*
D03*
D22*
X1264800Y491490D02*
D03*
X1249800D02*
D03*
X989450Y1099820D02*
D03*
X1004450D02*
D03*
X753230Y1101090D02*
D03*
X768230D02*
D03*
X517010Y1102360D02*
D03*
X532010D02*
D03*
X643770Y739140D02*
D03*
X628770D02*
D03*
X757040Y1029970D02*
D03*
X772040D02*
D03*
X770650Y836930D02*
D03*
X755650D02*
D03*
D23*
X979170Y1031360D02*
D03*
Y1046360D02*
D03*
X955040Y1031360D02*
D03*
Y1046360D02*
D03*
D24*
X256080Y796250D02*
D03*
Y842050D02*
D03*
D25*
X259080Y866140D02*
D03*
X274320D02*
D03*
D26*
X229870Y825500D02*
D03*
Y810260D02*
D03*
D51*
X322580Y819150D02*
D03*
D52*
X349250Y966470D02*
D03*
X323850D02*
D03*
X298450D02*
D03*
X675640Y816610D02*
D03*
Y791210D02*
D03*
X650240Y816610D02*
D03*
Y791210D02*
D03*
X624840Y816610D02*
D03*
X1244600Y467360D02*
D03*
X1270000D02*
D03*
X1295400D02*
D03*
X276860Y1245870D02*
D03*
X302260D02*
D03*
X623570Y701040D02*
D03*
X598170D02*
D03*
X572770D02*
D03*
X547370D02*
D03*
X521970D02*
D03*
X496570D02*
D03*
X471170D02*
D03*
D53*
X273050Y966470D02*
D03*
X624840Y791210D02*
D03*
X1219200Y467360D02*
D03*
X327660Y1245870D02*
D03*
X648970Y701040D02*
D03*
D54*
X561256Y1127330D02*
D03*
X796651D02*
D03*
X1032426D02*
D03*
D55*
X536256D02*
D03*
X516256D02*
D03*
X491256D02*
D03*
X771651D02*
D03*
X751651D02*
D03*
X726651D02*
D03*
X1007426D02*
D03*
X987426D02*
D03*
X962426D02*
D03*
D56*
X591956Y1154430D02*
D03*
X460556D02*
D03*
X827351D02*
D03*
X695951D02*
D03*
X1063126D02*
D03*
X931726D02*
D03*
D57*
X522446Y1009650D02*
D03*
X547846D02*
D03*
X573246D02*
D03*
X598646D02*
D03*
X624046D02*
D03*
X649446D02*
D03*
X674846D02*
D03*
X700246D02*
D03*
X725646D02*
D03*
X751046D02*
D03*
X776446D02*
D03*
X801846D02*
D03*
X827246D02*
D03*
X852646D02*
D03*
X878046D02*
D03*
X903446D02*
D03*
X928846D02*
D03*
X954246D02*
D03*
X979646D02*
D03*
X1005046D02*
D03*
Y857250D02*
D03*
X979646D02*
D03*
X954246D02*
D03*
X928846D02*
D03*
X903446D02*
D03*
X878046D02*
D03*
X852646D02*
D03*
X827246D02*
D03*
X801846D02*
D03*
X776446D02*
D03*
X751046D02*
D03*
X725646D02*
D03*
X700246D02*
D03*
X674846D02*
D03*
X649446D02*
D03*
X624046D02*
D03*
X598646D02*
D03*
X573246D02*
D03*
X547846D02*
D03*
D58*
X522446D02*
D03*
D59*
X190810Y782320D02*
D03*
X130810D02*
D03*
D60*
X165810Y734320D02*
D03*
D61*
X1131570Y937260D02*
D03*
X990600Y1046480D02*
D03*
X943610D02*
D03*
X374650Y786130D02*
D03*
D62*
X1219200Y1154430D02*
D03*
Y330200D02*
D03*
X287020D02*
D03*
Y1154430D02*
D03*
D63*
X712470Y281940D02*
D03*
Y701040D02*
D03*
X407670D02*
D03*
Y281940D02*
D03*
M02*
