G04*
G04 #@! TF.GenerationSoftware,Altium Limited,Altium Designer,23.3.1 (30)*
G04*
G04 Layer_Color=16711935*
%FSLAX44Y44*%
%MOMM*%
G71*
G04*
G04 #@! TF.SameCoordinates,FE0AEC3E-DE84-4B78-BC97-547211959EC9*
G04*
G04*
G04 #@! TF.FilePolarity,Negative*
G04*
G01*
G75*
%ADD39C,1.7032*%
%ADD40R,1.7032X1.7032*%
%ADD41R,1.6312X1.6312*%
%ADD42C,1.6312*%
%ADD43C,3.4792*%
%ADD44C,1.7018*%
%ADD45R,1.7018X1.7018*%
%ADD46O,2.2032X4.2032*%
%ADD47O,4.9032X2.5532*%
%ADD48C,0.6096*%
%ADD49C,4.7752*%
%ADD50C,3.2512*%
D39*
X349250Y966470D02*
D03*
X323850D02*
D03*
X298450D02*
D03*
X675640Y816610D02*
D03*
Y791210D02*
D03*
X650240Y816610D02*
D03*
Y791210D02*
D03*
X624840Y816610D02*
D03*
X1244600Y467360D02*
D03*
X1270000D02*
D03*
X1295400D02*
D03*
X276860Y1245870D02*
D03*
X302260D02*
D03*
X623570Y701040D02*
D03*
X598170D02*
D03*
X572770D02*
D03*
X547370D02*
D03*
X521970D02*
D03*
X496570D02*
D03*
X471170D02*
D03*
D40*
X273050Y966470D02*
D03*
X624840Y791210D02*
D03*
X1219200Y467360D02*
D03*
X327660Y1245870D02*
D03*
X648970Y701040D02*
D03*
D41*
X561256Y1127330D02*
D03*
X796651D02*
D03*
X1032426D02*
D03*
D42*
X536256D02*
D03*
X516256D02*
D03*
X491256D02*
D03*
X771651D02*
D03*
X751651D02*
D03*
X726651D02*
D03*
X1007426D02*
D03*
X987426D02*
D03*
X962426D02*
D03*
D43*
X591956Y1154430D02*
D03*
X460556D02*
D03*
X827351D02*
D03*
X695951D02*
D03*
X1063126D02*
D03*
X931726D02*
D03*
D44*
X522446Y1009650D02*
D03*
X547846D02*
D03*
X573246D02*
D03*
X598646D02*
D03*
X624046D02*
D03*
X649446D02*
D03*
X674846D02*
D03*
X700246D02*
D03*
X725646D02*
D03*
X751046D02*
D03*
X776446D02*
D03*
X801846D02*
D03*
X827246D02*
D03*
X852646D02*
D03*
X878046D02*
D03*
X903446D02*
D03*
X928846D02*
D03*
X954246D02*
D03*
X979646D02*
D03*
X1005046D02*
D03*
Y857250D02*
D03*
X979646D02*
D03*
X954246D02*
D03*
X928846D02*
D03*
X903446D02*
D03*
X878046D02*
D03*
X852646D02*
D03*
X827246D02*
D03*
X801846D02*
D03*
X776446D02*
D03*
X751046D02*
D03*
X725646D02*
D03*
X700246D02*
D03*
X674846D02*
D03*
X649446D02*
D03*
X624046D02*
D03*
X598646D02*
D03*
X573246D02*
D03*
X547846D02*
D03*
D45*
X522446D02*
D03*
D46*
X190810Y782320D02*
D03*
X130810D02*
D03*
D47*
X165810Y734320D02*
D03*
D48*
X1131570Y937260D02*
D03*
X990600Y1046480D02*
D03*
X943610D02*
D03*
X374650Y786130D02*
D03*
D49*
X1219200Y1154430D02*
D03*
Y330200D02*
D03*
X287020D02*
D03*
Y1154430D02*
D03*
D50*
X712470Y281940D02*
D03*
Y701040D02*
D03*
X407670D02*
D03*
Y281940D02*
D03*
M02*
