G04*
G04 #@! TF.GenerationSoftware,Altium Limited,Altium Designer,23.3.1 (30)*
G04*
G04 Layer_Color=8388736*
%FSLAX44Y44*%
%MOMM*%
G71*
G04*
G04 #@! TF.SameCoordinates,FE0AEC3E-DE84-4B78-BC97-547211959EC9*
G04*
G04*
G04 #@! TF.FilePolarity,Negative*
G04*
G01*
G75*
%ADD27R,5.7032X2.2032*%
%ADD28R,0.8636X1.1430*%
%ADD29R,1.0032X1.0032*%
%ADD30R,0.9932X1.1332*%
%ADD31R,1.3532X1.5032*%
%ADD32R,1.6032X2.3032*%
%ADD33R,1.0032X1.0032*%
%ADD34R,1.1832X1.0532*%
%ADD35R,3.0332X1.1732*%
%ADD36R,6.2932X5.8332*%
G04:AMPARAMS|DCode=37|XSize=1.0922mm|YSize=1.0922mm|CornerRadius=0.2127mm|HoleSize=0mm|Usage=FLASHONLY|Rotation=0.000|XOffset=0mm|YOffset=0mm|HoleType=Round|Shape=RoundedRectangle|*
%AMROUNDEDRECTD37*
21,1,1.0922,0.6668,0,0,0.0*
21,1,0.6668,1.0922,0,0,0.0*
1,1,0.4255,0.3334,-0.3334*
1,1,0.4255,-0.3334,-0.3334*
1,1,0.4255,-0.3334,0.3334*
1,1,0.4255,0.3334,0.3334*
%
%ADD37ROUNDEDRECTD37*%
G04:AMPARAMS|DCode=38|XSize=1.0922mm|YSize=1.0922mm|CornerRadius=0.2127mm|HoleSize=0mm|Usage=FLASHONLY|Rotation=270.000|XOffset=0mm|YOffset=0mm|HoleType=Round|Shape=RoundedRectangle|*
%AMROUNDEDRECTD38*
21,1,1.0922,0.6668,0,0,270.0*
21,1,0.6668,1.0922,0,0,270.0*
1,1,0.4255,-0.3334,-0.3334*
1,1,0.4255,-0.3334,0.3334*
1,1,0.4255,0.3334,0.3334*
1,1,0.4255,0.3334,-0.3334*
%
%ADD38ROUNDEDRECTD38*%
%ADD39C,1.7032*%
%ADD40R,1.7032X1.7032*%
%ADD41R,1.6312X1.6312*%
%ADD42C,1.6312*%
%ADD43C,3.4792*%
%ADD44C,1.7018*%
%ADD45R,1.7018X1.7018*%
%ADD46O,2.2032X4.2032*%
%ADD47O,4.9032X2.5532*%
%ADD48C,0.6096*%
%ADD49C,4.7752*%
%ADD50C,3.2512*%
D27*
X766570Y777240D02*
D03*
X861570D02*
D03*
D28*
X793496Y815340D02*
D03*
X807720D02*
D03*
X835152D02*
D03*
X820928D02*
D03*
D29*
X589280Y810140D02*
D03*
Y795140D02*
D03*
X244161Y1255097D02*
D03*
Y1240097D02*
D03*
D30*
X1083310Y957580D02*
D03*
X1066910D02*
D03*
X1082620Y911860D02*
D03*
X1066220D02*
D03*
X367283Y797779D02*
D03*
X383683D02*
D03*
D31*
X1131390Y913710D02*
D03*
X1108890D02*
D03*
X1131390Y959430D02*
D03*
X1108890D02*
D03*
X369083Y822521D02*
D03*
X391583D02*
D03*
D32*
X1161690Y691100D02*
D03*
Y782100D02*
D03*
X1116690D02*
D03*
Y691100D02*
D03*
X940795Y368520D02*
D03*
Y459520D02*
D03*
X985795D02*
D03*
Y368520D02*
D03*
X203560Y541240D02*
D03*
Y632240D02*
D03*
X248560D02*
D03*
Y541240D02*
D03*
X985795Y557750D02*
D03*
Y648750D02*
D03*
X940795D02*
D03*
Y557750D02*
D03*
X1079140Y467580D02*
D03*
Y558580D02*
D03*
X1034140D02*
D03*
Y467580D02*
D03*
X892450D02*
D03*
Y558580D02*
D03*
X847450D02*
D03*
Y467580D02*
D03*
X1082950Y691100D02*
D03*
Y782100D02*
D03*
X1037950D02*
D03*
Y691100D02*
D03*
D33*
X1264800Y491490D02*
D03*
X1249800D02*
D03*
X989450Y1099820D02*
D03*
X1004450D02*
D03*
X753230Y1101090D02*
D03*
X768230D02*
D03*
X517010Y1102360D02*
D03*
X532010D02*
D03*
X643770Y739140D02*
D03*
X628770D02*
D03*
X757040Y1029970D02*
D03*
X772040D02*
D03*
X770650Y836930D02*
D03*
X755650D02*
D03*
D34*
X979170Y1031360D02*
D03*
Y1046360D02*
D03*
X955040Y1031360D02*
D03*
Y1046360D02*
D03*
D35*
X256080Y796250D02*
D03*
Y842050D02*
D03*
D36*
X322580Y819150D02*
D03*
D37*
X259080Y866140D02*
D03*
X274320D02*
D03*
D38*
X229870Y825500D02*
D03*
Y810260D02*
D03*
D39*
X349250Y966470D02*
D03*
X323850D02*
D03*
X298450D02*
D03*
X675640Y816610D02*
D03*
Y791210D02*
D03*
X650240Y816610D02*
D03*
Y791210D02*
D03*
X624840Y816610D02*
D03*
X1244600Y467360D02*
D03*
X1270000D02*
D03*
X1295400D02*
D03*
X276860Y1245870D02*
D03*
X302260D02*
D03*
X623570Y701040D02*
D03*
X598170D02*
D03*
X572770D02*
D03*
X547370D02*
D03*
X521970D02*
D03*
X496570D02*
D03*
X471170D02*
D03*
D40*
X273050Y966470D02*
D03*
X624840Y791210D02*
D03*
X1219200Y467360D02*
D03*
X327660Y1245870D02*
D03*
X648970Y701040D02*
D03*
D41*
X561256Y1127330D02*
D03*
X796651D02*
D03*
X1032426D02*
D03*
D42*
X536256D02*
D03*
X516256D02*
D03*
X491256D02*
D03*
X771651D02*
D03*
X751651D02*
D03*
X726651D02*
D03*
X1007426D02*
D03*
X987426D02*
D03*
X962426D02*
D03*
D43*
X591956Y1154430D02*
D03*
X460556D02*
D03*
X827351D02*
D03*
X695951D02*
D03*
X1063126D02*
D03*
X931726D02*
D03*
D44*
X522446Y1009650D02*
D03*
X547846D02*
D03*
X573246D02*
D03*
X598646D02*
D03*
X624046D02*
D03*
X649446D02*
D03*
X674846D02*
D03*
X700246D02*
D03*
X725646D02*
D03*
X751046D02*
D03*
X776446D02*
D03*
X801846D02*
D03*
X827246D02*
D03*
X852646D02*
D03*
X878046D02*
D03*
X903446D02*
D03*
X928846D02*
D03*
X954246D02*
D03*
X979646D02*
D03*
X1005046D02*
D03*
Y857250D02*
D03*
X979646D02*
D03*
X954246D02*
D03*
X928846D02*
D03*
X903446D02*
D03*
X878046D02*
D03*
X852646D02*
D03*
X827246D02*
D03*
X801846D02*
D03*
X776446D02*
D03*
X751046D02*
D03*
X725646D02*
D03*
X700246D02*
D03*
X674846D02*
D03*
X649446D02*
D03*
X624046D02*
D03*
X598646D02*
D03*
X573246D02*
D03*
X547846D02*
D03*
D45*
X522446D02*
D03*
D46*
X190810Y782320D02*
D03*
X130810D02*
D03*
D47*
X165810Y734320D02*
D03*
D48*
X1131570Y937260D02*
D03*
X990600Y1046480D02*
D03*
X943610D02*
D03*
X374650Y786130D02*
D03*
D49*
X1219200Y1154430D02*
D03*
Y330200D02*
D03*
X287020D02*
D03*
Y1154430D02*
D03*
D50*
X712470Y281940D02*
D03*
Y701040D02*
D03*
X407670D02*
D03*
Y281940D02*
D03*
M02*
