G04*
G04 #@! TF.GenerationSoftware,Altium Limited,Altium Designer,22.1.2 (22)*
G04*
G04 Layer_Color=16711935*
%FSLAX25Y25*%
%MOIN*%
G70*
G04*
G04 #@! TF.SameCoordinates,DBBF1DAF-B7B8-4F0F-8103-75AA92EAAB8F*
G04*
G04*
G04 #@! TF.FilePolarity,Positive*
G04*
G01*
G75*
%ADD10C,0.00787*%
%ADD12C,0.00500*%
%ADD13C,0.00394*%
%ADD14C,0.00600*%
%ADD17C,0.01000*%
%ADD78C,0.00000*%
%ADD79C,0.00200*%
D10*
X400394Y270445D02*
G03*
X400394Y270445I-394J0D01*
G01*
X422394D02*
G03*
X422394Y270445I-394J0D01*
G01*
X411394D02*
G03*
X411394Y270445I-394J0D01*
G01*
X163830Y305177D02*
G03*
X163830Y305177I-394J0D01*
G01*
X253092D02*
G03*
X253092Y305177I-394J0D01*
G01*
X74567D02*
G03*
X74567Y305177I-394J0D01*
G01*
X558092Y340677D02*
G03*
X558092Y340677I-394J0D01*
G01*
X468830D02*
G03*
X468830Y340677I-394J0D01*
G01*
X379567Y341177D02*
G03*
X379567Y341177I-394J0D01*
G01*
X465739Y188394D02*
G03*
X465739Y188394I-394J0D01*
G01*
X436339Y159394D02*
G03*
X436339Y159394I-394J0D01*
G01*
X496839D02*
G03*
X496839Y159394I-394J0D01*
G01*
X288216Y166000D02*
G03*
X288216Y166000I-394J0D01*
G01*
X466239Y119394D02*
G03*
X466239Y119394I-394J0D01*
G01*
X381000Y24945D02*
G03*
X381000Y24945I-394J0D01*
G01*
X327000D02*
G03*
X327000Y24945I-394J0D01*
G01*
X520705Y268035D02*
Y292051D01*
X546295D01*
Y268035D02*
Y292051D01*
X520705Y268035D02*
X546295D01*
D12*
X295961Y116520D02*
G03*
X297732Y118291I0J1772D01*
G01*
X253441Y131480D02*
G03*
X251669Y129709I0J-1772D01*
G01*
Y118291D02*
G03*
X253441Y116520I1772J0D01*
G01*
X297732Y129709D02*
G03*
X295961Y131480I-1772J0D01*
G01*
X402461Y275563D02*
Y283437D01*
X397539Y275563D02*
Y283437D01*
X402461D01*
X397539Y275563D02*
X402461D01*
X424461D02*
Y283437D01*
X419539Y275563D02*
Y283437D01*
X424461D01*
X419539Y275563D02*
X424461D01*
X413461D02*
Y283437D01*
X408539Y275563D02*
Y283437D01*
X413461D01*
X408539Y275563D02*
X413461D01*
X253441Y116520D02*
X295961D01*
X251669Y118291D02*
Y129709D01*
X253441Y131480D02*
X295961D01*
X297732Y118291D02*
Y129709D01*
X467752Y278890D02*
Y303378D01*
Y278890D02*
X494248D01*
Y303378D01*
X467752D02*
X494248D01*
X486211Y201189D02*
Y224811D01*
X462589Y201189D02*
X486211D01*
X462589D02*
Y224811D01*
X486211D01*
X456811Y172189D02*
Y195811D01*
X433189Y172189D02*
X456811D01*
X433189D02*
Y195811D01*
X456811D01*
X517311Y172189D02*
Y195811D01*
X493689Y172189D02*
X517311D01*
X493689D02*
Y195811D01*
X517311D01*
X255500Y162998D02*
X280500D01*
X255500Y239002D02*
X280500D01*
Y162998D02*
Y239002D01*
X255500Y162998D02*
Y239002D01*
X486711Y132189D02*
Y155811D01*
X463089Y132189D02*
X486711D01*
X463089D02*
Y155811D01*
X486711D01*
X344189Y45811D02*
X367811D01*
Y22189D02*
Y45811D01*
X344189Y22189D02*
X367811D01*
X344189D02*
Y45811D01*
X290189D02*
X313811D01*
Y22189D02*
Y45811D01*
X290189Y22189D02*
X313811D01*
X290189D02*
Y45811D01*
X543228Y172783D02*
X599528D01*
X543228D02*
Y208217D01*
X599528D01*
Y172783D02*
Y208217D01*
D13*
X427854Y235669D02*
Y244331D01*
X422146Y235669D02*
Y244331D01*
X427854D01*
X422146Y235669D02*
X427854D01*
X414854D02*
Y244331D01*
X409146Y235669D02*
Y244331D01*
X414854D01*
X409146Y235669D02*
X414854D01*
X415354Y253669D02*
Y262331D01*
X409646Y253669D02*
Y262331D01*
X415354D01*
X409646Y253669D02*
X415354D01*
X400169Y211354D02*
X408831D01*
X400169Y205646D02*
X408831D01*
X400169D02*
Y211354D01*
X408831Y205646D02*
Y211354D01*
X403354Y218169D02*
Y226831D01*
X397646Y218169D02*
Y226831D01*
X403354D01*
X397646Y218169D02*
X403354D01*
X402854Y235669D02*
Y244331D01*
X397146Y235669D02*
Y244331D01*
X402854D01*
X397146Y235669D02*
X402854D01*
Y253669D02*
Y262331D01*
X397146Y253669D02*
Y262331D01*
X402854D01*
X397146Y253669D02*
X402854D01*
X96782Y362972D02*
X122097D01*
X176428D01*
X122097Y307224D02*
X176428D01*
X122097D02*
Y362972D01*
X176428Y307224D02*
Y362972D01*
X186045D02*
X211360D01*
X265691D01*
X211360Y307224D02*
X265691D01*
X211360D02*
Y362972D01*
X265691Y307224D02*
Y362972D01*
X516374Y258783D02*
Y313902D01*
X550626D01*
Y258783D02*
Y313902D01*
X516374Y258783D02*
X550626D01*
X291866Y134843D02*
Y140157D01*
X300134Y134843D02*
Y140157D01*
X291866D02*
X300134D01*
X291866Y134843D02*
X300134D01*
X273134Y135343D02*
Y140657D01*
X264866Y135343D02*
Y140657D01*
Y135343D02*
X273134D01*
X264866Y140657D02*
X273134D01*
X87165Y307224D02*
Y362972D01*
X32835Y307224D02*
Y362972D01*
Y307224D02*
X87165D01*
X32835Y362972D02*
X87165D01*
X7520D02*
X32835D01*
X570691Y342724D02*
Y398472D01*
X516360Y342724D02*
Y398472D01*
Y342724D02*
X570691D01*
X516360Y398472D02*
X570691D01*
X491045D02*
X516360D01*
X481428Y342724D02*
Y398472D01*
X427097Y342724D02*
Y398472D01*
Y342724D02*
X481428D01*
X427097Y398472D02*
X481428D01*
X401782D02*
X427097D01*
X392165Y343224D02*
Y398972D01*
X337835Y343224D02*
Y398972D01*
Y343224D02*
X392165D01*
X337835Y398972D02*
X392165D01*
X312520D02*
X337835D01*
X405146Y119669D02*
Y128331D01*
X410854Y119669D02*
Y128331D01*
X405146Y119669D02*
X410854D01*
X405146Y128331D02*
X410854D01*
X394146Y119669D02*
Y128331D01*
X399854Y119669D02*
Y128331D01*
X394146Y119669D02*
X399854D01*
X394146Y128331D02*
X399854D01*
X462169Y57646D02*
X470831D01*
X462169Y63354D02*
X470831D01*
Y57646D02*
Y63354D01*
X462169Y57646D02*
Y63354D01*
D14*
X275701Y121500D02*
Y126500D01*
X273701D02*
X275701D01*
X273701Y121500D02*
Y126500D01*
Y121500D02*
X275701D01*
X277201D02*
Y124000D01*
Y126500D01*
X272201Y121500D02*
Y124000D01*
Y126500D01*
D17*
X119932Y361870D02*
Y358671D01*
X118333D01*
X117799Y359204D01*
Y360271D01*
X118333Y360804D01*
X119932D01*
X114600Y359204D02*
X115134Y358671D01*
X116200D01*
X116733Y359204D01*
Y361337D01*
X116200Y361870D01*
X115134D01*
X114600Y361337D01*
X113534Y358671D02*
Y361870D01*
X111934D01*
X111401Y361337D01*
Y360804D01*
X111934Y360271D01*
X113534D01*
X111934D01*
X111401Y359737D01*
Y359204D01*
X111934Y358671D01*
X113534D01*
X105003D02*
X107136D01*
Y361870D01*
X105003D01*
X107136Y360271D02*
X106070D01*
X103937Y358671D02*
Y361870D01*
X102338D01*
X101804Y361337D01*
Y359204D01*
X102338Y358671D01*
X103937D01*
X98606Y359204D02*
X99139Y358671D01*
X100205D01*
X100738Y359204D01*
Y361337D01*
X100205Y361870D01*
X99139D01*
X98606Y361337D01*
Y360271D01*
X99672D01*
X95407Y358671D02*
X97539D01*
Y361870D01*
X95407D01*
X97539Y360271D02*
X96473D01*
X209195Y361870D02*
Y358671D01*
X207595D01*
X207062Y359204D01*
Y360271D01*
X207595Y360804D01*
X209195D01*
X203863Y359204D02*
X204396Y358671D01*
X205463D01*
X205996Y359204D01*
Y361337D01*
X205463Y361870D01*
X204396D01*
X203863Y361337D01*
X202797Y358671D02*
Y361870D01*
X201197D01*
X200664Y361337D01*
Y360804D01*
X201197Y360271D01*
X202797D01*
X201197D01*
X200664Y359737D01*
Y359204D01*
X201197Y358671D01*
X202797D01*
X194266D02*
X196399D01*
Y361870D01*
X194266D01*
X196399Y360271D02*
X195332D01*
X193200Y358671D02*
Y361870D01*
X191600D01*
X191067Y361337D01*
Y359204D01*
X191600Y358671D01*
X193200D01*
X187868Y359204D02*
X188401Y358671D01*
X189468D01*
X190001Y359204D01*
Y361337D01*
X189468Y361870D01*
X188401D01*
X187868Y361337D01*
Y360271D01*
X188934D01*
X184669Y358671D02*
X186802D01*
Y361870D01*
X184669D01*
X186802Y360271D02*
X185735D01*
X30669Y361870D02*
Y358671D01*
X29070D01*
X28537Y359204D01*
Y360271D01*
X29070Y360804D01*
X30669D01*
X25338Y359204D02*
X25871Y358671D01*
X26937D01*
X27470Y359204D01*
Y361337D01*
X26937Y361870D01*
X25871D01*
X25338Y361337D01*
X24271Y358671D02*
Y361870D01*
X22672D01*
X22139Y361337D01*
Y360804D01*
X22672Y360271D01*
X24271D01*
X22672D01*
X22139Y359737D01*
Y359204D01*
X22672Y358671D01*
X24271D01*
X15741D02*
X17873D01*
Y361870D01*
X15741D01*
X17873Y360271D02*
X16807D01*
X14674Y358671D02*
Y361870D01*
X13075D01*
X12542Y361337D01*
Y359204D01*
X13075Y358671D01*
X14674D01*
X9343Y359204D02*
X9876Y358671D01*
X10942D01*
X11475Y359204D01*
Y361337D01*
X10942Y361870D01*
X9876D01*
X9343Y361337D01*
Y360271D01*
X10409D01*
X6144Y358671D02*
X8276D01*
Y361870D01*
X6144D01*
X8276Y360271D02*
X7210D01*
X514195Y397370D02*
Y394171D01*
X512595D01*
X512062Y394704D01*
Y395771D01*
X512595Y396304D01*
X514195D01*
X508863Y394704D02*
X509396Y394171D01*
X510463D01*
X510996Y394704D01*
Y396837D01*
X510463Y397370D01*
X509396D01*
X508863Y396837D01*
X507797Y394171D02*
Y397370D01*
X506197D01*
X505664Y396837D01*
Y396304D01*
X506197Y395771D01*
X507797D01*
X506197D01*
X505664Y395237D01*
Y394704D01*
X506197Y394171D01*
X507797D01*
X499266D02*
X501399D01*
Y397370D01*
X499266D01*
X501399Y395771D02*
X500332D01*
X498200Y394171D02*
Y397370D01*
X496600D01*
X496067Y396837D01*
Y394704D01*
X496600Y394171D01*
X498200D01*
X492868Y394704D02*
X493401Y394171D01*
X494468D01*
X495001Y394704D01*
Y396837D01*
X494468Y397370D01*
X493401D01*
X492868Y396837D01*
Y395771D01*
X493934D01*
X489669Y394171D02*
X491802D01*
Y397370D01*
X489669D01*
X491802Y395771D02*
X490735D01*
X424932Y397370D02*
Y394171D01*
X423333D01*
X422799Y394704D01*
Y395771D01*
X423333Y396304D01*
X424932D01*
X419600Y394704D02*
X420133Y394171D01*
X421200D01*
X421733Y394704D01*
Y396837D01*
X421200Y397370D01*
X420133D01*
X419600Y396837D01*
X418534Y394171D02*
Y397370D01*
X416934D01*
X416401Y396837D01*
Y396304D01*
X416934Y395771D01*
X418534D01*
X416934D01*
X416401Y395237D01*
Y394704D01*
X416934Y394171D01*
X418534D01*
X410003D02*
X412136D01*
Y397370D01*
X410003D01*
X412136Y395771D02*
X411070D01*
X408937Y394171D02*
Y397370D01*
X407338D01*
X406804Y396837D01*
Y394704D01*
X407338Y394171D01*
X408937D01*
X403606Y394704D02*
X404139Y394171D01*
X405205D01*
X405738Y394704D01*
Y396837D01*
X405205Y397370D01*
X404139D01*
X403606Y396837D01*
Y395771D01*
X404672D01*
X400407Y394171D02*
X402539D01*
Y397370D01*
X400407D01*
X402539Y395771D02*
X401473D01*
X335669Y397870D02*
Y394671D01*
X334070D01*
X333537Y395204D01*
Y396271D01*
X334070Y396804D01*
X335669D01*
X330338Y395204D02*
X330871Y394671D01*
X331937D01*
X332470Y395204D01*
Y397337D01*
X331937Y397870D01*
X330871D01*
X330338Y397337D01*
X329271Y394671D02*
Y397870D01*
X327672D01*
X327139Y397337D01*
Y396804D01*
X327672Y396271D01*
X329271D01*
X327672D01*
X327139Y395737D01*
Y395204D01*
X327672Y394671D01*
X329271D01*
X320741D02*
X322873D01*
Y397870D01*
X320741D01*
X322873Y396271D02*
X321807D01*
X319674Y394671D02*
Y397870D01*
X318075D01*
X317542Y397337D01*
Y395204D01*
X318075Y394671D01*
X319674D01*
X314343Y395204D02*
X314876Y394671D01*
X315942D01*
X316476Y395204D01*
Y397337D01*
X315942Y397870D01*
X314876D01*
X314343Y397337D01*
Y396271D01*
X315409D01*
X311144Y394671D02*
X313277D01*
Y397870D01*
X311144D01*
X313277Y396271D02*
X312210D01*
D78*
X346800Y284000D02*
G03*
X349200Y284000I1200J0D01*
G01*
X320500Y77000D02*
Y284000D01*
X346800D01*
X349200D01*
X375500D01*
Y77000D02*
Y284000D01*
X320500Y77000D02*
X375500D01*
Y277500D02*
X379900D01*
Y273500D02*
Y277500D01*
X375500Y273500D02*
X379900D01*
X375500D02*
Y277500D01*
Y267500D02*
X379900D01*
Y263500D02*
Y267500D01*
X375500Y263500D02*
X379900D01*
X375500D02*
Y267500D01*
Y257500D02*
X379900D01*
Y253500D02*
Y257500D01*
X375500Y253500D02*
X379900D01*
X375500D02*
Y257500D01*
Y247500D02*
X379900D01*
Y243500D02*
Y247500D01*
X375500Y243500D02*
X379900D01*
X375500D02*
Y247500D01*
Y237500D02*
X379900D01*
Y233500D02*
Y237500D01*
X375500Y233500D02*
X379900D01*
X375500D02*
Y237500D01*
Y227500D02*
X379900D01*
Y223500D02*
Y227500D01*
X375500Y223500D02*
X379900D01*
X375500D02*
Y227500D01*
Y217500D02*
X379900D01*
Y213500D02*
Y217500D01*
X375500Y213500D02*
X379900D01*
X375500D02*
Y217500D01*
Y207500D02*
X379900D01*
Y203500D02*
Y207500D01*
X375500Y203500D02*
X379900D01*
X375500D02*
Y207500D01*
Y197500D02*
X379900D01*
Y193500D02*
Y197500D01*
X375500Y193500D02*
X379900D01*
X375500D02*
Y197500D01*
Y187500D02*
X379900D01*
Y183500D02*
Y187500D01*
X375500Y183500D02*
X379900D01*
X375500D02*
Y187500D01*
Y177500D02*
X379900D01*
Y173500D02*
Y177500D01*
X375500Y173500D02*
X379900D01*
X375500D02*
Y177500D01*
Y167500D02*
X379900D01*
Y163500D02*
Y167500D01*
X375500Y163500D02*
X379900D01*
X375500D02*
Y167500D01*
Y157500D02*
X379900D01*
Y153500D02*
Y157500D01*
X375500Y153500D02*
X379900D01*
X375500D02*
Y157500D01*
Y147500D02*
X379900D01*
Y143500D02*
Y147500D01*
X375500Y143500D02*
X379900D01*
X375500D02*
Y147500D01*
Y137500D02*
X379900D01*
Y133500D02*
Y137500D01*
X375500Y133500D02*
X379900D01*
X375500D02*
Y137500D01*
Y127500D02*
X379900D01*
Y123500D02*
Y127500D01*
X375500Y123500D02*
X379900D01*
X375500D02*
Y127500D01*
Y117500D02*
X379900D01*
Y113500D02*
Y117500D01*
X375500Y113500D02*
X379900D01*
X375500D02*
Y117500D01*
Y107500D02*
X379900D01*
X380000Y103500D01*
X375500D02*
X380000D01*
X375500D02*
Y107500D01*
Y97500D02*
X379900D01*
X380000Y93600D01*
X375500Y93500D02*
X380000Y93600D01*
X375500Y93500D02*
Y97500D01*
Y87500D02*
X379900D01*
X380000Y83600D01*
X375500Y83500D02*
X380000Y83600D01*
X375500Y83500D02*
Y87500D01*
X316100Y83500D02*
X320500D01*
X316100D02*
Y87400D01*
X320500Y87500D01*
Y83500D02*
Y87500D01*
X316100Y93500D02*
X320500D01*
X316100D02*
Y97500D01*
X320500D01*
Y93500D02*
Y97500D01*
X316100Y103500D02*
X320500D01*
X316100D02*
Y107500D01*
X320500D01*
Y103500D02*
Y107500D01*
X316100Y113500D02*
X320500D01*
X316100D02*
Y117500D01*
X320500D01*
Y113500D02*
Y117500D01*
X316100Y123500D02*
X320500D01*
X316100D02*
Y127500D01*
X320500D01*
Y123500D02*
Y127500D01*
X316100Y133500D02*
X320500D01*
X316100D02*
Y137500D01*
X320500D01*
Y133500D02*
Y137500D01*
X316100Y143500D02*
X320500D01*
X316100D02*
Y147500D01*
X320500D01*
Y143500D02*
Y147500D01*
X316100Y153500D02*
X320500D01*
X316100D02*
Y157500D01*
X320500D01*
Y153500D02*
Y157500D01*
X316100Y163500D02*
X320500D01*
X316100D02*
Y167500D01*
X320500D01*
Y163500D02*
Y167500D01*
X316100Y173500D02*
X320500D01*
X316100D02*
Y177500D01*
X320500D01*
Y173500D02*
Y177500D01*
X316100Y183500D02*
X320500D01*
X316000Y187500D02*
X316100Y183500D01*
X316000Y187500D02*
X320500D01*
Y183500D02*
Y187500D01*
X316100Y193500D02*
X320500D01*
X316000Y197500D02*
X316100Y193500D01*
X316000Y197500D02*
X320500D01*
Y193500D02*
Y197500D01*
X316000Y203500D02*
X320500D01*
X316000D02*
Y207500D01*
X320500D01*
Y203500D02*
Y207500D01*
X316000Y213500D02*
X320500D01*
X316000D02*
Y217500D01*
X320500D01*
Y213500D02*
Y217500D01*
X316000Y223500D02*
X320500D01*
X316000D02*
Y227500D01*
X320500D01*
Y223500D02*
Y227500D01*
X316000Y233500D02*
X320500D01*
X316000D02*
Y237500D01*
X320500D01*
Y233500D02*
Y237500D01*
X316000Y243500D02*
X320500D01*
X316000D02*
Y247500D01*
X320500D01*
Y243500D02*
Y247500D01*
X316000Y253500D02*
X320500D01*
X316000D02*
Y257500D01*
X320500D01*
Y253500D02*
Y257500D01*
X316000Y263500D02*
X320500D01*
X316000D02*
Y267500D01*
X320500D01*
Y263500D02*
Y267500D01*
X316000Y273500D02*
X320500D01*
X316000D02*
Y277500D01*
X320500D01*
Y273500D02*
Y277500D01*
D79*
X277201Y124000D02*
X279201D01*
X270201D02*
X272201D01*
M02*
