G04*
G04 #@! TF.GenerationSoftware,Altium Limited,Altium Designer,22.1.2 (22)*
G04*
G04 Layer_Color=32768*
%FSLAX25Y25*%
%MOIN*%
G70*
G04*
G04 #@! TF.SameCoordinates,DBBF1DAF-B7B8-4F0F-8103-75AA92EAAB8F*
G04*
G04*
G04 #@! TF.FilePolarity,Positive*
G04*
G01*
G75*
%ADD13C,0.00394*%
D13*
X301854Y165169D02*
Y173831D01*
X296146Y165169D02*
Y173831D01*
X301854D01*
X296146Y165169D02*
X301854D01*
X411646Y177169D02*
Y185831D01*
X417354Y177169D02*
Y185831D01*
X411646Y177169D02*
X417354D01*
X411646Y185831D02*
X417354D01*
X399146Y177169D02*
Y185831D01*
X404854Y177169D02*
Y185831D01*
X399146Y177169D02*
X404854D01*
X399146Y185831D02*
X404854D01*
X387146Y177169D02*
Y185831D01*
X392854Y177169D02*
Y185831D01*
X387146Y177169D02*
X392854D01*
X387146Y185831D02*
X392854D01*
X453146Y282669D02*
Y291331D01*
X458854Y282669D02*
Y291331D01*
X453146Y282669D02*
X458854D01*
X453146Y291331D02*
X458854D01*
X561146Y283169D02*
Y291831D01*
X566854Y283169D02*
Y291831D01*
X561146Y283169D02*
X566854D01*
X561146Y291831D02*
X566854D01*
X511854Y272169D02*
Y280831D01*
X506146Y272169D02*
Y280831D01*
X511854D01*
X506146Y272169D02*
X511854D01*
X506146Y287669D02*
Y296331D01*
X511854Y287669D02*
Y296331D01*
X506146Y287669D02*
X511854D01*
X506146Y296331D02*
X511854D01*
X539169Y330146D02*
X547831D01*
X539169Y335854D02*
X547831D01*
Y330146D02*
Y335854D01*
X539169Y330146D02*
Y335854D01*
X450669Y330646D02*
X459331D01*
X450669Y336354D02*
X459331D01*
Y330646D02*
Y336354D01*
X450669Y330646D02*
Y336354D01*
X360669Y329146D02*
X369331D01*
X360669Y334854D02*
X369331D01*
Y329146D02*
Y334854D01*
X360669Y329146D02*
Y334854D01*
X234169Y296146D02*
X242831D01*
X234169Y301854D02*
X242831D01*
Y296146D02*
Y301854D01*
X234169Y296146D02*
Y301854D01*
X55669Y294646D02*
X64331D01*
X55669Y300354D02*
X64331D01*
Y294646D02*
Y300354D01*
X55669Y294646D02*
Y300354D01*
X145669Y296646D02*
X154331D01*
X145669Y302354D02*
X154331D01*
Y296646D02*
Y302354D01*
X145669Y296646D02*
Y302354D01*
X501639Y59598D02*
Y68260D01*
X495930Y59598D02*
Y68260D01*
X501639D01*
X495930Y59598D02*
X501639D01*
X234354Y227669D02*
Y236331D01*
X228646Y227669D02*
Y236331D01*
X234354D01*
X228646Y227669D02*
X234354D01*
M02*
