G04*
G04 #@! TF.GenerationSoftware,Altium Limited,Altium Designer,22.1.2 (22)*
G04*
G04 Layer_Color=8421504*
%FSLAX25Y25*%
%MOIN*%
G70*
G04*
G04 #@! TF.SameCoordinates,DBBF1DAF-B7B8-4F0F-8103-75AA92EAAB8F*
G04*
G04*
G04 #@! TF.FilePolarity,Positive*
G04*
G01*
G75*
%ADD18R,0.06000X0.04500*%
%ADD19R,0.04500X0.06000*%
%ADD20R,0.05118X0.04528*%
G04:AMPARAMS|DCode=21|XSize=51.18mil|YSize=29.92mil|CornerRadius=3.74mil|HoleSize=0mil|Usage=FLASHONLY|Rotation=180.000|XOffset=0mil|YOffset=0mil|HoleType=Round|Shape=RoundedRectangle|*
%AMROUNDEDRECTD21*
21,1,0.05118,0.02244,0,0,180.0*
21,1,0.04370,0.02992,0,0,180.0*
1,1,0.00748,-0.02185,0.01122*
1,1,0.00748,0.02185,0.01122*
1,1,0.00748,0.02185,-0.01122*
1,1,0.00748,-0.02185,-0.01122*
%
%ADD21ROUNDEDRECTD21*%
%ADD22R,0.21654X0.07874*%
G04:AMPARAMS|DCode=23|XSize=51.18mil|YSize=29.92mil|CornerRadius=3.74mil|HoleSize=0mil|Usage=FLASHONLY|Rotation=90.000|XOffset=0mil|YOffset=0mil|HoleType=Round|Shape=RoundedRectangle|*
%AMROUNDEDRECTD23*
21,1,0.05118,0.02244,0,0,90.0*
21,1,0.04370,0.02992,0,0,90.0*
1,1,0.00748,0.01122,0.02185*
1,1,0.00748,0.01122,-0.02185*
1,1,0.00748,-0.01122,-0.02185*
1,1,0.00748,-0.01122,0.02185*
%
%ADD23ROUNDEDRECTD23*%
%ADD24R,0.06299X0.11811*%
%ADD25R,0.26378X0.26378*%
%ADD26R,0.22835X0.24410*%
%ADD27R,0.06299X0.11811*%
%ADD28R,0.03937X0.05118*%
%ADD29R,0.05512X0.08268*%
%ADD30R,0.08268X0.05512*%
D18*
X425000Y244000D02*
D03*
Y236000D02*
D03*
X412000Y244000D02*
D03*
Y236000D02*
D03*
X412500Y262000D02*
D03*
Y254000D02*
D03*
X400500Y226500D02*
D03*
Y218500D02*
D03*
X400000Y244000D02*
D03*
Y236000D02*
D03*
Y262000D02*
D03*
Y254000D02*
D03*
X408000Y120000D02*
D03*
Y128000D02*
D03*
X397000Y120000D02*
D03*
Y128000D02*
D03*
D19*
X400500Y208500D02*
D03*
X408500D02*
D03*
X470500Y60500D02*
D03*
X462500D02*
D03*
D20*
X400000Y275071D02*
D03*
Y283929D02*
D03*
X422000Y275071D02*
D03*
Y283929D02*
D03*
X411000Y275071D02*
D03*
Y283929D02*
D03*
D21*
X299000Y173004D02*
D03*
Y165957D02*
D03*
X414500Y177996D02*
D03*
Y185043D02*
D03*
X402000Y177996D02*
D03*
Y185043D02*
D03*
X390000Y177996D02*
D03*
Y185043D02*
D03*
X456000Y283496D02*
D03*
Y290543D02*
D03*
X564000Y283996D02*
D03*
Y291043D02*
D03*
X509000Y280004D02*
D03*
Y272957D02*
D03*
Y288496D02*
D03*
Y295543D02*
D03*
X498784Y67433D02*
D03*
Y60386D02*
D03*
X231500Y235504D02*
D03*
Y228457D02*
D03*
D22*
X293402Y124000D02*
D03*
X256000D02*
D03*
D23*
X547004Y333000D02*
D03*
X539957D02*
D03*
X458504Y333500D02*
D03*
X451457D02*
D03*
X368504Y332000D02*
D03*
X361457D02*
D03*
X242004Y299000D02*
D03*
X234957D02*
D03*
X63504Y297500D02*
D03*
X56457D02*
D03*
X153504Y299500D02*
D03*
X146457D02*
D03*
D24*
X542555Y302091D02*
D03*
X524445D02*
D03*
D25*
X533500Y275909D02*
D03*
D26*
X481000Y297000D02*
D03*
D27*
X472004Y268732D02*
D03*
X489996D02*
D03*
D28*
X293047Y137500D02*
D03*
X298953D02*
D03*
X271953Y138000D02*
D03*
X266047D02*
D03*
D29*
X483258Y230913D02*
D03*
Y195087D02*
D03*
X465542D02*
D03*
Y230913D02*
D03*
X453858Y201913D02*
D03*
Y166087D02*
D03*
X436142D02*
D03*
Y201913D02*
D03*
X514358D02*
D03*
Y166087D02*
D03*
X496642D02*
D03*
Y201913D02*
D03*
X483758Y161913D02*
D03*
Y126087D02*
D03*
X466042D02*
D03*
Y161913D02*
D03*
D30*
X338087Y42858D02*
D03*
X373913D02*
D03*
Y25142D02*
D03*
X338087D02*
D03*
X284087Y42858D02*
D03*
X319913D02*
D03*
Y25142D02*
D03*
X284087D02*
D03*
M02*
