G04*
G04 #@! TF.GenerationSoftware,Altium Limited,Altium Designer,22.1.2 (22)*
G04*
G04 Layer_Color=16711935*
%FSLAX25Y25*%
%MOIN*%
G70*
G04*
G04 #@! TF.SameCoordinates,DBBF1DAF-B7B8-4F0F-8103-75AA92EAAB8F*
G04*
G04*
G04 #@! TF.FilePolarity,Negative*
G04*
G01*
G75*
%ADD44P,0.09483X4X180.0*%
%ADD45C,0.06706*%
%ADD46P,0.09483X4X90.0*%
%ADD47R,0.06706X0.06706*%
%ADD48C,0.13698*%
%ADD49C,0.06422*%
%ADD50R,0.06422X0.06422*%
%ADD51R,0.06706X0.06706*%
%ADD52C,0.06700*%
%ADD53R,0.06700X0.06700*%
%ADD54R,0.05249X0.05249*%
%ADD55C,0.05249*%
%ADD56O,0.08674X0.16548*%
%ADD57O,0.19304X0.10052*%
%ADD58C,0.15800*%
%ADD59C,0.05800*%
D44*
X532071Y63929D02*
D03*
D45*
X525000Y71000D02*
D03*
X517929Y78071D02*
D03*
X510858Y85142D02*
D03*
X469429Y19429D02*
D03*
X476500Y26500D02*
D03*
X483571Y33571D02*
D03*
X490642Y40642D02*
D03*
X494601Y95071D02*
D03*
X220000Y223000D02*
D03*
Y213000D02*
D03*
Y203000D02*
D03*
Y193000D02*
D03*
Y183000D02*
D03*
Y173000D02*
D03*
Y163000D02*
D03*
Y153000D02*
D03*
Y143000D02*
D03*
Y133000D02*
D03*
Y123000D02*
D03*
Y113000D02*
D03*
Y103000D02*
D03*
Y93000D02*
D03*
Y83000D02*
D03*
Y73000D02*
D03*
Y63000D02*
D03*
Y53000D02*
D03*
Y43000D02*
D03*
X555500Y239000D02*
D03*
X565500D02*
D03*
X575500D02*
D03*
X555399Y88571D02*
D03*
D46*
X462358Y12358D02*
D03*
X487530Y88000D02*
D03*
X548328Y81500D02*
D03*
D47*
X220000Y233000D02*
D03*
D48*
X123397Y322500D02*
D03*
X175129D02*
D03*
X212659D02*
D03*
X264391D02*
D03*
X85866D02*
D03*
X34134D02*
D03*
X569391Y358000D02*
D03*
X517659D02*
D03*
X480129D02*
D03*
X428397D02*
D03*
X390866Y358500D02*
D03*
X339134D02*
D03*
D49*
X135483Y311831D02*
D03*
X145326D02*
D03*
X153200D02*
D03*
X224746D02*
D03*
X234588D02*
D03*
X242462D02*
D03*
X63937D02*
D03*
X56063D02*
D03*
X46220D02*
D03*
X547462Y347331D02*
D03*
X539588D02*
D03*
X529746D02*
D03*
X458200D02*
D03*
X450326D02*
D03*
X440483D02*
D03*
X368937Y347831D02*
D03*
X361063D02*
D03*
X351220D02*
D03*
D50*
X163042Y311831D02*
D03*
X252305D02*
D03*
X73780D02*
D03*
X557305Y347331D02*
D03*
X468042D02*
D03*
X378780Y347831D02*
D03*
D51*
X585500Y239000D02*
D03*
D52*
X378000Y275500D02*
D03*
Y265500D02*
D03*
Y255500D02*
D03*
Y245500D02*
D03*
Y235500D02*
D03*
Y225500D02*
D03*
Y215500D02*
D03*
Y205500D02*
D03*
Y195500D02*
D03*
Y185500D02*
D03*
Y175500D02*
D03*
Y165500D02*
D03*
Y155500D02*
D03*
Y145500D02*
D03*
Y135500D02*
D03*
Y125500D02*
D03*
Y115500D02*
D03*
Y105500D02*
D03*
Y95500D02*
D03*
Y85500D02*
D03*
X318000D02*
D03*
Y95500D02*
D03*
Y105500D02*
D03*
Y115500D02*
D03*
Y125500D02*
D03*
Y135500D02*
D03*
Y145500D02*
D03*
Y155500D02*
D03*
Y165500D02*
D03*
Y175500D02*
D03*
Y185500D02*
D03*
Y195500D02*
D03*
Y205500D02*
D03*
Y215500D02*
D03*
Y225500D02*
D03*
Y235500D02*
D03*
Y245500D02*
D03*
Y255500D02*
D03*
Y265500D02*
D03*
D53*
Y275500D02*
D03*
D54*
X283630Y166000D02*
D03*
D55*
Y176000D02*
D03*
Y186000D02*
D03*
Y196000D02*
D03*
Y206000D02*
D03*
Y216000D02*
D03*
Y226000D02*
D03*
Y236000D02*
D03*
X252370D02*
D03*
Y226000D02*
D03*
Y216000D02*
D03*
Y206000D02*
D03*
Y196000D02*
D03*
Y186000D02*
D03*
Y176000D02*
D03*
Y166000D02*
D03*
D56*
X546378Y190500D02*
D03*
X570000D02*
D03*
D57*
X556220Y209398D02*
D03*
D58*
X417000Y65000D02*
D03*
X541500Y137500D02*
D03*
X258000Y65000D02*
D03*
X290000Y270000D02*
D03*
X20000Y20000D02*
D03*
Y289500D02*
D03*
X570000Y320000D02*
D03*
D59*
X400000Y299000D02*
D03*
X553100D02*
D03*
Y288255D02*
D03*
X357700Y165200D02*
D03*
X483258Y181800D02*
D03*
X443500Y135500D02*
D03*
X424900Y145500D02*
D03*
X239000Y282500D02*
D03*
X476900Y122400D02*
D03*
X452600Y159100D02*
D03*
X470500Y53500D02*
D03*
X270000Y162000D02*
D03*
X359500Y140500D02*
D03*
X502900Y164700D02*
D03*
X327400Y120500D02*
D03*
X303500Y178000D02*
D03*
M02*
